<?xml version="1.0" standalone="no"?>
<!DOCTYPE svg PUBLIC "-//W3C//DTD SVG 1.1//EN" "http://www.w3.org/Graphics/SVG/1.1/DTD/svg11.dtd" >
<svg xmlns="http://www.w3.org/2000/svg">
<metadata></metadata>
<defs>
<font id="adelle_thitalic" horiz-adv-x="1167" >
<font-face units-per-em="2048" ascent="1546" descent="-502" />
<missing-glyph horiz-adv-x="483" />
<glyph unicode="&#xfb01;" horiz-adv-x="1265" d="M100 -434l197 1368q3 20 -14 20h-152l14 86h166l31 230q21 150 120 224.5t263 74.5q104 0 196 -34.5t154 -74.5l-51 -76q-164 99 -309 99q-129 0 -195 -64t-84 -190l-22 -168q-2 -12 0.5 -16.5t13.5 -4.5h682l-131 -921q-3 -25 1.5 -31.5t27.5 -9.5l137 -17l-10 -61h-279 l-4 8l39 201l102 717q3 18 -2.5 23.5t-23.5 4.5h-570l-196 -1388h-101z" />
<glyph unicode="&#xfb02;" horiz-adv-x="1271" d="M100 -434l197 1368q3 20 -14 20h-152l14 86h166l31 230q21 150 121 224.5t266 74.5q171 0 336 -94l94 71h21l-201 -1427q-3 -25 1.5 -31.5t27.5 -9.5l137 -17l-10 -61h-279l-4 8l39 201l164 1169q-172 105 -336 105q-131 0 -198 -64.5t-85 -191.5l-22 -166 q-2 -12 0.5 -16.5t13.5 -4.5h295l-14 -86h-312l-196 -1388h-101z" />
<glyph unicode="&#xfb03;" horiz-adv-x="1966" d="M100 -434l197 1368q3 20 -14 20h-152l14 86h164l29 191q43 299 319 299q99 0 167 -31t102 -65l-54 -74q-111 82 -217 82q-103 0 -152 -59t-71 -195l-20 -127q-2 -12 0.5 -16.5t13.5 -4.5h584l30 230q21 150 120 224.5t263 74.5q104 0 196.5 -34.5t154.5 -74.5l-52 -76 q-164 99 -309 99q-129 0 -194.5 -64t-83.5 -190l-23 -168q-2 -12 0.5 -16.5t13.5 -4.5h682l-131 -921q-3 -25 1.5 -31.5t27.5 -9.5l137 -17l-10 -61h-279l-4 8l39 201l103 717q3 17 -2.5 23t-24.5 5h-569l-197 -1388h-100l196 1368q3 20 -14 20h-584l-196 -1388h-101z" />
<glyph unicode="&#xfb04;" horiz-adv-x="1972" d="M100 -434l197 1368q3 20 -14 20h-152l14 86h164l29 191q43 299 319 299q99 0 167 -31t102 -65l-54 -74q-111 82 -217 82q-103 0 -152 -59t-71 -195l-20 -127q-2 -12 0.5 -16.5t13.5 -4.5h586l30 230q21 149 121.5 224t266.5 75q170 0 335 -94l95 71h20l-201 -1427 q-3 -25 1.5 -31.5t27.5 -9.5l137 -17l-10 -61h-279l-4 8l39 201l164 1169q-172 105 -336 105q-131 0 -197.5 -64t-84.5 -192l-23 -166q-2 -12 0.5 -16.5t13.5 -4.5h295l-14 -86h-311l-197 -1388h-100l196 1368q3 17 -10 20h-590l-196 -1388h-101z" />
<glyph horiz-adv-x="2048" />
<glyph horiz-adv-x="2048" />
<glyph unicode="&#xd;" horiz-adv-x="2048" />
<glyph unicode=" "  horiz-adv-x="483" />
<glyph unicode="&#x09;" horiz-adv-x="483" />
<glyph unicode="&#xa0;" horiz-adv-x="483" />
<glyph unicode="!" horiz-adv-x="512" d="M106 63q0 61 32.5 93t90.5 32q45 0 70 -23t25 -65q0 -62 -32.5 -93.5t-90.5 -31.5q-45 0 -70 22.5t-25 65.5zM215 369l86 788l47 326h123l-47 -326l-129 -788h-80z" />
<glyph unicode="&#x22;" horiz-adv-x="702" d="M180 915l76 531h121l-76 -531h-121zM485 915l76 531h121l-76 -531h-121z" />
<glyph unicode="#" horiz-adv-x="1243" d="M51 311l35 82h248l106 357h-258l35 84h250l78 278h104l-82 -278h293l78 278h104l-79 -278h256l-33 -84h-252l-98 -357h251l-30 -82h-246l-90 -311h-100l88 311h-297l-88 -311h-103l88 311h-258zM436 393h297l101 357h-293z" />
<glyph unicode="$" horiz-adv-x="1044" d="M29 80l39 264h71l23 -188q3 -10 4 -13t9 -9.5t24 -12.5q96 -33 235 -35l68 516q-32 11 -50.5 17.5t-48 18.5t-47.5 22t-42.5 26t-39 31.5t-31 37.5t-25.5 46t-15 54.5t-6 64.5q0 83 32.5 150t88 109.5t125 67t149.5 29.5l22 145h86l-20 -141q157 -6 311 -72l-37 -290 l-73 10l-11 192q-2 10 -5.5 15t-16.5 12q-71 36 -180 39l-72 -522q52 -19 88.5 -34.5t77.5 -42t65.5 -56t41 -74t16.5 -99.5q0 -154 -95.5 -246.5t-281.5 -109.5l-23 -166h-84l21 164q-120 -1 -229 26t-164 54zM297 926q0 -48 18 -87t51.5 -66.5t67.5 -45.5t80 -35l68 494 q-131 -12 -208 -83.5t-77 -176.5zM520 92q136 14 199 83t63 175q0 49 -13.5 85.5t-42.5 62t-59.5 42.5t-78.5 35z" />
<glyph unicode="%" horiz-adv-x="1718" d="M158 827q0 193 101.5 317t277.5 124q139 0 206.5 -80.5t67.5 -220.5q0 -197 -99.5 -320t-275.5 -123q-75 0 -131 25t-87 68.5t-45.5 95.5t-14.5 114zM260 840q0 -232 184 -232q51 0 93 15t68.5 38.5t46.5 57.5t30 65t16 69.5t7.5 62.5t1.5 51q0 217 -181 217 q-60 0 -107.5 -23t-76.5 -58.5t-48 -82.5t-26.5 -91.5t-7.5 -88.5zM342 -35l954 1307h101l-953 -1307h-102zM950 279q0 193 101.5 316.5t277.5 123.5q139 0 207 -80.5t68 -220.5q0 -197 -99.5 -320t-275.5 -123q-75 0 -131 25t-87.5 69t-46 96t-14.5 114zM1053 291 q0 -232 184 -232q51 0 93 15t68.5 38.5t46.5 57.5t30 65t16 69.5t7 62.5t1 51q0 217 -180 217q-60 0 -107.5 -23t-76.5 -58.5t-48 -82.5t-26.5 -91.5t-7.5 -88.5z" />
<glyph unicode="&#x26;" horiz-adv-x="1370" d="M154 328q0 134 79 235.5t244 145.5q-192 73 -192 274q0 168 126 277.5t334 109.5q106 0 207 -27.5t146 -56.5l-37 -246l-78 2l-8 175q0 26 -25 34q-38 13 -96.5 23t-99.5 10q-46 0 -90.5 -6.5t-95 -26.5t-88 -51t-62.5 -85t-25 -124q0 -114 69.5 -177.5t211.5 -63.5h131 l-14 -84q-134 0 -230 -17q-143 -28 -219 -101.5t-76 -207.5q0 -67 20 -117t53 -81t82 -50t99.5 -26t112.5 -7q188 0 321 68q19 9 21 29l84 587h213l-12 -73l-84 -8q-19 -2 -27.5 -8t-9.5 -21l-78 -545q-180 -113 -434 -113q-241 0 -357 93.5t-116 259.5z" />
<glyph unicode="'" horiz-adv-x="397" d="M180 915l76 531h121l-76 -531h-121z" />
<glyph unicode="(" horiz-adv-x="577" d="M141 414q0 128 27.5 257.5t69 234.5t103.5 213.5t117.5 187t123.5 163.5l69 -49q-109 -150 -176.5 -258t-124.5 -231.5t-82.5 -247t-25.5 -264.5q0 -187 41.5 -343.5t117.5 -334.5l-88 -43q-172 355 -172 715z" />
<glyph unicode=")" horiz-adv-x="565" d="M-72 -252q109 150 177.5 258.5t126 232t83 247t25.5 264.5q0 186 -42 340t-120 337l84 41q176 -364 176 -712q0 -129 -27 -258t-68.5 -234.5t-102.5 -213.5t-116.5 -187t-123.5 -164z" />
<glyph unicode="*" horiz-adv-x="958" d="M184 1241l54 100l114 -41l178 -96l11 217l16 125h111l-17 -125l-53 -217h-68l-26 -61l55 -41l-151 -176l-99 -99l-76 76l95 92l176 148l-207 53zM559 1102l51 39l-12 63l207 96l123 41l26 -100l-127 -45l-217 -55l131 -150l70 -96l-84 -64l-70 95z" />
<glyph unicode="+" d="M219 608l14 103h320l47 323h107l-48 -323h334l-16 -103h-334l-45 -334h-104l45 334h-320z" />
<glyph unicode="," horiz-adv-x="358" d="M-2 -211l96 211q5 13 -8 20l-59 29l65 133q85 -7 124.5 -25t39.5 -65q0 -40 -39 -104l-156 -226z" />
<glyph unicode="-" horiz-adv-x="636" d="M49 537l17 104h555l-17 -104h-555z" />
<glyph unicode="." horiz-adv-x="389" d="M43 57q0 63 33 97t90 34q44 0 69 -22t25 -62q0 -55 -33 -92t-92 -37q-43 0 -67.5 21.5t-24.5 60.5z" />
<glyph unicode="/" horiz-adv-x="704" d="M-53 -188l796 1685h95l-799 -1685h-92z" />
<glyph unicode="0" horiz-adv-x="1091" d="M94 401q0 118 8 177q14 98 38.5 182t69 165.5t103.5 138.5t147 91.5t195 34.5q103 0 177.5 -34t115.5 -94.5t59.5 -133.5t18.5 -162q0 -84 -12 -170q-13 -101 -33.5 -184t-61 -167t-96.5 -141t-143.5 -93t-198.5 -36q-387 0 -387 426zM193 428q0 -369 292 -369 q362 0 430 527q13 93 13 164q0 352 -289 352q-102 0 -180 -39.5t-129 -114t-82 -168t-49 -215.5q-6 -71 -6 -137z" />
<glyph unicode="1" horiz-adv-x="704" d="M6 0l12 70l218 16q18 1 23.5 9t8.5 32l125 891q3 24 -2 31t-22 12l-191 33l12 65h320l-143 -1032q-3 -26 0.5 -33t27.5 -8l180 -18l-10 -68h-559z" />
<glyph unicode="2" horiz-adv-x="940" d="M16 0l11 82l323 274q36 32 90 78t83.5 71t70 63t62.5 63t47.5 60t37.5 65.5t20.5 68t8.5 78.5q0 203 -258 203q-76 0 -124.5 -9.5t-87 -35.5t-58.5 -74.5t-27 -124.5l-94 12q8 83 36.5 143t65.5 92.5t92.5 51.5t102.5 24t110 5q177 0 258.5 -77t81.5 -214q0 -45 -12 -89 t-28.5 -81t-48 -79t-57.5 -71.5t-69.5 -70.5t-71.5 -65t-76.5 -65.5t-72.5 -62.5l-266 -227h510q18 0 24.5 4t10.5 19l57 186h78l-43 -297h-787z" />
<glyph unicode="3" horiz-adv-x="925" d="M-25 2l74 64q113 -146 316 -146q51 0 97.5 10t91 33.5t77 59.5t52 92t19.5 127q0 250 -292 250q-54 0 -140 -13l13 92l133 13q167 15 254.5 98t87.5 209q0 98 -56.5 156.5t-177.5 58.5q-151 0 -219 -50.5t-82 -191.5l-98 13q5 77 32 135t65 91.5t92.5 53.5t105 26.5 t112.5 6.5q90 0 156 -22t103.5 -61.5t55 -88.5t17.5 -109q0 -124 -71 -217.5t-211 -150.5q100 -25 163.5 -100.5t63.5 -194.5q0 -87 -28.5 -161t-83.5 -131.5t-143.5 -90.5t-201.5 -33q-129 0 -229 51t-148 121z" />
<glyph unicode="4" horiz-adv-x="958" d="M39 184l8 78l606 893l70 -47l-563 -838h467l63 455l96 14l-65 -469h192l-14 -86h-190l-43 -321h-97l45 321h-575z" />
<glyph unicode="5" horiz-adv-x="978" d="M-6 -2l74 63q120 -143 317 -143q54 0 107.5 14t104.5 45t89.5 76t62 112t23.5 148q0 142 -73.5 210.5t-184.5 68.5q-21 0 -41 -2t-39.5 -7t-34 -9t-34.5 -13.5t-30 -14t-30 -17t-26 -16t-27.5 -18t-24.5 -16.5l-88 39l133 641h664l-10 -82h-576l-104 -493q144 94 289 94 q158 0 250 -93.5t92 -265.5q0 -210 -134 -349.5t-354 -139.5q-133 0 -233.5 45t-161.5 123z" />
<glyph unicode="6" horiz-adv-x="1062" d="M141 487q0 59 8 127.5t27.5 150.5t48.5 159t75.5 150t104.5 127t139 87t175 33q82 0 164.5 -29t142.5 -90l-61 -65q-107 96 -244 96q-95 0 -173 -43t-126 -105t-84.5 -145.5t-53 -150.5t-26.5 -134q207 166 387 166q157 0 231 -90.5t74 -243.5q0 -148 -48 -261.5 t-151 -182t-251 -68.5q-102 0 -173.5 38t-111 109.5t-57 160t-17.5 204.5zM246 442q0 -54 5.5 -102.5t23 -102t45 -91t76.5 -62.5t114 -25q156 0 246 104.5t90 307.5q0 262 -213 262q-55 0 -115.5 -19t-113 -49.5t-89.5 -56.5t-65 -51q-4 -58 -4 -115z" />
<glyph unicode="7" horiz-adv-x="978" d="M133 856l39 303h832l-13 -69q-191 -172 -391.5 -547t-253.5 -680h-106q44 198 116.5 387t158.5 341t170.5 271t172.5 215h-559q-14 0 -18.5 -0.5t-9 -5.5t-7.5 -16l-63 -195z" />
<glyph unicode="8" horiz-adv-x="987" d="M74 264q0 72 26 136.5t75.5 121t101.5 99.5t124 92q-174 102 -174 258q0 108 60.5 190t149.5 121t186 39q157 0 241 -73.5t84 -182.5q0 -76 -43 -154t-97.5 -132.5t-123.5 -104.5q94 -57 147.5 -129.5t53.5 -177.5q0 -184 -127.5 -288t-335.5 -104q-153 0 -250.5 76.5 t-97.5 212.5zM186 283q0 -104 68 -159.5t199 -55.5q144 0 237.5 82t93.5 204q0 47 -17 88t-41 70t-68 59.5t-80.5 50t-96.5 48.5q-147 -96 -221 -189t-74 -198zM336 997q0 -35 6 -62.5t22 -52.5t33 -42.5t52.5 -40.5t65.5 -39.5t85 -44.5q51 39 88.5 74t71.5 77.5t51.5 89.5 t17.5 97q0 93 -63.5 136.5t-159.5 43.5q-110 0 -190 -64t-80 -172z" />
<glyph unicode="9" horiz-adv-x="1038" d="M59 -37l62 66q119 -113 262 -113q70 0 130 22t102 57t77 85.5t57 99.5t39 107.5t25 101.5t14 88q-64 -59 -171.5 -105t-215.5 -46q-106 0 -177.5 47t-102.5 122.5t-31 176.5q0 146 50.5 261.5t155 186t249.5 70.5q102 0 173 -39t110 -113.5t56 -168t17 -218.5 q0 -63 -6.5 -131.5t-23.5 -150t-43.5 -156t-70 -145.5t-98 -123t-133 -83.5t-170.5 -31.5t-182 31.5t-154 101.5zM233 680q0 -126 54.5 -196t163.5 -70t212.5 51t165.5 113q5 34 5 137q0 391 -265 391q-154 0 -245 -112.5t-91 -313.5z" />
<glyph unicode=":" horiz-adv-x="397" d="M49 57q0 63 33 97t90 34q44 0 69 -22t25 -62q0 -55 -33 -92t-92 -37q-43 0 -67.5 21.5t-24.5 60.5zM162 870q0 63 33 97t90 34q44 0 69 -21.5t25 -61.5q0 -55 -33 -92.5t-92 -37.5q-43 0 -67.5 21.5t-24.5 60.5z" />
<glyph unicode=";" horiz-adv-x="358" d="M-2 -211l96 211q5 13 -8 20l-59 29l65 133q85 -7 124.5 -25t39.5 -65q0 -40 -39 -104l-156 -226zM160 870q0 63 33 97t90 34q44 0 69 -21.5t25 -61.5q0 -55 -33 -92.5t-92 -37.5q-43 0 -67.5 21.5t-24.5 60.5z" />
<glyph unicode="&#x3c;" d="M207 526l22 127l787 334l35 -88l-750 -311l666 -291l-43 -86z" />
<glyph unicode="=" d="M197 381l14 106h750l-17 -106h-747zM238 676l18 106h748l-19 -106h-747z" />
<glyph unicode="&#x3e;" d="M160 285l749 311l-665 289l43 86l717 -316l-23 -127l-786 -331z" />
<glyph unicode="?" horiz-adv-x="905" d="M209 63q0 60 33 92.5t90 32.5q94 0 94 -88q0 -125 -123 -125q-44 0 -69 22.5t-25 65.5zM213 1198l31 225q17 7 56 19.5t118 26.5t151 14q389 0 389 -330q0 -97 -28 -175.5t-74.5 -132t-114 -94.5t-138.5 -64.5t-157 -39.5l-36 -280h-101l47 356q85 11 153 28t134.5 49 t111 76.5t72 112.5t27.5 154q0 130 -72 192t-219 62q-149 0 -213 -33q-4 -1 -6 -3.5t-3 -5.5t-3.5 -10t-5.5 -14l-43 -129z" />
<glyph unicode="@" horiz-adv-x="1679" d="M94 276q0 179 64.5 340t179 281t282.5 190t365 70q280 0 449.5 -149t169.5 -420q0 -56 -6 -113t-20.5 -119t-36.5 -117.5t-56 -105.5t-76.5 -86.5t-100.5 -58t-126 -21.5q-110 0 -158.5 47t-48.5 125q-53 -44 -80 -64.5t-73.5 -51t-87.5 -43.5t-83 -13q-93 0 -134.5 55.5 t-41.5 165.5q0 79 20 163.5t61 165t98 143.5t138.5 102t174.5 39q123 0 245 -66l-102 -395q-36 -131 -41 -174q-7 -69 25.5 -97t101.5 -28q68 0 124 35.5t92.5 92t61.5 128.5t35.5 142t10.5 136q0 241 -145 371.5t-414 130.5q-223 0 -401 -106.5t-276 -290.5t-98 -410 q0 -277 157 -408.5t443 -131.5q176 0 361 65l18 -78q-174 -69 -403 -69q-150 0 -272 40t-210.5 117t-137 197t-48.5 274zM573 190q0 -63 21.5 -98t77.5 -35q65 0 158.5 61.5t160.5 131.5l109 426q-60 41 -160 41q-67 0 -127.5 -35t-103 -91.5t-74 -126.5t-47 -140.5 t-15.5 -133.5z" />
<glyph unicode="A" horiz-adv-x="1368" d="M-33 0l13 57l83 23q43 10 64 51l625 1352h139l276 -1368q5 -27 43 -35l88 -23l-10 -57h-397l10 57l178 19l-78 422h-604l-192 -422l157 -19l-10 -57h-385zM436 584h545l-164 839z" />
<glyph unicode="B" horiz-adv-x="1318" d="M96 0l8 59l127 15q22 3 29 10.5t10 30.5l172 1249q3 24 -1.5 32t-24.5 9l-125 16l10 62h545q109 0 186.5 -22.5t120.5 -65.5t62.5 -97t19.5 -124q0 -86 -25.5 -155.5t-71.5 -116.5t-99 -78t-117 -52q144 -15 227.5 -103t83.5 -220q0 -100 -28 -177t-78.5 -128t-125 -83.5 t-162 -46.5t-196.5 -14h-547zM360 86h293q72 0 128 5t113.5 18.5t98.5 39t74 64t49.5 96t16.5 131.5q0 134 -96 205.5t-251 71.5h-342zM461 803h244q59 0 114.5 9.5t112.5 35.5t99 65.5t68.5 105t26.5 148.5q0 123 -74 177.5t-237 54.5h-274z" />
<glyph unicode="C" horiz-adv-x="1345" d="M135 608q0 156 34 293t102.5 248.5t166.5 192t231.5 124t291.5 43.5q133 0 240.5 -28.5t174.5 -77.5l-39 -275l-77 5l-9 188q0 29 -24 39q-143 57 -285 57q-151 0 -279.5 -54t-222.5 -154.5t-147 -251.5t-53 -336q0 -270 124 -412.5t371 -142.5q212 0 342 57q21 9 29 35 l59 178h68l-35 -256q-160 -105 -483 -105q-151 0 -264.5 47t-181.5 133t-101 199.5t-33 253.5z" />
<glyph unicode="D" horiz-adv-x="1558" d="M96 0l10 63l127 15q19 2 25.5 8.5t9.5 28.5l174 1251q3 24 -1.5 32t-24.5 9l-125 14l10 62h565q162 0 284 -43.5t198 -124t113.5 -190t37.5 -246.5q0 -195 -51.5 -353.5t-155 -277t-270 -183.5t-385.5 -65h-541zM362 86h295q353 0 544.5 203.5t191.5 582.5 q0 145 -39.5 249t-115 164t-173.5 87t-227 27h-295z" />
<glyph unicode="E" horiz-adv-x="1255" d="M98 0l6 61l129 15q21 3 27.5 10t9.5 31l172 1247q3 25 -1 32.5t-25 8.5l-123 14l8 64h965l-39 -281l-68 4l-6 166q-3 27 -29 27h-581l-80 -606h581l-14 -84h-579l-86 -623h622q18 0 24.5 4t10.5 19l57 180h68l-41 -289h-1008z" />
<glyph unicode="F" horiz-adv-x="1204" d="M100 0l9 61l127 15q21 3 27 10t9 31l170 1247q3 25 -1 32.5t-25 8.5l-123 14l10 64h957l-39 -281l-66 4l-6 166q-3 27 -31 27h-571l-80 -600h571l-14 -84h-571l-82 -596q-3 -26 1 -33t25 -8l293 -17l-8 -61h-582z" />
<glyph unicode="G" horiz-adv-x="1460" d="M133 616q0 190 54 352t155.5 283t258.5 189.5t353 68.5q135 0 246.5 -29t175.5 -77l-37 -277l-77 2l-9 197q0 27 -18 35q-135 57 -307 57q-151 0 -278 -52.5t-219 -151t-143.5 -247t-51.5 -331.5q0 -285 141.5 -426t410.5 -141q206 0 349 41q28 8 32 34l58 437h-303 l28 86h502l-12 -66l-84 -8q-19 -2 -27.5 -8t-9.5 -21l-70 -516q-82 -35 -210.5 -53.5t-256.5 -18.5q-171 0 -298 47.5t-203 134.5t-113 201.5t-37 257.5z" />
<glyph unicode="H" horiz-adv-x="1607" d="M96 0l8 61l129 15q21 3 27.5 10t9.5 31l174 1249q3 25 -1 32.5t-25 8.5l-123 14l8 62h422l-8 -62l-137 -16q-22 -3 -28 -9.5t-9 -29.5l-76 -555h788l76 555q3 24 -1 32t-23 9l-125 14l6 62h422l-6 -62l-136 -16q-23 -3 -29 -9.5t-9 -29.5l-173 -1247q-3 -25 1 -31.5 t24 -9.5l133 -17l-10 -61h-422l10 61l127 15q21 3 27.5 10t9.5 31l84 608h-788l-84 -606q-3 -25 1 -31.5t25 -9.5l133 -17l-10 -61h-422z" />
<glyph unicode="I" horiz-adv-x="720" d="M76 0l8 61l149 15q21 1 27.5 9t9.5 32l174 1249q3 25 -1 32.5t-25 8.5l-144 14l5 62h464l-6 -62l-159 -16q-21 -3 -27.5 -9.5t-9.5 -29.5l-172 -1247q-4 -25 0 -31.5t26 -9.5l152 -17l-6 -61h-465z" />
<glyph unicode="J" horiz-adv-x="970" d="M53 43l31 221l68 -4v-147q0 -20 20 -29q59 -31 184 -31q114 0 164 58.5t68 187.5l147 1069q3 22 -1.5 30t-24.5 9l-162 14l6 62h463l-6 -62l-138 -16q-22 -3 -28.5 -9t-9.5 -28l-154 -1089q-21 -159 -98 -231.5t-240 -72.5q-100 0 -179 22.5t-110 45.5z" />
<glyph unicode="K" horiz-adv-x="1402" d="M102 0l9 61l122 15q21 3 27.5 10t9.5 33l174 1247q3 25 -1 32.5t-25 8.5l-123 14l10 62h422l-12 -62l-135 -16q-21 -3 -27.5 -10t-9.5 -29l-97 -659l717 696l-121 16l11 64h391l-10 -62l-117 -22q-27 -4 -38 -10t-28 -21l-540 -526l458 -729q14 -23 54 -31l118 -21 l-10 -61h-213l-8 8l-141 246l-332 518l-203 -186l-65 -467q-3 -25 1 -31.5t25 -9.5l142 -17l-13 -61h-422z" />
<glyph unicode="L" horiz-adv-x="1218" d="M100 0l9 61l124 15q21 3 27.5 10t9.5 31l174 1247q3 25 -1 32.5t-25 8.5l-123 14l8 64h455l-8 -64l-170 -16q-21 -1 -27.5 -8.5t-9.5 -30.5l-181 -1278h629q18 0 24.5 4t10.5 19l55 174h68l-41 -283h-1008z" />
<glyph unicode="M" horiz-adv-x="1861" d="M100 0l6 61l130 15q21 3 27 11t9 32l172 1245q3 25 -1 32.5t-25 8.5l-123 14l8 64h293l354 -989l621 989h295l-8 -62l-138 -16q-22 -3 -28 -11.5t-11 -39.5l-172 -1237q-3 -20 3 -28t26 -11l133 -17l-6 -61h-467l6 61l174 19q19 1 25.5 9.5t9.5 31.5l168 1206l-598 -936 h-90l-350 955l-174 -1227q-3 -25 2 -32.5t26 -8.5l176 -17l-6 -61h-467z" />
<glyph unicode="N" horiz-adv-x="1673" d="M100 0l4 61l129 15q21 3 27.5 10t9.5 31l174 1247q3 24 -1 31t-25 10l-123 14l8 64h318l604 -1372l168 1255q3 24 -0.5 30.5t-26.5 10.5l-125 14l8 62h428l-8 -62l-137 -16q-23 -3 -29.5 -9.5t-9.5 -29.5l-188 -1366h-134l-624 1384l-176 -1265q-3 -25 1 -31.5t25 -9.5 l133 -17l-6 -61h-424z" />
<glyph unicode="O" horiz-adv-x="1533" d="M129 598q0 199 52.5 366t151.5 288.5t250 189t339 67.5q142 0 251 -45.5t176 -126.5t100.5 -185.5t33.5 -229.5q0 -443 -208 -695t-568 -252q-145 0 -257 46.5t-181.5 130.5t-104.5 196.5t-35 249.5zM233 618q0 -166 33 -262q47 -140 161 -216.5t290 -76.5 q139 0 259.5 54.5t210.5 156.5t141.5 259t51.5 350q0 159 -32 252q-44 138 -157.5 212t-281.5 74q-140 0 -262 -53t-214.5 -152.5t-146 -253.5t-53.5 -344z" />
<glyph unicode="P" horiz-adv-x="1314" d="M96 0l8 61l129 15q22 3 29 10.5t10 30.5l172 1249q3 24 -2 32t-26 9l-123 14l8 62h571q116 0 202 -28.5t136 -79.5t73.5 -115.5t23.5 -143.5q0 -145 -42 -249.5t-124.5 -167.5t-194 -92t-258.5 -29h-258l-63 -459q-2 -26 2 -33t24 -8l285 -17l-8 -61h-574zM442 662h252 q93 0 164 10.5t138.5 39.5t111.5 78t70 129.5t26 190.5q0 143 -87.5 216t-276.5 73h-297z" />
<glyph unicode="Q" horiz-adv-x="1533" d="M129 598q0 199 52.5 366t151.5 288.5t250 189t339 67.5q142 0 251 -45.5t176 -126.5t100.5 -186t33.5 -231q0 -279 -86 -485.5t-257 -322t-411 -118.5v-2q69 -39 98.5 -55t86 -43t94 -37.5t90.5 -19.5t108 -9q70 0 109 6l-8 -86q-78 -4 -105 -4q-100 0 -187.5 21.5 t-147.5 52t-110.5 60.5t-96.5 51.5t-85 21.5q-80 0 -198 -60l-39 68q70 44 168 61v3q-194 62 -285.5 211t-91.5 364zM233 618q0 -166 33 -262q46 -138 166 -214t291 -76q139 0 258.5 54.5t208.5 156.5t139.5 261t50.5 357q0 145 -32 240q-44 138 -157.5 212t-281.5 74 q-140 0 -262 -53t-214.5 -152.5t-146 -253.5t-53.5 -344z" />
<glyph unicode="R" horiz-adv-x="1333" d="M100 0l9 61l124 15q22 3 28 10t9 33l174 1245q3 25 -1 32.5t-25 8.5l-123 14l8 64h533q83 0 149 -12.5t112.5 -36.5t79.5 -55t51.5 -72t27 -84t8.5 -93q0 -150 -87.5 -268.5t-273.5 -179.5q20 -12 36 -29.5t25 -30.5t17.5 -36t10.5 -30t7 -28l105 -407q4 -17 13 -25 t16 -9.5t28 -4.5l119 -21l-10 -61h-232l-8 6l-145 541q-14 55 -42.5 82.5t-80.5 27.5h-320l-75 -538q-3 -25 1 -31.5t25 -9.5l142 -17l-11 -61h-424zM455 741h241q205 0 334 100t129 285q0 81 -24.5 135t-75.5 84t-118.5 42t-164.5 12h-231z" />
<glyph unicode="S" horiz-adv-x="1142" d="M68 49l38 287h72l12 -193q1 -16 4.5 -20.5t14.5 -9.5q101 -45 278 -45q202 0 312 87.5t110 264.5q0 53 -14.5 95.5t-35.5 70t-57.5 52t-68 39t-80.5 32.5q-19 7 -55 20t-56.5 20t-53.5 21t-52.5 25t-46.5 28.5t-43.5 35t-34.5 42t-28 51.5t-16.5 61.5t-6.5 73.5 q0 106 43 189t117 132.5t167.5 75t200.5 25.5q170 0 349 -63l-45 -311l-74 10l-10 203q0 18 -21 28q-77 35 -217 35q-85 0 -154 -16.5t-125 -51.5t-87 -98.5t-31 -150.5q0 -37 8 -69t20.5 -55.5t35.5 -45.5t44 -36.5t56 -31t61 -27t70 -26.5q37 -14 57.5 -21.5t56 -22.5 t55.5 -27t49 -31t45.5 -37t36 -43.5t30 -53t17.5 -62.5t7 -75q0 -122 -43 -212t-120.5 -142t-174.5 -76.5t-217 -24.5q-125 0 -240.5 24.5t-158.5 49.5z" />
<glyph unicode="T" horiz-adv-x="1241" d="M160 1194l37 289h1142l-39 -289h-65l-8 182q-1 14 -7.5 18.5t-21.5 4.5h-395l-176 -1282q-4 -22 0 -30t26 -9l224 -17l-13 -61h-585l10 61l200 15q20 1 27 9t10 32l179 1282h-390q-17 0 -23.5 -4t-10.5 -19l-56 -182h-65z" />
<glyph unicode="U" horiz-adv-x="1570" d="M260 1421l12 62h422l-10 -62l-133 -16q-24 -3 -31 -9.5t-10 -29.5l-121 -899q-8 -47 -8 -100q0 -168 89 -236t265 -68q200 0 314 91t145 309l121 903q2 25 -2 32.5t-25 8.5l-125 14l11 62h417l-10 -62l-133 -16q-24 -3 -31 -9.5t-10 -29.5l-123 -901 q-34 -257 -170 -373.5t-395 -116.5q-226 0 -330 96.5t-104 284.5q0 61 8 113l117 897q3 24 -1 32t-24 9z" />
<glyph unicode="V" horiz-adv-x="1333" d="M150 1421l12 62h391l-6 -62l-172 -18l258 -1327l586 1327l-162 18l14 62h387l-8 -62l-86 -22q-25 -6 -40 -19t-28 -41l-606 -1339h-137l-272 1364q-2 12 -8.5 19t-13 9.5t-21.5 6.5z" />
<glyph unicode="W" horiz-adv-x="1886" d="M137 1421l17 62h436l-10 -62l-187 -20l146 -1268l438 1032h137l162 -1056l493 1292l-182 20l10 62h431l-9 -62l-114 -18q-19 -3 -29.5 -12.5t-20.5 -34.5l-528 -1356h-127l-164 1073l-461 -1073h-110l-168 1364q-3 34 -31 37z" />
<glyph unicode="X" horiz-adv-x="1300" d="M-18 0l6 57l96 23q33 8 57 39l473 659l-286 586q-7 17 -16 23.5t-27 11.5l-80 22l10 62h352l-10 -62l-137 -16l268 -559l422 557l-139 18l12 62h358l-12 -62l-82 -22q-35 -8 -57 -39l-451 -596l326 -645q7 -16 15.5 -22t27.5 -11l100 -25l-12 -61h-385l8 61l152 19 l-303 610l-437 -610l140 -19l-11 -61h-378z" />
<glyph unicode="Y" horiz-adv-x="1161" d="M137 1421l10 62h369l-8 -62l-148 -18l267 -721l454 721l-143 18l8 62h367l-10 -62l-86 -22q-21 -6 -33 -15.5t-25 -29.5l-493 -760l-62 -475q-3 -16 -2 -25t7 -12t22 -4l186 -17l-8 -61h-537l9 61l188 15q20 1 26 9t9 34l63 469l-299 776q-6 16 -15 23t-28 12z" />
<glyph unicode="Z" horiz-adv-x="1253" d="M47 0l10 68l1069 1331h-714q-18 0 -24.5 -4t-10.5 -19l-64 -194l-75 -6l45 307h987l-8 -72l-1072 -1325h773q30 0 38 27l66 217h74l-43 -330h-1051z" />
<glyph unicode="[" horiz-adv-x="495" d="M92 -293l250 1776h262l-8 -64l-141 -14q-24 -3 -30 -9t-9 -30l-215 -1538q-2 -26 1 -32t25 -9l138 -14l-11 -66h-262z" />
<glyph unicode="\" horiz-adv-x="686" d="M197 1497h88l327 -1685h-92z" />
<glyph unicode="]" horiz-adv-x="468" d="M-82 -293l10 64l140 14q24 3 29.5 9t8.5 30l218 1538q2 25 -1.5 31.5t-25.5 9.5l-137 14l8 66h262l-250 -1776h-262z" />
<glyph unicode="^" horiz-adv-x="1040" d="M76 612l508 748h104l307 -748h-98l-268 654l-443 -654h-110z" />
<glyph unicode="_" horiz-adv-x="1024" d="M-25 -371l13 78h1022l-13 -78h-1022z" />
<glyph unicode="`" horiz-adv-x="1024" d="M508 1466l88 76l278 -323l-49 -45z" />
<glyph unicode="a" horiz-adv-x="1153" d="M94 352q0 84 11.5 165t35 162t64.5 149t94.5 120.5t130.5 82.5t168 30q86 0 168 -35.5t141 -85.5l31 100h100q-37 -125 -53 -235l-96 -688q-3 -25 1.5 -31.5t27.5 -9.5l104 -15l-10 -61h-236l31 213q-47 -45 -74 -70t-74 -62t-83.5 -56.5t-84 -34.5t-94.5 -15 q-145 0 -224 94.5t-79 282.5zM188 365q0 -306 213 -306q38 0 76 10.5t79.5 36.5t68 44t70.5 60.5t57 55.5t55 58l12 12l72 506q-48 54 -134 94.5t-175 40.5q-72 0 -132.5 -27t-102.5 -74.5t-73.5 -107.5t-50 -130t-27 -137.5t-8.5 -135.5z" />
<glyph unicode="b" horiz-adv-x="1159" d="M133 0q46 182 60 289l161 1130q6 35 -20 43l-115 29l6 55h242l-98 -706q60 50 101 81t99.5 67.5t114.5 54.5t111 18q130 0 206 -95.5t76 -299.5q0 -92 -16.5 -185.5t-54.5 -185t-92.5 -162.5t-138 -114.5t-183.5 -43.5q-174 0 -332 146l-29 -121h-98zM285 223 q56 -64 137.5 -112t173.5 -48q78 0 144 39t109 101t73 142.5t43.5 161t13.5 157.5q0 90 -14.5 152.5t-42.5 94.5t-60.5 45t-75.5 13q-54 0 -119 -27t-125.5 -69.5t-105.5 -80.5t-82 -75z" />
<glyph unicode="c" horiz-adv-x="978" d="M94 397q0 141 32 254t87 188.5t131.5 126.5t161 73t180.5 22q42 0 80.5 -3.5t68.5 -10.5t49 -12t40 -12.5t24 -8.5l-30 -234l-76 6l-6 142q0 18 -23 26q-61 21 -154 21q-90 0 -170.5 -32.5t-147.5 -98t-106.5 -178t-39.5 -258.5q0 -170 78 -260.5t219 -90.5 q81 0 161 20.5t129 47.5l31 -76q-55 -32 -141 -53t-174 -21q-203 0 -303.5 111t-100.5 311z" />
<glyph unicode="d" horiz-adv-x="1161" d="M94 352q0 80 10.5 158.5t33 160t61.5 150t91.5 123.5t128.5 86t167 31q159 0 317 -137l66 499q3 38 -21 41l-112 27l6 55h248l-201 -1429q-3 -25 1.5 -31.5t27.5 -9.5l104 -15l-8 -61h-238l31 201q-116 -105 -173 -144q-122 -82 -233 -82q-146 0 -226.5 94t-80.5 283z M188 360q0 -301 215 -301q26 0 52.5 5t54 17t49 22t50.5 31.5t45 33t46 39t40.5 37t41 39t35.5 34.5l74 512q-56 56 -140.5 101t-172.5 45q-86 0 -155.5 -40t-112 -103.5t-71.5 -147t-40 -163.5t-11 -161z" />
<glyph unicode="e" horiz-adv-x="944" d="M94 385q0 99 24 196.5t71.5 184t112.5 152.5t153 104.5t188 38.5q138 0 197 -63.5t59 -161.5q0 -65 -26.5 -119.5t-68.5 -92.5t-103 -69t-119 -49.5t-129 -33.5t-121.5 -23t-106.5 -15q-22 -3 -32 -4v-18q0 -63 6 -110q7 -54 25.5 -100.5t51 -75t84 -44.5t123.5 -16 q162 0 295 65l25 -82q-136 -74 -332 -74q-377 0 -377 410zM205 514q44 5 65.5 8t76 11.5t87.5 16t85.5 22t86 30t73 39t62.5 49.5t38.5 61t15.5 74q0 68 -39 108t-121 40q-111 0 -205 -65.5t-150.5 -168.5t-74.5 -225z" />
<glyph unicode="f" horiz-adv-x="739" d="M100 -434l197 1368q3 20 -14 20h-152l14 86h164l31 230q43 299 319 299q99 0 167 -31t102 -65l-54 -74q-111 82 -217 82q-103 0 -156 -63.5t-67 -190.5l-22 -166q-2 -12 0.5 -16.5t13.5 -4.5h340l-14 -86h-355l-196 -1388h-101z" />
<glyph unicode="g" horiz-adv-x="1128" d="M92 -379l43 86q33 -23 119 -49.5t186 -26.5q139 0 221.5 64t104.5 213l43 293q-221 -226 -408 -226q-147 0 -227 93.5t-80 283.5q0 96 14.5 189.5t51 189.5t92 167.5t144.5 117t200 45.5q88 0 170.5 -36t142.5 -87l31 102h100q-42 -157 -57 -264l-117 -872 q-24 -178 -131 -269.5t-282 -91.5q-209 0 -361 78zM188 356q0 -297 215 -297q46 0 97 19t88 41.5t88.5 67.5t74 67.5t70.5 71.5l72 516q-47 56 -134 95.5t-181 39.5q-73 0 -133.5 -27.5t-102 -76.5t-72.5 -109.5t-48.5 -132t-25.5 -139.5t-8 -136z" />
<glyph unicode="h" horiz-adv-x="1261" d="M37 0l12 63l103 15q26 3 33 9.5t10 31.5l180 1300q5 37 -19 43l-116 29l6 55h243l-100 -719q140 115 247.5 174.5t213.5 59.5q233 0 233 -246q0 -59 -10 -127l-82 -569q-3 -25 1.5 -31.5t27.5 -9.5l123 -17l-10 -61h-267l-4 6l41 207l64 436q12 79 12 174q0 73 -33 109.5 t-106 36.5q-101 0 -218 -71.5t-249 -186.5l-78 -592q-3 -25 1.5 -31.5t27.5 -9.5l145 -17l-10 -61h-422z" />
<glyph unicode="i" horiz-adv-x="571" d="M160 8l39 201l100 709q6 34 -23 43l-112 24l6 55h248l-133 -921q-3 -25 1 -31.5t27 -9.5l140 -17l-11 -61h-278zM283 1393q0 44 30.5 74t81.5 30q38 0 60 -20t22 -54q0 -43 -30 -73.5t-78 -30.5q-40 0 -63 20t-23 54z" />
<glyph unicode="j" horiz-adv-x="542" d="M-268 -377l51 74q27 -23 79 -45.5t99 -22.5q92 0 129.5 59.5t54.5 184.5l150 1042q3 23 -1 32t-18 11l-129 27l13 55h252l-168 -1192q-22 -161 -85.5 -233t-195.5 -72q-71 0 -137 26t-94 54zM285 1393q0 44 30.5 74t81.5 30q39 0 60.5 -20t21.5 -54q0 -43 -29.5 -73.5 t-78.5 -30.5q-40 0 -63 20t-23 54z" />
<glyph unicode="k" horiz-adv-x="1150" d="M33 0l12 63l105 15q22 3 27.5 9.5t8.5 31.5l185 1302q6 33 -21 41l-114 29l8 55h245l-151 -1065l496 494q44 43 89 64.5t107 21.5q18 0 68 -4l-8 -80h-12q-62 -1 -103 -19q-45 -20 -115 -88l-215 -208l229 -537q11 -26 35 -31l150 -33l-12 -61h-230l-6 6l-70 191 l-174 387l-250 -234l-30 -231q-4 -25 0 -31.5t26 -9.5l152 -17l-10 -61h-422z" />
<glyph unicode="l" horiz-adv-x="567" d="M147 8l39 201l172 1212q6 35 -24 43l-113 27l8 55h244l-199 -1427q-3 -25 1.5 -31.5t27.5 -9.5l137 -17l-10 -61h-278z" />
<glyph unicode="m" horiz-adv-x="1853" d="M37 0l12 63l105 15q22 3 29 10.5t10 30.5l106 794q6 34 -18 43l-115 29l6 55h244l-31 -219q145 126 246 184t198 58q212 0 212 -203q0 -24 -3 -51q3 2 47 41.5t58 50.5t56.5 44.5t68 47t63.5 33.5t73 27.5t69 7.5q113 0 161 -54q46 -52 45 -149v-8q0 -58 -14 -154 l-84 -577q-3 -25 1.5 -31.5t27.5 -9.5l127 -17l-11 -61h-264l-4 8l31 144l72 497q20 137 20 193q0 67 -26.5 99t-96.5 32q-77 0 -162 -55t-268 -211l-84 -588q-3 -25 1.5 -31.5t27.5 -9.5l125 -17l-8 -61h-269l-6 8l41 189l66 452q16 112 16 187q0 82 -28.5 109.5 t-98.5 27.5q-155 0 -442 -260l-78 -594q-3 -25 1 -31.5t27 -9.5l144 -17l-10 -61h-416z" />
<glyph unicode="n" horiz-adv-x="1267" d="M37 0l12 63l105 15q22 3 29 10.5t10 30.5l108 794q6 37 -18 43l-115 29l6 55h244l-29 -211q275 232 463 232q124 0 179.5 -61t55.5 -185q0 -62 -10 -127l-82 -569q-3 -25 2 -31.5t29 -9.5l121 -17l-10 -61h-265l-4 8l39 199l64 442q14 103 14 150q0 97 -33 133.5 t-116 36.5q-43 0 -97 -19t-96 -41t-102 -64t-87.5 -64t-80.5 -64l-80 -598q-3 -25 1.5 -31.5t27.5 -9.5l145 -17l-10 -61h-420z" />
<glyph unicode="o" horiz-adv-x="1120" d="M92 391q0 146 35.5 267.5t104 211.5t175.5 140.5t242 50.5q197 0 292 -114t95 -306q0 -313 -145.5 -489.5t-401.5 -176.5q-200 0 -298.5 111t-98.5 305zM193 408q0 -167 78 -257t231 -90q200 0 316 154t116 428q0 160 -76 244t-223 84q-204 0 -323 -149.5t-119 -413.5z " />
<glyph unicode="p" horiz-adv-x="1169" d="M98 -426l56 350l135 989q6 37 -19 43l-116 29l8 55h246l-29 -209q119 110 218 170t206 60q133 0 210 -93.5t77 -295.5q0 -94 -16 -188t-53.5 -187t-91.5 -163.5t-137 -114.5t-184 -44q-98 0 -176.5 38t-152.5 112l-60 -430q-4 -26 -0.5 -34t25.5 -9l176 -12l-10 -74h-304 zM297 233q61 -72 139 -123t164 -51q69 0 128 27t100.5 74.5t73.5 107t50.5 128t27.5 135t9 131.5q0 93 -14 156t-42 95t-61 45t-79 13q-63 0 -153.5 -50t-158 -105.5t-119.5 -108.5z" />
<glyph unicode="q" horiz-adv-x="1126" d="M92 352q0 83 11 163t34 161t62.5 149.5t92.5 122t128.5 83.5t165.5 30q91 0 179 -34.5t146 -82.5l31 96h98q-42 -157 -57 -264l-145 -1081q-3 -24 1 -31t25 -10l103 -12l-11 -76h-405l10 74l139 14q21 1 26.5 7.5t8.5 33.5l70 502q-220 -224 -406 -224q-107 0 -177.5 51 t-100 133.5t-29.5 194.5zM188 356q0 -297 220 -297q178 0 413 269l72 522q-52 50 -137 86.5t-176 36.5q-87 0 -156 -40t-112.5 -102.5t-72 -146t-40 -165t-11.5 -163.5z" />
<glyph unicode="r" horiz-adv-x="847" d="M37 0l12 63l109 13q17 1 24.5 10t10.5 31l108 796q6 37 -18 43l-115 29l6 55h240l-29 -219q41 48 75 82.5t81.5 74.5t97 61.5t96.5 21.5t113 -19l-37 -262l-70 6l-6 166q0 7 -1 10t-5 5t-14 2q-46 0 -139 -73.5t-205 -197.5l-80 -581q-3 -26 1 -33t27 -8l177 -15l-11 -61 h-448z" />
<glyph unicode="s" horiz-adv-x="884" d="M43 39l35 246l74 -4l6 -160q0 -12 5.5 -17.5t24.5 -13.5q97 -33 201 -33q125 0 195.5 56.5t70.5 158.5q0 22 -3.5 41t-8 34t-16 29.5t-19.5 24.5t-26.5 22t-29.5 19t-36.5 18.5t-39 17t-45.5 18.5t-48 20q-104 42 -158.5 100.5t-54.5 151.5q0 78 32 136t88 91.5t122 49.5 t143 16q161 0 281 -51l-33 -242l-72 6l-6 150q0 24 -18 30q-58 23 -168 23q-117 0 -193 -51t-76 -146q0 -71 43.5 -112t141.5 -82q127 -53 166 -77q122 -72 137 -190q2 -18 2 -38q0 -82 -31.5 -143t-85 -95.5t-116.5 -51t-134 -16.5q-120 0 -215 21.5t-135 42.5z" />
<glyph unicode="t" horiz-adv-x="786" d="M139 956l8 64q67 12 106.5 35.5t70 76t55.5 148.5h70l-29 -219q-2 -12 -0.5 -16.5t10.5 -4.5h303l-12 -84h-318l-96 -698q-6 -44 -6 -78q0 -61 32 -92t103 -31q84 0 209 47l25 -77q-117 -52 -252 -52q-221 0 -221 189q0 17 4 45l100 727q3 20 -12 20h-150z" />
<glyph unicode="u" horiz-adv-x="1259" d="M156 979l8 61h246l2 -4l-93 -649q-14 -95 -14 -151q0 -89 33 -132t113 -43q27 0 57 7.5t61.5 22t61 30t62 38.5t57 40.5t54.5 42.5t45.5 38t39 34.5t26.5 23.5l80 584q3 25 -1 31.5t-27 9.5l-133 16l10 61h266l4 -4l-129 -923q-6 -32 19 -35l118 -19l-8 -59h-246l31 219 q-97 -82 -161 -128.5t-146.5 -82t-159.5 -35.5q-229 0 -229 244q0 51 12 133l80 572q3 25 -1.5 31.5t-27.5 9.5z" />
<glyph unicode="v" horiz-adv-x="1038" d="M70 979l10 61h201l6 -8l24 -188l150 -756l426 870l-131 23l10 59h266l4 -8l-528 -1032h-121l-197 926q-5 19 -11 25.5t-23 9.5z" />
<glyph unicode="w" horiz-adv-x="1599" d="M70 979l8 61h194l7 -8l16 -162l115 -770l393 940h123l135 -954l389 872l-137 21l10 61h258l4 -8l-473 -1032h-131l-131 924l-391 -924h-125l-144 926q-4 29 -30 35z" />
<glyph unicode="x" horiz-adv-x="1103" d="M-25 0l9 63l118 23q19 3 26.5 7.5t23.5 25.5l344 436l-189 379q-6 12 -10.5 18t-12.5 11t-20 6l-80 8l11 63h174l6 -6l65 -155l129 -261l293 345l-123 16l11 61h340l-11 -61l-84 -21q-30 -7 -55 -38l-328 -377l215 -420q10 -20 19.5 -27t27.5 -10l134 -25l-11 -61h-215 l-12 10l-63 142l-162 321l-309 -393l141 -19l-6 -61h-396z" />
<glyph unicode="y" horiz-adv-x="1003" d="M-186 -375l53 76q16 -16 73 -42t105 -26q85 0 129 43.5t125 196.5l92 176l-196 879q-4 17 -11 23.5t-24 11.5l-84 22l14 55h197l6 -6l43 -252l129 -606l385 785l-127 24l6 55h264l6 -8l-600 -1182q-45 -88 -76 -138t-72.5 -92.5t-90 -59.5t-115.5 -17q-73 0 -138 27 t-93 55z" />
<glyph unicode="z" horiz-adv-x="995" d="M41 0l8 66l766 884h-481q-19 0 -27 -26l-45 -146l-78 -6l37 268h746l-9 -67l-770 -883h512q25 0 33 27l51 164l76 6l-39 -287h-780z" />
<glyph unicode="{" horiz-adv-x="526" d="M33 545l14 92q126 0 189 86q26 36 38.5 139.5t20.5 323.5q6 159 73 219.5t259 83.5l2 -84q-55 -9 -92 -18t-64 -23t-42 -27.5t-24 -38t-12.5 -47t-5.5 -61.5q-16 -300 -27 -373q-17 -108 -69.5 -161.5t-108.5 -61.5q22 -10 34 -16.5t30.5 -21.5t28 -32t17 -46t7.5 -66 q0 -29 -4 -62t-8 -53t-14.5 -64.5t-14.5 -62.5q-47 -219 -47 -266q0 -54 37 -78t139 -47l-31 -76q-128 20 -185.5 60.5t-57.5 127.5q0 64 53 295q2 9 11 46t13 56t8.5 50.5t4.5 56.5q0 47 -12.5 77t-38.5 45t-53 20.5t-68 7.5z" />
<glyph unicode="|" horiz-adv-x="571" d="M156 -293l256 1776h88l-254 -1776h-90z" />
<glyph unicode="}" horiz-adv-x="561" d="M-55 -213q45 7 80 17.5t59 20.5t41.5 26.5t27 30t16.5 36t9.5 39t5.5 45.5q13 288 27 387q33 188 178 213q-25 12 -42 23t-36 31t-29 51t-10 73q0 29 4 62t8 53t14.5 64.5t14.5 62.5q47 219 47 266q0 54 -36.5 76.5t-139.5 46.5l31 78q128 -20 186 -61.5t58 -129.5 q0 -28 -8.5 -73.5t-23 -112.5t-21.5 -106q-4 -20 -15 -62t-16.5 -75.5t-5.5 -71.5q0 -47 12.5 -77.5t38.5 -45.5t53 -21t68 -8l-15 -90q-125 0 -188 -86q-24 -34 -33.5 -117.5t-23.5 -322.5q-6 -85 -20.5 -137t-51.5 -92.5t-99 -62.5t-163 -34z" />
<glyph unicode="~" horiz-adv-x="925" d="M76 621q65 92 115.5 132t130.5 40q81 0 231.5 -49.5t212.5 -49.5q47 0 72.5 28t58.5 95l72 -22q-15 -34 -25 -54.5t-29 -48t-38.5 -43t-49 -26.5t-65.5 -11q-79 0 -238.5 49.5t-216.5 49.5q-46 0 -74 -23t-88 -100z" />
<glyph unicode="&#xa1;" horiz-adv-x="516" d="M119 -446l47 325l127 791h80l-86 -791l-47 -325h-121zM264 936q0 62 32.5 93.5t92.5 31.5q44 0 69 -22t25 -64q0 -62 -33 -93.5t-92 -31.5q-45 0 -69.5 22t-24.5 64z" />
<glyph unicode="&#xa2;" horiz-adv-x="960" d="M113 489q0 139 36.5 248t102 179t151 109.5t189.5 49.5l26 205h80l-28 -199q51 -1 100.5 -8.5t76.5 -14.5t58.5 -17.5t32.5 -10.5l-35 -237l-69 6l-7 141q0 21 -20 27q-48 19 -152 22l-110 -833q110 3 166 22q17 6 24 27l43 141l74 6l-37 -237q-128 -51 -283 -49 l-26 -203h-80l29 207q-166 19 -254 123.5t-88 295.5zM217 508q0 -164 63 -247.5t187 -98.5l108 823q-164 -20 -261 -140t-97 -337z" />
<glyph unicode="&#xa3;" horiz-adv-x="1093" d="M74 76q33 26 59.5 51t47 53.5t35 50.5t26.5 55.5t19 55.5t14.5 63.5t11 65.5t10.5 75l1.5 9t1 8.5t1.5 9.5l8 64h-176l14 86h172l25 176q15 105 42 179.5t76 131t126 84t184 27.5q100 0 181 -32t112 -60l-45 -70q-130 78 -246 78q-150 0 -224.5 -71.5t-98.5 -247.5 l-27 -195h412l-15 -86h-409l-15 -111q-8 -64 -14.5 -100.5t-20.5 -87.5t-33 -87t-51.5 -78t-76.5 -81h606q14 0 19 1t10 6t8 16l57 182h76l-37 -297h-854z" />
<glyph unicode="&#xa4;" d="M16 96l199 199q-74 109 -74 280q0 151 78 263l-196 194l86 80l188 -190q119 106 301 106t297 -98l180 180l76 -76l-184 -188q69 -109 69 -262q0 -165 -86 -287l199 -197l-84 -77l-197 190q-120 -92 -286 -92q-181 0 -295 96l-193 -194zM258 575q0 -165 79.5 -263.5 t254.5 -98.5q153 0 245.5 103t92.5 259q0 166 -87 261.5t-245 95.5q-160 0 -250 -99t-90 -258z" />
<glyph unicode="&#xa5;" horiz-adv-x="954" d="M59 1219l11 57h383l-7 -57l-163 -19l231 -506l365 506l-136 19l11 57h346l-8 -57l-86 -25q-19 -6 -43 -33l-336 -454h219l-15 -76h-276l-20 -154h276l-12 -76h-273l-39 -270q-3 -27 0.5 -33.5t26.5 -7.5l191 -16l-13 -74h-534l10 74l186 14q11 1 16.5 3.5t12 14t8.5 33.5 l37 262h-274l10 76h274l21 154h-273l13 76h213l-222 454q-14 27 -43 35z" />
<glyph unicode="&#xa6;" horiz-adv-x="571" d="M156 -293l112 795h90l-112 -795h-90zM311 797l101 686h90l-101 -686h-90z" />
<glyph unicode="&#xa7;" horiz-adv-x="1093" d="M76 -217l30 237l82 -4l11 -149q0 -13 3.5 -17.5t14.5 -9.5q98 -41 205 -41q126 0 197 54t71 157q0 39 -12 70t-31 52t-49.5 39t-59.5 29t-69 23q-43 12 -69 20.5t-62.5 23t-59 28t-47.5 34t-38.5 43.5t-23 54t-9.5 68q0 61 32.5 118t63 85.5t95.5 81.5q9 8 14 12 q-80 72 -80 186q0 100 55 170t144 102.5t204 32.5q158 0 275 -53l-33 -242l-80 4l-6 162q0 22 -17 27q-56 20 -157 20q-78 0 -135.5 -19t-89 -50.5t-46 -67t-14.5 -74.5q0 -49 16.5 -84t53 -59t74 -38t98.5 -30q54 -14 89.5 -25.5t78 -32t67 -45t41.5 -62t17 -85.5 q0 -21 -3.5 -41.5t-7.5 -37.5t-14 -36t-16.5 -31.5t-22.5 -31t-24 -28t-28.5 -29t-28.5 -27t-32 -29t-32 -28.5q43 -43 64.5 -85t21.5 -97q0 -88 -32.5 -152t-89.5 -99t-122.5 -51t-142.5 -16q-95 0 -198.5 27.5t-135.5 46.5zM268 506q0 -70 36 -105.5t116 -64.5 q174 -60 217 -78q84 74 114 111q62 76 62 153q0 107 -139 148q-43 14 -118 35t-116 36q-172 -125 -172 -235z" />
<glyph unicode="&#xa8;" horiz-adv-x="1024" d="M401 1329q0 47 30.5 77t80.5 30q82 0 82 -76q0 -42 -30 -74.5t-77 -32.5q-39 0 -62.5 21t-23.5 55zM805 1329q0 47 29.5 77t80.5 30q82 0 82 -76q0 -42 -30 -74.5t-76 -32.5q-39 0 -62.5 21t-23.5 55z" />
<glyph unicode="&#xa9;" horiz-adv-x="1550" d="M111 625q0 155 53 283t145 212.5t215 131t264 46.5q310 0 491 -175t181 -470q0 -199 -85.5 -353t-239 -238.5t-351.5 -84.5q-163 0 -292.5 49.5t-212 137.5t-125.5 205.5t-43 255.5zM203 627q0 -268 156 -422t429 -154q270 0 427 159t157 431q0 186 -75.5 319.5t-206 199 t-302.5 65.5q-169 0 -300.5 -70t-208 -207t-76.5 -321zM424 645q0 179 101 288t290 109q117 0 229 -41v-206l-73 8l-21 108q-3 14 -7.5 19.5t-16.5 9.5q-58 21 -131 21q-110 0 -184 -79t-74 -241q0 -139 68 -226t206 -87q71 0 121 24q13 9 16 21l31 119h63v-193 q-40 -24 -105 -38.5t-128 -14.5q-102 0 -177.5 29.5t-120 84.5t-66 125.5t-21.5 159.5z" />
<glyph unicode="&#xaa;" horiz-adv-x="749" d="M106 803q0 64 10.5 125t35.5 121.5t62.5 105t96 72.5t131.5 28q97 0 193 -79l24 67h86q-31 -137 -34 -156l-60 -425q-3 -15 0.5 -19t18.5 -6l65 -10l-8 -52h-174l18 125q-76 -69 -135.5 -105t-128.5 -36q-97 0 -149 61.5t-52 182.5zM199 815q0 -97 28.5 -137.5 t89.5 -40.5q101 0 261 160l43 301q-33 33 -83.5 58.5t-103.5 25.5q-63 0 -111 -36t-73.5 -93.5t-38 -117.5t-12.5 -120z" />
<glyph unicode="&#xab;" horiz-adv-x="849" d="M147 535l226 301h116l-194 -285q-14 -19 -6 -37l106 -303h-112zM428 535l225 301h117l-195 -285q-14 -19 -6 -37l107 -303h-113z" />
<glyph unicode="&#xac;" d="M211 621l16 102h758l-45 -301h-113l29 199h-645z" />
<glyph unicode="&#xad;" horiz-adv-x="636" d="M33 537l16 104h555l-16 -104h-555z" />
<glyph unicode="&#xae;" horiz-adv-x="913" d="M156 969q0 170 107.5 272t268.5 102q171 0 272 -97.5t101 -262.5q0 -167 -104.5 -270t-270.5 -103q-180 0 -277 99.5t-97 259.5zM233 971q0 -137 80 -215t219 -78q138 0 217.5 80.5t79.5 218.5q0 142 -82 220.5t-215 78.5q-131 0 -215 -82t-84 -223zM367 786v35l34 8 q11 3 11 11v288q0 8 -9 11l-36 4v35h178q127 0 127 -107q0 -41 -22.5 -68t-59.5 -38q21 -6 39 -43l45 -82q5 -10 16 -13l39 -6v-35h-158v35l37 4l-55 99q-12 20 -39 20h-39v-106q0 -11 17 -13l30 -4v-35h-155zM475 997h31q96 0 96 70q0 32 -19.5 44.5t-60.5 12.5h-47v-127z " />
<glyph unicode="&#xaf;" horiz-adv-x="1024" d="M379 1270l14 92h615l-15 -92h-614z" />
<glyph unicode="&#xb0;" horiz-adv-x="587" d="M233 1323q0 112 66 171.5t164 59.5q81 0 128.5 -42t47.5 -121q0 -104 -63 -165t-168 -61q-82 0 -128.5 41t-46.5 117zM328 1331q0 -90 94 -90q62 0 93.5 37.5t31.5 103.5q0 50 -22.5 72.5t-71.5 22.5q-58 0 -91.5 -37.5t-33.5 -108.5z" />
<glyph unicode="&#xb1;" d="M121 0l14 102h758l-14 -102h-758zM205 608l16 103h318l47 323h106l-45 -323h332l-16 -103h-332l-45 -342h-109l47 342h-319z" />
<glyph unicode="&#xb2;" horiz-adv-x="657" d="M74 717l10 65l301 314q9 10 39.5 41t39.5 40t33 35t31.5 37.5t24.5 33.5t22.5 36.5t14.5 34.5t11.5 39t2.5 39q0 55 -39 86.5t-114 31.5q-98 0 -145 -30t-60 -115l-90 12q10 65 38.5 108t72.5 64t89.5 29t106.5 8q122 0 179.5 -50t57.5 -138q0 -51 -18.5 -100.5 t-58.5 -102.5t-68 -84t-82 -86l-268 -270h334h5q8 0 11.5 1.5t5.5 10.5l41 117h72l-27 -207h-573z" />
<glyph unicode="&#xb3;" horiz-adv-x="663" d="M74 813l61 57q83 -94 213 -94q90 0 154.5 56.5t64.5 164.5q0 69 -44 111.5t-134 42.5q-46 0 -98 -8l10 82l88 8q110 10 164.5 61t54.5 131q0 58 -36.5 91.5t-108.5 33.5q-87 0 -128 -30t-54 -115l-95 12q8 52 28.5 90.5t47 61t63 35.5t71 17.5t77.5 4.5q120 0 176 -51 t56 -139q0 -83 -52 -145.5t-139 -94.5q150 -48 150 -203q0 -123 -86.5 -208t-235.5 -85q-170 0 -268 113z" />
<glyph unicode="&#xb4;" horiz-adv-x="1024" d="M477 1231l354 307l74 -90l-387 -268z" />
<glyph unicode="&#xb5;" horiz-adv-x="1284" d="M98 -362l226 1402h102l-96 -632q-28 -183 5 -266t157 -83q109 0 227 73.5t196 156.5l105 751h100l-125 -913q-3 -25 1.5 -34t19.5 -11l110 -14l-10 -68h-239l22 158q-58 -43 -94 -67.5t-94 -57.5t-115 -48.5t-115 -15.5q-78 0 -136 29.5t-77 79.5l-63 -440h-107z" />
<glyph unicode="&#xb6;" horiz-adv-x="1193" d="M92 629q0 321 190 506.5t523 185.5h471l-12 -74l-140 -16q-23 -3 -29.5 -9.5t-9.5 -29.5l-155 -1112q-24 -172 -134 -262t-284 -90q-209 0 -360 82l41 86q35 -24 121.5 -52t185.5 -28q139 0 219 67t100 211l158 1131h-180l-156 -1110h-80q-212 0 -340.5 143.5 t-128.5 370.5z" />
<glyph unicode="&#xb7;" horiz-adv-x="333" d="M86 584q0 63 33 97t90 34q44 0 69 -22t25 -62q0 -55 -33 -92t-92 -37q-43 0 -67.5 21.5t-24.5 60.5z" />
<glyph unicode="&#xb8;" horiz-adv-x="1024" d="M260 -438l21 71q32 -8 79 -8q77 0 126 34t49 97q0 45 -34.5 72t-109.5 27l53 184l80 -4l-35 -121q64 -11 103 -51.5t39 -100.5q0 -103 -76 -159t-186 -56q-66 0 -109 15z" />
<glyph unicode="&#xb9;" horiz-adv-x="452" d="M63 717l9 57l129 6q13 1 17.5 6.5t6.5 20.5l99 686q3 16 -1 21.5t-14 7.5l-127 22l15 62h241l-112 -797q-3 -14 0.5 -20t17.5 -7l123 -6l-8 -59h-396z" />
<glyph unicode="&#xba;" horiz-adv-x="710" d="M113 829q0 191 97 308.5t277 117.5q132 0 195 -73t63 -189q0 -205 -96 -319.5t-276 -114.5q-130 0 -195 71t-65 199zM205 831q0 -95 46 -145.5t134 -50.5q124 0 196 91.5t72 266.5q0 90 -46.5 137.5t-131.5 47.5q-125 0 -197.5 -89.5t-72.5 -257.5z" />
<glyph unicode="&#xbb;" horiz-adv-x="849" d="M115 211l194 295q16 23 8 41l-106 289h111l135 -314l-219 -311h-123zM395 211l195 295q16 23 8 41l-106 289h110l135 -314l-219 -311h-123z" />
<glyph unicode="&#xbc;" horiz-adv-x="1689" d="M195 575l8 58l129 6q13 1 17.5 6.5t6.5 20.5l99 686q3 16 -1 21t-14 7l-127 23l15 61h241l-112 -796q-3 -14 0.5 -20t17.5 -7l123 -6l-8 -60h-395zM377 -25l936 1508h98l-934 -1508h-100zM930 248l12 59l461 578h121l-82 -559h119l-15 -80h-116l-37 -246h-86l34 248h-411 zM1057 326h297l69 467z" />
<glyph unicode="&#xbd;" horiz-adv-x="1689" d="M100 575l9 58l129 6q13 1 17.5 6.5t6.5 20.5l98 686q3 16 -0.5 21t-13.5 7l-127 23l14 61h242l-113 -796q-3 -14 0.5 -20t18.5 -7l123 -6l-8 -60h-396zM193 -25l935 1508h99l-934 -1508h-100zM864 0l10 66l302 313q9 10 39.5 41t39.5 40t33 35t31.5 37.5t24.5 33.5 t22.5 36.5t14.5 34.5t11.5 39t2.5 39q0 55 -39.5 87t-114.5 32q-98 0 -145 -30.5t-60 -115.5l-90 12q10 65 38.5 108t72.5 64t89.5 29t106.5 8q122 0 180 -50t58 -138q0 -51 -18.5 -100.5t-58.5 -102.5t-68 -84t-82 -86l-269 -270h334h5q9 0 12.5 1.5t5.5 10.5l41 117h71 l-26 -207h-574z" />
<glyph unicode="&#xbe;" horiz-adv-x="1689" d="M102 672l62 57q83 -94 213 -94q90 0 154.5 56.5t64.5 164.5q0 69 -44 111.5t-134 42.5q-40 0 -99 -9l11 82l88 9q110 10 164.5 61t54.5 131q0 58 -36.5 91.5t-108.5 33.5q-87 0 -128.5 -30t-54.5 -115l-94 12q8 52 28.5 90.5t47 61t63 35.5t71 17.5t77.5 4.5 q120 0 175.5 -51t55.5 -140q0 -83 -51.5 -145t-138.5 -94q149 -48 149 -203q0 -123 -86 -208t-235 -85q-171 0 -269 113zM422 -25l936 1508h98l-934 -1508h-100zM958 248l13 59l461 578h120l-82 -559h119l-14 -80h-117l-37 -246h-86l35 248h-412zM1085 326h297l70 467z" />
<glyph unicode="&#xbf;" horiz-adv-x="901" d="M43 -117q0 97 27.5 175.5t73.5 132.5t113 95t138.5 65t157.5 40l37 281h98l-47 -355q-85 -11 -154 -28t-135.5 -49.5t-111 -77t-72 -112.5t-27.5 -154q0 -261 291 -261q137 0 215 33q5 2 19 35l45 133l73 4l-32 -227q-16 -7 -56 -19t-119 -26t-151 -14q-383 0 -383 329z M569 936q0 125 125 125q42 0 67 -22t25 -64q0 -62 -32 -93.5t-90 -31.5q-45 0 -70 22t-25 64z" />
<glyph unicode="&#xc0;" horiz-adv-x="1368" d="M-33 0l13 57l83 23q43 10 64 51l625 1352h139l276 -1368q5 -27 43 -35l88 -23l-10 -57h-397l10 57l178 19l-78 422h-604l-192 -422l157 -19l-10 -57h-385zM436 584h545l-164 839zM588 1794l76 96l333 -274l-41 -49z" />
<glyph unicode="&#xc1;" horiz-adv-x="1368" d="M-33 0l13 57l83 23q43 10 64 51l625 1352h139l276 -1368q5 -27 43 -35l88 -23l-10 -57h-397l10 57l178 19l-78 422h-604l-192 -422l157 -19l-10 -57h-385zM436 584h545l-164 839zM647 1624l379 260l64 -100l-404 -215z" />
<glyph unicode="&#xc2;" horiz-adv-x="1368" d="M-33 0l13 57l83 23q43 10 64 51l625 1352h139l276 -1368q5 -27 43 -35l88 -23l-10 -57h-397l10 57l178 19l-78 422h-604l-192 -422l157 -19l-10 -57h-385zM436 584h545l-164 839zM537 1622l256 201h129l206 -207l-53 -45l-217 180l-274 -182z" />
<glyph unicode="&#xc3;" horiz-adv-x="1368" d="M-33 0l13 57l83 23q43 10 64 51l625 1352h139l276 -1368q5 -27 43 -35l88 -23l-10 -57h-397l10 57l178 19l-78 422h-604l-192 -422l157 -19l-10 -57h-385zM436 584h545l-164 839zM506 1642l72 87q29 31 51 44t49 13q24 0 61 -12l265 -80q24 -6 36 6l90 80l50 -41l-64 -74 q-33 -36 -54 -51t-48 -15q-16 0 -53 11l-275 80q-20 7 -43 -11l-86 -75z" />
<glyph unicode="&#xc4;" horiz-adv-x="1368" d="M-33 0l13 57l83 23q43 10 64 51l625 1352h139l276 -1368q5 -27 43 -35l88 -23l-10 -57h-397l10 57l178 19l-78 422h-604l-192 -422l157 -19l-10 -57h-385zM436 584h545l-164 839zM557 1677q0 42 31.5 73.5t77.5 31.5q37 0 60.5 -20.5t23.5 -53.5q0 -42 -32.5 -74 t-78.5 -32q-37 0 -59.5 20t-22.5 55zM958 1677q0 42 32.5 73.5t78.5 31.5q37 0 59.5 -20t22.5 -54q0 -42 -31.5 -74t-77.5 -32q-37 0 -60.5 20t-23.5 55z" />
<glyph unicode="&#xc5;" horiz-adv-x="1368" d="M-33 0l13 57l83 23q43 10 64 51l623 1350q-97 25 -97 137q0 85 54.5 138.5t156.5 53.5q77 0 120.5 -37t43.5 -108q0 -75 -35.5 -122t-101.5 -62l276 -1366q5 -27 43 -35l88 -23l-10 -57h-397l10 57l178 19l-78 422h-604l-192 -422l157 -19l-10 -57h-385zM436 584h545 l-164 839zM743 1622q0 -80 86 -80q47 0 78 30.5t31 84.5q0 38 -21 56t-67 18q-51 0 -79 -27.5t-28 -81.5z" />
<glyph unicode="&#xc6;" horiz-adv-x="2048" d="M-33 0l13 61l88 23q42 13 63 39l897 1274l-156 14l11 72h1177l-41 -281l-77 4l-7 166q0 15 -7.5 21t-24.5 6h-582l-86 -629h592l-12 -86h-592l-84 -598h626q18 0 25.5 4t11.5 19l58 180h77l-39 -289h-1036l10 61l148 17q7 1 10 4t4 5.5t2 10.5l82 586h-475l-426 -604 l141 -19l-12 -61h-379zM698 770h435l86 625h-80z" />
<glyph unicode="&#xc7;" horiz-adv-x="1345" d="M135 608q0 156 34 293t102.5 248.5t166.5 192t231.5 124t291.5 43.5q133 0 240.5 -28.5t174.5 -77.5l-39 -275l-77 5l-9 188q0 29 -24 39q-143 57 -285 57q-151 0 -279.5 -54t-222.5 -154.5t-147 -251.5t-53 -336q0 -270 124 -412.5t371 -142.5q212 0 342 57q21 9 29 35 l59 178h68l-35 -256q-154 -102 -461 -105l-16 -61q64 -11 102.5 -51t38.5 -101q0 -103 -76 -159t-186 -56q-65 0 -108 15l20 71q32 -8 80 -8q77 0 125.5 33.5t48.5 97.5q0 99 -143 99l34 122q-137 8 -238.5 58.5t-163 135.5t-91 194t-29.5 243z" />
<glyph unicode="&#xc8;" horiz-adv-x="1255" d="M98 0l6 61l129 15q21 3 27.5 10t9.5 31l172 1247q3 25 -1 32.5t-25 8.5l-123 14l8 64h965l-39 -281l-68 4l-6 166q-3 27 -29 27h-581l-80 -606h581l-14 -84h-579l-86 -623h622q18 0 24.5 4t10.5 19l57 180h68l-41 -289h-1008zM584 1794l75 96l334 -274l-41 -49z" />
<glyph unicode="&#xc9;" horiz-adv-x="1255" d="M98 0l6 61l129 15q21 3 27.5 10t9.5 31l172 1247q3 25 -1 32.5t-25 8.5l-123 14l8 64h965l-39 -281l-68 4l-6 166q-3 27 -29 27h-581l-80 -606h581l-14 -84h-579l-86 -623h622q18 0 24.5 4t10.5 19l57 180h68l-41 -289h-1008zM645 1624l379 260l63 -100l-403 -215z" />
<glyph unicode="&#xca;" horiz-adv-x="1255" d="M98 0l6 61l129 15q21 3 27.5 10t9.5 31l172 1247q3 25 -1 32.5t-25 8.5l-123 14l8 64h965l-39 -281l-68 4l-6 166q-3 27 -29 27h-581l-80 -606h581l-14 -84h-579l-86 -623h622q18 0 24.5 4t10.5 19l57 180h68l-41 -289h-1008zM532 1622l256 201h130l206 -207l-53 -45 l-217 180l-274 -182z" />
<glyph unicode="&#xcb;" horiz-adv-x="1255" d="M98 0l6 61l129 15q21 3 27.5 10t9.5 31l172 1247q3 25 -1 32.5t-25 8.5l-123 14l8 64h965l-39 -281l-68 4l-6 166q-3 27 -29 27h-581l-80 -606h581l-14 -84h-579l-86 -623h622q18 0 24.5 4t10.5 19l57 180h68l-41 -289h-1008zM553 1677q0 42 31.5 73.5t77.5 31.5 q37 0 60 -20t23 -54q0 -42 -32 -74t-78 -32q-37 0 -59.5 20t-22.5 55zM954 1677q0 42 32.5 73.5t78.5 31.5q37 0 59.5 -20t22.5 -54q0 -42 -31.5 -74t-77.5 -32q-37 0 -60.5 20t-23.5 55z" />
<glyph unicode="&#xcc;" horiz-adv-x="720" d="M76 0l8 61l149 15q21 1 27.5 9t9.5 32l174 1249q3 25 -1 32.5t-25 8.5l-144 14l5 62h464l-6 -62l-159 -16q-21 -3 -27.5 -9.5t-9.5 -29.5l-172 -1247q-4 -25 0 -31.5t26 -9.5l152 -17l-6 -61h-465zM272 1794l76 96l334 -274l-41 -49z" />
<glyph unicode="&#xcd;" horiz-adv-x="720" d="M76 0l8 61l149 15q21 1 27.5 9t9.5 32l174 1249q3 25 -1 32.5t-25 8.5l-144 14l5 62h464l-6 -62l-159 -16q-21 -3 -27.5 -9.5t-9.5 -29.5l-172 -1247q-4 -25 0 -31.5t26 -9.5l152 -17l-6 -61h-465zM334 1624l379 260l63 -100l-403 -215z" />
<glyph unicode="&#xce;" horiz-adv-x="720" d="M76 0l8 61l149 15q21 1 27.5 9t9.5 32l174 1249q3 25 -1 32.5t-25 8.5l-144 14l5 62h464l-6 -62l-159 -16q-21 -3 -27.5 -9.5t-9.5 -29.5l-172 -1247q-4 -25 0 -31.5t26 -9.5l152 -17l-6 -61h-465zM223 1622l256 201h129l207 -207l-53 -45l-217 180l-275 -182z" />
<glyph unicode="&#xcf;" horiz-adv-x="720" d="M76 0l8 61l149 15q21 1 27.5 9t9.5 32l174 1249q3 25 -1 32.5t-25 8.5l-144 14l5 62h464l-6 -62l-159 -16q-21 -3 -27.5 -9.5t-9.5 -29.5l-172 -1247q-4 -25 0 -31.5t26 -9.5l152 -17l-6 -61h-465zM242 1677q0 42 31 73.5t77 31.5q37 0 60.5 -20.5t23.5 -53.5 q0 -42 -32 -74t-78 -32q-37 0 -59.5 20t-22.5 55zM643 1677q0 42 32.5 73.5t78.5 31.5q37 0 59.5 -20t22.5 -54q0 -42 -31.5 -74t-77.5 -32q-37 0 -60.5 20t-23.5 55z" />
<glyph unicode="&#xd0;" horiz-adv-x="1558" d="M96 0l10 63l127 15q19 2 25.5 8.5t9.5 28.5l84 614h-211l13 78h211l77 559q3 24 -1.5 32t-24.5 9l-125 14l10 62h565q162 0 284 -43.5t198 -124t113.5 -190t37.5 -246.5q0 -195 -51.5 -353.5t-155 -277t-270 -183.5t-385.5 -65h-541zM362 86h295q353 0 544.5 203.5 t191.5 582.5q0 145 -39.5 249t-115 164t-173.5 87t-227 27h-295l-82 -592h457l-11 -78h-456z" />
<glyph unicode="&#xd1;" horiz-adv-x="1673" d="M100 0l4 61l129 15q21 3 27.5 10t9.5 31l174 1247q3 24 -1 31t-25 10l-123 14l8 64h318l604 -1372l168 1255q3 24 -0.5 30.5t-26.5 10.5l-125 14l8 62h428l-8 -62l-137 -16q-23 -3 -29.5 -9.5t-9.5 -29.5l-188 -1366h-134l-624 1384l-176 -1265q-3 -25 1 -31.5t25 -9.5 l133 -17l-6 -61h-424zM680 1642l72 87q29 31 51 44t49 13q24 0 61 -12l265 -80q24 -6 36 6l91 80l49 -41l-64 -74q-33 -36 -54 -51t-48 -15q-16 0 -53 11l-275 80q-20 7 -43 -11l-86 -75z" />
<glyph unicode="&#xd2;" horiz-adv-x="1533" d="M129 598q0 199 52.5 366t151.5 288.5t250 189t339 67.5q142 0 251 -45.5t176 -126.5t100.5 -185.5t33.5 -229.5q0 -443 -208 -695t-568 -252q-145 0 -257 46.5t-181.5 130.5t-104.5 196.5t-35 249.5zM233 618q0 -166 33 -262q47 -140 161 -216.5t290 -76.5 q139 0 259.5 54.5t210.5 156.5t141.5 259t51.5 350q0 159 -32 252q-44 138 -157.5 212t-281.5 74q-140 0 -262 -53t-214.5 -152.5t-146 -253.5t-53.5 -344zM682 1794l76 96l334 -274l-41 -49z" />
<glyph unicode="&#xd3;" horiz-adv-x="1533" d="M129 598q0 199 52.5 366t151.5 288.5t250 189t339 67.5q142 0 251 -45.5t176 -126.5t100.5 -185.5t33.5 -229.5q0 -443 -208 -695t-568 -252q-145 0 -257 46.5t-181.5 130.5t-104.5 196.5t-35 249.5zM233 618q0 -166 33 -262q47 -140 161 -216.5t290 -76.5 q139 0 259.5 54.5t210.5 156.5t141.5 259t51.5 350q0 159 -32 252q-44 138 -157.5 212t-281.5 74q-140 0 -262 -53t-214.5 -152.5t-146 -253.5t-53.5 -344zM743 1624l379 260l64 -100l-404 -215z" />
<glyph unicode="&#xd4;" horiz-adv-x="1533" d="M129 598q0 199 52.5 366t151.5 288.5t250 189t339 67.5q142 0 251 -45.5t176 -126.5t100.5 -185.5t33.5 -229.5q0 -443 -208 -695t-568 -252q-145 0 -257 46.5t-181.5 130.5t-104.5 196.5t-35 249.5zM233 618q0 -166 33 -262q47 -140 161 -216.5t290 -76.5 q139 0 259.5 54.5t210.5 156.5t141.5 259t51.5 350q0 159 -32 252q-44 138 -157.5 212t-281.5 74q-140 0 -262 -53t-214.5 -152.5t-146 -253.5t-53.5 -344zM633 1622l256 201h129l207 -207l-54 -45l-217 180l-274 -182z" />
<glyph unicode="&#xd5;" horiz-adv-x="1533" d="M129 598q0 199 52.5 366t151.5 288.5t250 189t339 67.5q142 0 251 -45.5t176 -126.5t100.5 -185.5t33.5 -229.5q0 -443 -208 -695t-568 -252q-145 0 -257 46.5t-181.5 130.5t-104.5 196.5t-35 249.5zM233 618q0 -166 33 -262q47 -140 161 -216.5t290 -76.5 q139 0 259.5 54.5t210.5 156.5t141.5 259t51.5 350q0 159 -32 252q-44 138 -157.5 212t-281.5 74q-140 0 -262 -53t-214.5 -152.5t-146 -253.5t-53.5 -344zM616 1642l72 87q29 31 51 44t49 13q24 0 62 -12l264 -80q25 -6 37 6l90 80l49 -41l-63 -74q-33 -36 -54.5 -51 t-48.5 -15q-16 0 -53 11l-274 80q-20 7 -43 -11l-86 -75z" />
<glyph unicode="&#xd6;" horiz-adv-x="1533" d="M129 598q0 199 52.5 366t151.5 288.5t250 189t339 67.5q142 0 251 -45.5t176 -126.5t100.5 -185.5t33.5 -229.5q0 -443 -208 -695t-568 -252q-145 0 -257 46.5t-181.5 130.5t-104.5 196.5t-35 249.5zM233 618q0 -166 33 -262q47 -140 161 -216.5t290 -76.5 q139 0 259.5 54.5t210.5 156.5t141.5 259t51.5 350q0 159 -32 252q-44 138 -157.5 212t-281.5 74q-140 0 -262 -53t-214.5 -152.5t-146 -253.5t-53.5 -344zM651 1677q0 42 31.5 73.5t77.5 31.5q37 0 60.5 -20.5t23.5 -53.5q0 -42 -32.5 -74t-78.5 -32q-37 0 -59.5 20 t-22.5 55zM1053 1677q0 42 32 73.5t78 31.5q37 0 59.5 -20t22.5 -54q0 -42 -31 -74t-77 -32q-37 0 -60.5 20t-23.5 55z" />
<glyph unicode="&#xd7;" d="M254 426l274 238l-182 231l74 57l182 -229l277 242l59 -66l-279 -244l195 -241l-76 -60l-192 242l-273 -238z" />
<glyph unicode="&#xd8;" horiz-adv-x="1533" d="M129 598q0 199 52.5 366t151.5 288.5t250 189t339 67.5q124 0 227 -36l80 141h100l-100 -178q127 -73 190.5 -207.5t63.5 -306.5q0 -443 -208 -695t-568 -252q-141 0 -263 48l-100 -183h-104l125 226q-118 78 -177 215.5t-59 316.5zM233 618q0 -166 33 -262 q44 -132 146 -206l692 1241q-85 30 -195 30q-140 0 -262 -53t-214.5 -152.5t-146 -253.5t-53.5 -344zM492 104q96 -41 225 -41q139 0 259.5 54.5t210.5 156.5t141.5 259t51.5 350q0 159 -32 252q-47 144 -164 217z" />
<glyph unicode="&#xd9;" horiz-adv-x="1572" d="M260 1421l12 62h422l-10 -62l-133 -16q-24 -3 -31 -9.5t-10 -29.5l-121 -899q-8 -47 -8 -100q0 -168 89 -236t265 -68q200 0 314 91t145 309l121 903q2 25 -2 32.5t-25 8.5l-125 14l11 62h417l-10 -62l-133 -16q-24 -3 -31 -9.5t-10 -29.5l-123 -901 q-34 -257 -170 -373.5t-395 -116.5q-226 0 -330 96.5t-104 284.5q0 61 8 113l117 897q3 24 -1 32t-24 9zM717 1794l76 96l333 -274l-41 -49z" />
<glyph unicode="&#xda;" horiz-adv-x="1572" d="M260 1421l12 62h422l-10 -62l-133 -16q-24 -3 -31 -9.5t-10 -29.5l-121 -899q-8 -47 -8 -100q0 -168 89 -236t265 -68q200 0 314 91t145 309l121 903q2 25 -2 32.5t-25 8.5l-125 14l11 62h417l-10 -62l-133 -16q-24 -3 -31 -9.5t-10 -29.5l-123 -901 q-34 -257 -170 -373.5t-395 -116.5q-226 0 -330 96.5t-104 284.5q0 61 8 113l117 897q3 24 -1 32t-24 9zM758 1624l379 260l63 -100l-403 -215z" />
<glyph unicode="&#xdb;" horiz-adv-x="1572" d="M260 1421l12 62h422l-10 -62l-133 -16q-24 -3 -31 -9.5t-10 -29.5l-121 -899q-8 -47 -8 -100q0 -168 89 -236t265 -68q200 0 314 91t145 309l121 903q2 25 -2 32.5t-25 8.5l-125 14l11 62h417l-10 -62l-133 -16q-24 -3 -31 -9.5t-10 -29.5l-123 -901 q-34 -257 -170 -373.5t-395 -116.5q-226 0 -330 96.5t-104 284.5q0 61 8 113l117 897q3 24 -1 32t-24 9zM662 1622l256 201h129l206 -207l-53 -45l-217 180l-274 -182z" />
<glyph unicode="&#xdc;" horiz-adv-x="1572" d="M260 1421l12 62h422l-10 -62l-133 -16q-24 -3 -31 -9.5t-10 -29.5l-121 -899q-8 -47 -8 -100q0 -168 89 -236t265 -68q200 0 314 91t145 309l121 903q2 25 -2 32.5t-25 8.5l-125 14l11 62h417l-10 -62l-133 -16q-24 -3 -31 -9.5t-10 -29.5l-123 -901 q-34 -257 -170 -373.5t-395 -116.5q-226 0 -330 96.5t-104 284.5q0 61 8 113l117 897q3 24 -1 32t-24 9zM674 1677q0 42 31 73.5t77 31.5q37 0 60.5 -20.5t23.5 -53.5q0 -42 -32 -74t-78 -32q-37 0 -59.5 20t-22.5 55zM1075 1677q0 42 32.5 73.5t78.5 31.5q37 0 59.5 -20 t22.5 -54q0 -42 -31.5 -74t-77.5 -32q-37 0 -60.5 20t-23.5 55z" />
<glyph unicode="&#xdd;" horiz-adv-x="1161" d="M137 1421l10 62h369l-8 -62l-148 -18l267 -721l454 721l-143 18l8 62h367l-10 -62l-86 -22q-21 -6 -33 -15.5t-25 -29.5l-493 -760l-62 -475q-3 -16 -2 -25t7 -12t22 -4l186 -17l-8 -61h-537l9 61l188 15q20 1 26 9t9 34l63 469l-299 776q-6 16 -15 23t-28 12zM598 1624 l379 260l63 -100l-403 -215z" />
<glyph unicode="&#xde;" horiz-adv-x="1312" d="M94 0l8 63l129 15q22 3 29 10.5t10 30.5l172 1247q3 24 -2 32t-26 9l-123 14l8 62h436l-4 -62l-160 -16q-20 0 -28 -7.5t-11 -33.5l-16 -141h320q117 0 202.5 -28.5t134.5 -81t72 -118t23 -147.5q0 -283 -159.5 -413t-459.5 -130h-260l-27 -184q-3 -24 2.5 -31.5 t26.5 -9.5l283 -17l-6 -63h-574zM399 389h250q92 0 164 11t140 41.5t112.5 81t71 132.5t26.5 193q0 145 -87.5 218t-276.5 73h-295z" />
<glyph unicode="&#xdf;" horiz-adv-x="1245" d="M78 -434l233 1622q13 90 42 157.5t68 109.5t92.5 68t108 36t121.5 10q76 0 137.5 -13.5t100 -33.5t67 -49.5t42.5 -54.5t21.5 -55.5t9 -46t1.5 -32.5q0 -43 -12 -79.5t-36 -67t-46.5 -52t-57.5 -51.5q-8 -7 -12 -10q-93 -77 -130 -123t-37 -102q0 -20 4.5 -37.5t15 -34 t19.5 -28t28.5 -28t30 -24.5t35 -26t34.5 -25q48 -36 79.5 -69.5t56 -93.5t24.5 -134q0 -80 -30.5 -143.5t-83 -102t-117 -58.5t-135.5 -20q-122 0 -218.5 25.5t-134.5 48.5l37 238l72 -6l6 -152q0 -19 18 -27q97 -41 216 -41q121 0 192.5 65.5t71.5 176.5q0 80 -31.5 131.5 t-87.5 93.5q-13 10 -46 31.5t-48.5 33t-40.5 35t-37 45t-21.5 53.5t-9.5 69q0 33 11 65t24.5 55t40.5 52t44 44.5t50 43.5q32 28 42 36.5t36 33t35.5 39t24 38t19.5 46t5 48.5q0 91 -72 141t-211 50q-152 0 -231 -75.5t-100 -225.5l-230 -1620h-100z" />
<glyph unicode="&#xe0;" horiz-adv-x="1153" d="M94 352q0 84 11.5 165t35 162t64.5 149t94.5 120.5t130.5 82.5t168 30q86 0 168 -35.5t141 -85.5l31 100h100q-37 -125 -53 -235l-96 -688q-3 -25 1.5 -31.5t27.5 -9.5l104 -15l-10 -61h-236l31 213q-47 -45 -74 -70t-74 -62t-83.5 -56.5t-84 -34.5t-94.5 -15 q-145 0 -224 94.5t-79 282.5zM188 365q0 -306 213 -306q38 0 76 10.5t79.5 36.5t68 44t70.5 60.5t57 55.5t55 58l12 12l72 506q-48 54 -134 94.5t-175 40.5q-72 0 -132.5 -27t-102.5 -74.5t-73.5 -107.5t-50 -130t-27 -137.5t-8.5 -135.5zM455 1466l88 76l278 -323l-49 -45z " />
<glyph unicode="&#xe1;" horiz-adv-x="1153" d="M94 352q0 84 11.5 165t35 162t64.5 149t94.5 120.5t130.5 82.5t168 30q86 0 168 -35.5t141 -85.5l31 100h100q-37 -125 -53 -235l-96 -688q-3 -25 1.5 -31.5t27.5 -9.5l104 -15l-10 -61h-236l31 213q-47 -45 -74 -70t-74 -62t-83.5 -56.5t-84 -34.5t-94.5 -15 q-145 0 -224 94.5t-79 282.5zM188 365q0 -306 213 -306q38 0 76 10.5t79.5 36.5t68 44t70.5 60.5t57 55.5t55 58l12 12l72 506q-48 54 -134 94.5t-175 40.5q-72 0 -132.5 -27t-102.5 -74.5t-73.5 -107.5t-50 -130t-27 -137.5t-8.5 -135.5zM516 1231l354 307l74 -90 l-387 -268z" />
<glyph unicode="&#xe2;" horiz-adv-x="1153" d="M94 352q0 84 11.5 165t35 162t64.5 149t94.5 120.5t130.5 82.5t168 30q86 0 168 -35.5t141 -85.5l31 100h100q-37 -125 -53 -235l-96 -688q-3 -25 1.5 -31.5t27.5 -9.5l104 -15l-10 -61h-236l31 213q-47 -45 -74 -70t-74 -62t-83.5 -56.5t-84 -34.5t-94.5 -15 q-145 0 -224 94.5t-79 282.5zM188 365q0 -306 213 -306q38 0 76 10.5t79.5 36.5t68 44t70.5 60.5t57 55.5t55 58l12 12l72 506q-48 54 -134 94.5t-175 40.5q-72 0 -132.5 -27t-102.5 -74.5t-73.5 -107.5t-50 -130t-27 -137.5t-8.5 -135.5zM334 1243l295 236h137l223 -246 l-61 -47l-234 221l-307 -221z" />
<glyph unicode="&#xe3;" horiz-adv-x="1153" d="M94 352q0 84 11.5 165t35 162t64.5 149t94.5 120.5t130.5 82.5t168 30q86 0 168 -35.5t141 -85.5l31 100h100q-37 -125 -53 -235l-96 -688q-3 -25 1.5 -31.5t27.5 -9.5l104 -15l-10 -61h-236l31 213q-47 -45 -74 -70t-74 -62t-83.5 -56.5t-84 -34.5t-94.5 -15 q-145 0 -224 94.5t-79 282.5zM188 365q0 -306 213 -306q38 0 76 10.5t79.5 36.5t68 44t70.5 60.5t57 55.5t55 58l12 12l72 506q-48 54 -134 94.5t-175 40.5q-72 0 -132.5 -27t-102.5 -74.5t-73.5 -107.5t-50 -130t-27 -137.5t-8.5 -135.5zM346 1257l72 86q30 31 52 44.5 t48 13.5q24 0 62 -12l264 -80q25 -6 37 6l92 76l47 -37l-64 -74q-33 -36 -54 -51t-48 -15q-16 0 -53 11l-275 82q-21 7 -43 -9l-90 -79z" />
<glyph unicode="&#xe4;" horiz-adv-x="1153" d="M94 352q0 84 11.5 165t35 162t64.5 149t94.5 120.5t130.5 82.5t168 30q86 0 168 -35.5t141 -85.5l31 100h100q-37 -125 -53 -235l-96 -688q-3 -25 1.5 -31.5t27.5 -9.5l104 -15l-10 -61h-236l31 213q-47 -45 -74 -70t-74 -62t-83.5 -56.5t-84 -34.5t-94.5 -15 q-145 0 -224 94.5t-79 282.5zM188 365q0 -306 213 -306q38 0 76 10.5t79.5 36.5t68 44t70.5 60.5t57 55.5t55 58l12 12l72 506q-48 54 -134 94.5t-175 40.5q-72 0 -132.5 -27t-102.5 -74.5t-73.5 -107.5t-50 -130t-27 -137.5t-8.5 -135.5zM408 1329q0 47 30 77t80 30 q82 0 82 -76q0 -42 -29.5 -74.5t-76.5 -32.5q-39 0 -62.5 21t-23.5 55zM811 1329q0 47 30 77t81 30q82 0 82 -76q0 -42 -30.5 -74.5t-76.5 -32.5q-39 0 -62.5 21t-23.5 55z" />
<glyph unicode="&#xe5;" horiz-adv-x="1153" d="M94 352q0 84 11.5 165t35 162t64.5 149t94.5 120.5t130.5 82.5t168 30q86 0 168 -35.5t141 -85.5l31 100h100q-37 -125 -53 -235l-96 -688q-3 -25 1.5 -31.5t27.5 -9.5l104 -15l-10 -61h-236l31 213q-47 -45 -74 -70t-74 -62t-83.5 -56.5t-84 -34.5t-94.5 -15 q-145 0 -224 94.5t-79 282.5zM188 365q0 -306 213 -306q38 0 76 10.5t79.5 36.5t68 44t70.5 60.5t57 55.5t55 58l12 12l72 506q-48 54 -134 94.5t-175 40.5q-72 0 -132.5 -27t-102.5 -74.5t-73.5 -107.5t-50 -130t-27 -137.5t-8.5 -135.5zM498 1319q0 85 54 138.5t155 53.5 q77 0 121 -37t44 -108q0 -94 -55.5 -143t-157.5 -49q-161 0 -161 145zM586 1323q0 -80 88 -80q47 0 76.5 30.5t29.5 84.5q0 38 -20 56t-66 18q-51 0 -79.5 -27.5t-28.5 -81.5z" />
<glyph unicode="&#xe6;" horiz-adv-x="1581" d="M94 352q0 84 11.5 165t35.5 162t65 149t95.5 120.5t132 82.5t170.5 30q167 0 338 -154q162 154 348 154q70 0 120 -18.5t77 -51.5t39 -71t12 -84q0 -120 -90 -207q-150 -146 -617 -201q-1 -71 5 -123t24 -100.5t49.5 -78t83.5 -47.5t125 -18q96 0 158.5 16t138.5 54 l27 -78q-141 -78 -336 -78q-259 0 -340 193q-197 -193 -369 -193q-145 0 -224 94.5t-79 282.5zM188 365q0 -86 16 -146.5t46 -93.5t68 -47.5t88 -14.5q151 0 335 191q-8 58 -8 104q-2 130 36 258t110 230q-71 61 -141.5 94t-157.5 33q-85 0 -153.5 -39t-112 -100.5 t-73 -143.5t-41.5 -162.5t-12 -162.5zM844 514q65 7 118 15t127.5 24t130 39t107 55t79.5 78.5t28 103.5q0 67 -37.5 106.5t-120.5 39.5q-84 0 -159 -39t-129.5 -104.5t-91.5 -147t-52 -170.5z" />
<glyph unicode="&#xe7;" horiz-adv-x="978" d="M94 397q0 141 32 254t87 188.5t131.5 126.5t161 73t180.5 22q42 0 80.5 -3.5t68.5 -10.5t49 -12t40 -12.5t24 -8.5l-30 -234l-76 6l-6 142q0 18 -23 26q-61 21 -154 21q-90 0 -170.5 -32.5t-147.5 -98t-106.5 -178t-39.5 -258.5q0 -170 78 -260.5t219 -90.5 q81 0 161 20.5t129 47.5l31 -76q-52 -31 -135.5 -52t-171.5 -22l-17 -61q64 -11 103 -51.5t39 -100.5q0 -103 -76 -159t-186 -56q-66 0 -109 15l21 71q32 -8 79 -8q77 0 126 34t49 97q0 45 -34.5 72t-109.5 27l35 125q-168 18 -250 126.5t-82 290.5z" />
<glyph unicode="&#xe8;" horiz-adv-x="944" d="M94 385q0 99 24 196.5t71.5 184t112.5 152.5t153 104.5t188 38.5q138 0 197 -63.5t59 -161.5q0 -65 -26.5 -119.5t-68.5 -92.5t-103 -69t-119 -49.5t-129 -33.5t-121.5 -23t-106.5 -15q-22 -3 -32 -4q-1 -74 6 -128t25.5 -100.5t51 -75t84 -44.5t123.5 -16q162 0 295 65 l25 -82q-136 -74 -332 -74q-377 0 -377 410zM205 514q44 5 65.5 8t76 11.5t87.5 16t85.5 22t86 30t73 39t62.5 49.5t38.5 61t15.5 74q0 68 -39 108t-121 40q-111 0 -205 -65.5t-150.5 -168.5t-74.5 -225zM440 1466l88 76l279 -323l-49 -45z" />
<glyph unicode="&#xe9;" horiz-adv-x="944" d="M94 385q0 99 24 196.5t71.5 184t112.5 152.5t153 104.5t188 38.5q138 0 197 -63.5t59 -161.5q0 -65 -26.5 -119.5t-68.5 -92.5t-103 -69t-119 -49.5t-129 -33.5t-121.5 -23t-106.5 -15q-22 -3 -32 -4q-1 -74 6 -128t25.5 -100.5t51 -75t84 -44.5t123.5 -16q162 0 295 65 l25 -82q-136 -74 -332 -74q-377 0 -377 410zM205 514q44 5 65.5 8t76 11.5t87.5 16t85.5 22t86 30t73 39t62.5 49.5t38.5 61t15.5 74q0 68 -39 108t-121 40q-111 0 -205 -65.5t-150.5 -168.5t-74.5 -225zM502 1231l354 307l74 -90l-387 -268z" />
<glyph unicode="&#xea;" horiz-adv-x="944" d="M94 385q0 99 24 196.5t71.5 184t112.5 152.5t153 104.5t188 38.5q138 0 197 -63.5t59 -161.5q0 -65 -26.5 -119.5t-68.5 -92.5t-103 -69t-119 -49.5t-129 -33.5t-121.5 -23t-106.5 -15q-22 -3 -32 -4q-1 -74 6 -128t25.5 -100.5t51 -75t84 -44.5t123.5 -16q162 0 295 65 l25 -82q-136 -74 -332 -74q-377 0 -377 410zM205 514q44 5 65.5 8t76 11.5t87.5 16t85.5 22t86 30t73 39t62.5 49.5t38.5 61t15.5 74q0 68 -39 108t-121 40q-111 0 -205 -65.5t-150.5 -168.5t-74.5 -225zM319 1243l295 236h138l223 -246l-62 -47l-233 221l-307 -221z" />
<glyph unicode="&#xeb;" horiz-adv-x="944" d="M94 385q0 99 24 196.5t71.5 184t112.5 152.5t153 104.5t188 38.5q138 0 197 -63.5t59 -161.5q0 -65 -26.5 -119.5t-68.5 -92.5t-103 -69t-119 -49.5t-129 -33.5t-121.5 -23t-106.5 -15q-22 -3 -32 -4q-1 -74 6 -128t25.5 -100.5t51 -75t84 -44.5t123.5 -16q162 0 295 65 l25 -82q-136 -74 -332 -74q-377 0 -377 410zM205 514q44 5 65.5 8t76 11.5t87.5 16t85.5 22t86 30t73 39t62.5 49.5t38.5 61t15.5 74q0 68 -39 108t-121 40q-111 0 -205 -65.5t-150.5 -168.5t-74.5 -225zM369 1329q0 47 30 77t80 30q82 0 82 -76q0 -42 -29.5 -74.5 t-76.5 -32.5q-39 0 -62.5 21t-23.5 55zM772 1329q0 47 30 77t81 30q82 0 82 -76q0 -42 -30.5 -74.5t-76.5 -32.5q-39 0 -62.5 21t-23.5 55z" />
<glyph unicode="&#xec;" horiz-adv-x="571" d="M72 1458l84 78l278 -330l-47 -43zM160 8l39 201l100 709q6 34 -23 43l-112 24l6 55h246l-131 -921q-3 -25 1 -31.5t27 -9.5l140 -17l-11 -61h-278z" />
<glyph unicode="&#xed;" horiz-adv-x="571" d="M154 1221l352 311l74 -90l-387 -273zM160 8l39 201l100 709q6 34 -23 43l-112 24l6 55h246l-131 -921q-3 -25 1 -31.5t27 -9.5l140 -17l-11 -61h-278z" />
<glyph unicode="&#xee;" horiz-adv-x="571" d="M88 1245l250 252h133l180 -256l-61 -43l-191 221l-260 -221zM160 8l39 201l100 709q6 34 -23 43l-112 24l6 55h246l-131 -921q-3 -25 1 -31.5t27 -9.5l140 -17l-11 -61h-278z" />
<glyph unicode="&#xef;" horiz-adv-x="571" d="M90 1327q0 47 30.5 77t80.5 30q82 0 82 -76q0 -42 -30 -73.5t-77 -31.5q-38 0 -62 20t-24 54zM160 8l39 201l100 709q6 34 -23 43l-112 24l6 55h246l-131 -921q-3 -25 1 -31.5t27 -9.5l140 -17l-11 -61h-278zM410 1327q0 47 30 77t80 30q82 0 82 -76q0 -42 -29.5 -73.5 t-76.5 -31.5q-38 0 -62 20t-24 54z" />
<glyph unicode="&#xf0;" horiz-adv-x="1126" d="M96 422q0 174 66 310.5t189.5 214t285.5 77.5q96 0 181 -38.5t145 -98.5q-11 123 -53 242t-101 190l-264 -127l-35 68l238 114q-101 75 -308 111l29 67q106 -14 202.5 -50.5t159.5 -92.5l232 109l29 -68l-205 -96q166 -205 166 -545q0 -36 -1 -69t-6.5 -96.5t-15.5 -118 t-30.5 -125t-47.5 -127.5t-70.5 -114.5t-97 -96t-129 -63t-163.5 -24.5q-198 0 -297 120t-99 327zM201 424q0 -365 295 -365q103 0 184.5 43.5t132.5 113.5t84.5 167t46.5 195t14 206q-152 152 -329 152q-197 0 -312.5 -139t-115.5 -373z" />
<glyph unicode="&#xf1;" horiz-adv-x="1267" d="M37 0l12 63l105 15q22 3 29 10.5t10 30.5l108 794q6 37 -18 43l-115 29l6 55h244l-29 -211q275 232 463 232q124 0 179.5 -61t55.5 -185q0 -62 -10 -127l-82 -569q-3 -25 2 -31.5t29 -9.5l121 -17l-10 -61h-265l-4 8l39 199l64 442q14 103 14 150q0 97 -33 133.5 t-116 36.5q-43 0 -97 -19t-96 -41t-102 -64t-87.5 -64t-80.5 -64l-80 -598q-3 -25 1.5 -31.5t27.5 -9.5l145 -17l-10 -61h-420zM414 1257l71 86q55 58 101 58q24 0 61 -12l264 -80q25 -6 37 6l92 76l47 -37l-63 -74q-33 -36 -54 -51t-48 -15q-17 0 -54 11l-274 82 q-21 7 -43 -9l-90 -79z" />
<glyph unicode="&#xf2;" horiz-adv-x="1120" d="M94 391q0 146 35.5 267.5t104 211.5t175.5 140.5t242 50.5q197 0 292 -114t95 -306q0 -313 -145.5 -489.5t-400.5 -176.5q-200 0 -299 111t-99 305zM195 408q0 -167 78 -257t231 -90q200 0 316 154t116 428q0 160 -76 244t-223 84q-204 0 -323 -149.5t-119 -413.5z M457 1466l88 76l278 -323l-49 -45z" />
<glyph unicode="&#xf3;" horiz-adv-x="1120" d="M94 391q0 146 35.5 267.5t104 211.5t175.5 140.5t242 50.5q197 0 292 -114t95 -306q0 -313 -145.5 -489.5t-400.5 -176.5q-200 0 -299 111t-99 305zM195 408q0 -167 78 -257t231 -90q200 0 316 154t116 428q0 160 -76 244t-223 84q-204 0 -323 -149.5t-119 -413.5z M518 1231l354 307l74 -90l-387 -268z" />
<glyph unicode="&#xf4;" horiz-adv-x="1120" d="M94 391q0 146 35.5 267.5t104 211.5t175.5 140.5t242 50.5q197 0 292 -114t95 -306q0 -313 -145.5 -489.5t-400.5 -176.5q-200 0 -299 111t-99 305zM195 408q0 -167 78 -257t231 -90q200 0 316 154t116 428q0 160 -76 244t-223 84q-204 0 -323 -149.5t-119 -413.5z M336 1243l295 236h137l223 -246l-61 -47l-234 221l-307 -221z" />
<glyph unicode="&#xf5;" horiz-adv-x="1120" d="M94 391q0 146 35.5 267.5t104 211.5t175.5 140.5t242 50.5q197 0 292 -114t95 -306q0 -313 -145.5 -489.5t-400.5 -176.5q-200 0 -299 111t-99 305zM195 408q0 -167 78 -257t231 -90q200 0 316 154t116 428q0 160 -76 244t-223 84q-204 0 -323 -149.5t-119 -413.5z M334 1257l72 86q30 31 52 44.5t48 13.5q24 0 61 -12l264 -80q25 -6 37 6l93 76l47 -37l-64 -74q-33 -36 -54 -51t-48 -15q-17 0 -54 11l-274 82q-21 7 -43 -9l-90 -79z" />
<glyph unicode="&#xf6;" horiz-adv-x="1120" d="M94 391q0 146 35.5 267.5t104 211.5t175.5 140.5t242 50.5q197 0 292 -114t95 -306q0 -313 -145.5 -489.5t-400.5 -176.5q-200 0 -299 111t-99 305zM195 408q0 -167 78 -257t231 -90q200 0 316 154t116 428q0 160 -76 244t-223 84q-204 0 -323 -149.5t-119 -413.5z M385 1329q0 47 30.5 77t80.5 30q82 0 82 -76q0 -42 -30 -74.5t-77 -32.5q-39 0 -62.5 21t-23.5 55zM788 1329q0 47 30 77t81 30q82 0 82 -76q0 -42 -30.5 -74.5t-76.5 -32.5q-39 0 -62.5 21t-23.5 55z" />
<glyph unicode="&#xf7;" d="M209 602l16 105h758l-16 -105h-758zM428 338q0 129 127 129q96 0 96 -90q0 -63 -34 -95t-95 -32q-94 0 -94 88zM514 942q0 129 125 129q96 0 96 -88q0 -129 -127 -129q-94 0 -94 88z" />
<glyph unicode="&#xf8;" horiz-adv-x="1120" d="M92 391q0 146 35.5 267.5t104 211.5t175.5 140.5t242 50.5q90 0 166 -29l94 160h99l-117 -201q145 -107 145 -350q0 -313 -145.5 -489.5t-401.5 -176.5q-97 0 -176 29l-114 -197h-101l140 238q-146 105 -146 346zM193 408q0 -191 96 -277l477 817q-61 23 -131 23 q-204 0 -323 -149.5t-119 -413.5zM360 86q64 -25 142 -25q200 0 316 154t116 428q0 177 -94 262z" />
<glyph unicode="&#xf9;" horiz-adv-x="1259" d="M156 979l8 61h246l2 -4l-93 -649q-14 -95 -14 -151q0 -89 33 -132t113 -43q27 0 57 7.5t61.5 22t61 30t62 38.5t57 40.5t54.5 42.5t45.5 38t39 34.5t26.5 23.5l80 584q3 25 -1 31.5t-27 9.5l-133 16l10 61h266l4 -4l-129 -923q-6 -32 19 -35l118 -19l-8 -59h-246l31 219 q-97 -82 -161 -128.5t-146.5 -82t-159.5 -35.5q-229 0 -229 244q0 51 12 133l80 572q3 25 -1.5 31.5t-27.5 9.5zM516 1466l88 76l279 -323l-49 -45z" />
<glyph unicode="&#xfa;" horiz-adv-x="1259" d="M156 979l8 61h246l2 -4l-93 -649q-14 -95 -14 -151q0 -89 33 -132t113 -43q27 0 57 7.5t61.5 22t61 30t62 38.5t57 40.5t54.5 42.5t45.5 38t39 34.5t26.5 23.5l80 584q3 25 -1 31.5t-27 9.5l-133 16l10 61h266l4 -4l-129 -923q-6 -32 19 -35l118 -19l-8 -59h-246l31 219 q-97 -82 -161 -128.5t-146.5 -82t-159.5 -35.5q-229 0 -229 244q0 51 12 133l80 572q3 25 -1.5 31.5t-27.5 9.5zM563 1231l355 307l73 -90l-387 -268z" />
<glyph unicode="&#xfb;" horiz-adv-x="1259" d="M156 979l8 61h246l2 -4l-93 -649q-14 -95 -14 -151q0 -89 33 -132t113 -43q27 0 57 7.5t61.5 22t61 30t62 38.5t57 40.5t54.5 42.5t45.5 38t39 34.5t26.5 23.5l80 584q3 25 -1 31.5t-27 9.5l-133 16l10 61h266l4 -4l-129 -923q-6 -32 19 -35l118 -19l-8 -59h-246l31 219 q-97 -82 -161 -128.5t-146.5 -82t-159.5 -35.5q-229 0 -229 244q0 51 12 133l80 572q3 25 -1.5 31.5t-27.5 9.5zM381 1243l295 236h137l223 -246l-61 -47l-234 221l-307 -221z" />
<glyph unicode="&#xfc;" horiz-adv-x="1259" d="M156 979l8 61h246l2 -4l-93 -649q-14 -95 -14 -151q0 -89 33 -132t113 -43q27 0 57 7.5t61.5 22t61 30t62 38.5t57 40.5t54.5 42.5t45.5 38t39 34.5t26.5 23.5l80 584q3 25 -1 31.5t-27 9.5l-133 16l10 61h266l4 -4l-129 -923q-6 -32 19 -35l118 -19l-8 -59h-246l31 219 q-97 -82 -161 -128.5t-146.5 -82t-159.5 -35.5q-229 0 -229 244q0 51 12 133l80 572q3 25 -1.5 31.5t-27.5 9.5zM430 1329q0 47 30.5 77t80.5 30q82 0 82 -76q0 -42 -30 -74.5t-77 -32.5q-39 0 -62.5 21t-23.5 55zM834 1329q0 47 29.5 77t80.5 30q82 0 82 -76 q0 -42 -30 -74.5t-76 -32.5q-39 0 -62.5 21t-23.5 55z" />
<glyph unicode="&#xfd;" horiz-adv-x="1003" d="M-186 -375l53 76q16 -16 73 -42t105 -26q85 0 129 43.5t125 196.5l92 176l-196 879q-4 17 -11 23.5t-24 11.5l-84 22l14 55h197l6 -6l43 -252l129 -606l385 785l-127 24l6 55h264l6 -8l-600 -1182q-45 -88 -76 -138t-72.5 -92.5t-90 -59.5t-115.5 -17q-73 0 -138 27 t-93 55zM424 1231l354 307l74 -90l-387 -268z" />
<glyph unicode="&#xfe;" horiz-adv-x="1157" d="M82 -426l35 182l233 1661q3 38 -18 43l-115 31l6 55h246l-98 -704q133 115 232.5 167t189.5 52q129 0 205.5 -95t76.5 -296q0 -55 -7 -115t-23.5 -128.5t-41 -132t-64 -122t-88 -102t-116.5 -69.5t-147 -26q-161 0 -324 152l-55 -432q-3 -25 6 -33t33 -10l160 -12 l-11 -74h-305zM285 225q34 -34 60.5 -57t67 -52t85 -44t90.5 -15q82 0 149.5 39.5t111 102.5t73.5 144.5t42.5 162t12.5 158.5q0 90 -14.5 152.5t-42.5 94.5t-60.5 45t-75.5 13q-55 0 -119 -26t-124 -69.5t-103.5 -81t-85.5 -79.5z" />
<glyph unicode="&#xff;" horiz-adv-x="1003" d="M-186 -375l53 76q16 -16 73 -42t105 -26q85 0 129 43.5t125 196.5l92 176l-196 879q-4 17 -11 23.5t-24 11.5l-84 22l14 55h197l6 -6l43 -252l129 -606l385 785l-127 24l6 55h264l6 -8l-600 -1182q-45 -88 -76 -138t-72.5 -92.5t-90 -59.5t-115.5 -17q-73 0 -138 27 t-93 55zM291 1329q0 47 30 77t80 30q82 0 82 -76q0 -42 -29.5 -74.5t-76.5 -32.5q-39 0 -62.5 21t-23.5 55zM694 1329q0 47 30 77t81 30q82 0 82 -76q0 -42 -30.5 -74.5t-76.5 -32.5q-39 0 -62.5 21t-23.5 55z" />
<glyph unicode="&#x152;" horiz-adv-x="2000" d="M129 625q0 255 91.5 455.5t263 314.5t395.5 114q99 0 198 -26h934l-39 -281l-67 4l-7 164q0 17 -6.5 22t-25.5 5h-649q112 -112 148 -258t26 -344h399l-14 -86h-396q-25 -206 -105 -366t-210 -257h668q18 0 25.5 4.5t8.5 18.5l58 180h67l-41 -289h-985q-92 -25 -186 -25 q-179 0 -304 81.5t-186 226t-61 342.5zM236 627q0 -272 118.5 -418t339.5 -146q277 0 435.5 213t158.5 601q0 266 -102.5 405t-325.5 139q-128 0 -241 -55t-198.5 -154.5t-135 -251t-49.5 -333.5z" />
<glyph unicode="&#x153;" horiz-adv-x="1751" d="M92 391q0 146 35.5 267.5t104 211.5t175.5 140.5t242 50.5q161 0 251 -87.5t106 -236.5q65 146 179.5 235t264.5 89q138 0 197 -63.5t59 -161.5q0 -65 -26.5 -119.5t-68.5 -92.5t-102.5 -69t-120 -49.5t-129.5 -33.5t-121.5 -23t-106.5 -15q-22 -3 -32 -4q0 -70 7 -122.5 t26.5 -100.5t52 -78.5t84.5 -48t123 -17.5q154 0 293 68l25 -82q-136 -74 -332 -74q-83 0 -145.5 19.5t-102.5 56.5t-63.5 84t-34.5 109q-152 -269 -449 -269q-196 0 -293.5 111.5t-97.5 304.5zM193 408q0 -167 78 -257t231 -90q200 0 316 154t116 428q0 160 -76 244 t-223 84q-204 0 -323 -149.5t-119 -413.5zM1012 514q44 5 65.5 8t76 11.5t87.5 16t85.5 22t86 30t73 39t62.5 49.5t38.5 61t15.5 74q0 68 -39 108t-121 40q-111 0 -205 -65.5t-150.5 -168.5t-74.5 -225z" />
<glyph unicode="&#x178;" horiz-adv-x="1161" d="M137 1421l10 62h369l-8 -62l-148 -18l267 -721l454 721l-143 18l8 62h367l-10 -62l-86 -22q-21 -6 -33 -15.5t-25 -29.5l-493 -760l-62 -475q-3 -16 -2 -25t7 -12t22 -4l186 -17l-8 -61h-537l9 61l188 15q20 1 26 9t9 34l63 469l-299 776q-6 16 -15 23t-28 12zM479 1677 q0 42 31.5 73.5t77.5 31.5q37 0 60.5 -20.5t23.5 -53.5q0 -42 -32.5 -74t-78.5 -32q-37 0 -59.5 20t-22.5 55zM881 1677q0 42 32 73.5t78 31.5q37 0 59.5 -20t22.5 -54q0 -42 -31 -74t-77 -32q-37 0 -60.5 20t-23.5 55z" />
<glyph unicode="&#x2c6;" horiz-adv-x="1024" d="M352 1243l295 236h137l224 -246l-62 -47l-233 221l-307 -221z" />
<glyph unicode="&#x2dc;" horiz-adv-x="1024" d="M358 1257l72 86q30 31 52 44.5t48 13.5q24 0 62 -12l264 -80q25 -6 37 6l92 76l47 -37l-63 -74q-33 -36 -54.5 -51t-48.5 -15q-16 0 -53 11l-274 82q-21 7 -43 -9l-90 -79z" />
<glyph unicode="&#x2000;" horiz-adv-x="945" />
<glyph unicode="&#x2001;" horiz-adv-x="1890" />
<glyph unicode="&#x2002;" horiz-adv-x="945" />
<glyph unicode="&#x2003;" horiz-adv-x="1890" />
<glyph unicode="&#x2004;" horiz-adv-x="630" />
<glyph unicode="&#x2005;" horiz-adv-x="472" />
<glyph unicode="&#x2006;" horiz-adv-x="315" />
<glyph unicode="&#x2007;" horiz-adv-x="315" />
<glyph unicode="&#x2008;" horiz-adv-x="236" />
<glyph unicode="&#x2009;" horiz-adv-x="378" />
<glyph unicode="&#x200a;" horiz-adv-x="105" />
<glyph unicode="&#x2010;" horiz-adv-x="636" d="M49 537l17 104h555l-17 -104h-555z" />
<glyph unicode="&#x2011;" horiz-adv-x="636" d="M49 537l17 104h555l-17 -104h-555z" />
<glyph unicode="&#x2012;" horiz-adv-x="636" d="M49 537l17 104h555l-17 -104h-555z" />
<glyph unicode="&#x2013;" horiz-adv-x="1024" d="M6 537l14 84h1022l-14 -84h-1022z" />
<glyph unicode="&#x2014;" horiz-adv-x="2048" d="M14 537l15 84h2046l-15 -84h-2046z" />
<glyph unicode="&#x2018;" horiz-adv-x="331" d="M188 1247q0 33 35 84l142 207l59 -27l-88 -188q-6 -15 4 -20l51 -27l-57 -121q-70 8 -108 28.5t-38 63.5z" />
<glyph unicode="&#x2019;" horiz-adv-x="344" d="M176 1178l90 192q5 13 -6 19l-51 24l57 121q71 -8 108.5 -29t37.5 -65q0 -16 -5.5 -31t-10.5 -23t-19 -28l-141 -207z" />
<glyph unicode="&#x201a;" horiz-adv-x="319" d="M-10 -205l90 191q5 13 -8 18l-52 25l58 121q71 -8 108 -29.5t37 -65.5q0 -16 -5.5 -31t-10.5 -23t-19 -28l-141 -206z" />
<glyph unicode="&#x201c;" horiz-adv-x="610" d="M188 1247q0 33 35 84l142 207l59 -27l-88 -188q-6 -15 4 -20l51 -27l-57 -121q-70 8 -108 28.5t-38 63.5zM467 1247q0 33 35 84l141 207l59 -27l-88 -188q-6 -15 4 -20l52 -27l-58 -121q-70 8 -107.5 28.5t-37.5 63.5z" />
<glyph unicode="&#x201d;" horiz-adv-x="622" d="M176 1178l90 192q5 13 -6 19l-51 24l57 121q71 -8 108.5 -29t37.5 -65q0 -16 -5.5 -31t-10.5 -23t-19 -28l-141 -207zM455 1178l90 192q5 13 -6 19l-52 24l58 121q70 -8 107.5 -29t37.5 -65q0 -16 -5.5 -31t-10.5 -23t-19 -28l-141 -207z" />
<glyph unicode="&#x201e;" horiz-adv-x="595" d="M-10 -205l90 191q5 13 -8 18l-52 25l58 121q71 -8 108 -29.5t37 -65.5q0 -16 -5.5 -31t-10.5 -23t-19 -28l-141 -206zM268 -205l90 191q5 13 -8 18l-51 25l57 121q71 -8 108.5 -29.5t37.5 -65.5q0 -16 -5.5 -31t-10.5 -23t-19 -28l-141 -206z" />
<glyph unicode="&#x2022;" horiz-adv-x="784" d="M164 573q0 126 67.5 191t192.5 65q126 0 193 -65t67 -191t-67 -191t-193 -65q-125 0 -192.5 65t-67.5 191z" />
<glyph unicode="&#x2026;" horiz-adv-x="1107" d="M43 57q0 63 33 97t90 34q44 0 69 -22t25 -62q0 -55 -33 -92t-92 -37q-43 0 -67.5 21.5t-24.5 60.5zM401 57q0 63 33 97t90 34q44 0 69 -22t25 -62q0 -55 -32.5 -92t-91.5 -37q-43 0 -68 21.5t-25 60.5zM762 57q0 63 33 97t90 34q44 0 69 -22t25 -62q0 -55 -33 -92 t-92 -37q-43 0 -67.5 21.5t-24.5 60.5z" />
<glyph unicode="&#x202f;" horiz-adv-x="378" />
<glyph unicode="&#x2039;" horiz-adv-x="569" d="M147 535l226 301h116l-194 -285q-14 -19 -6 -37l106 -303h-112z" />
<glyph unicode="&#x203a;" horiz-adv-x="569" d="M115 211l194 295q16 23 8 41l-106 289h111l135 -314l-219 -311h-123z" />
<glyph unicode="&#x205f;" horiz-adv-x="472" />
<glyph unicode="&#x20ac;" horiz-adv-x="1015" d="M29 473l24 84h107q4 96 22 182h-98l27 84h86q43 168 134 282t208 165t258 51q124 0 266 -53l-37 -258l-65 10l-7 166q0 12 -5.5 18t-22.5 10q-71 21 -158 21q-353 0 -471 -412h481l-24 -84h-471q-18 -101 -21 -182h434l-26 -84h-408q6 -201 93.5 -309.5t240.5 -108.5 q124 0 188 25q11 4 15.5 10t7.5 19l43 165l74 9l-35 -254q-150 -54 -299 -54q-199 0 -308.5 131t-121.5 367h-131z" />
<glyph unicode="&#x2122;" horiz-adv-x="1675" d="M178 1284v199h653v-199h-61l-20 119h-199v-619l143 -10v-61h-368v61l131 10v619h-193l-22 -119h-64zM901 713v59l90 10v625l-90 10v66h189l251 -500l258 500h179v-66l-90 -10v-625l94 -10v-59h-291v59l106 10v525l-223 -428h-71l-222 426v-523l115 -10v-59h-295z" />
<glyph unicode="&#xe000;" horiz-adv-x="1044" d="M0 0v1044h1044v-1044h-1044z" />
</font>
</defs>
</svg>
