<?xml version="1.0" standalone="no"?>
<!DOCTYPE svg PUBLIC "-//W3C//DTD SVG 1.1//EN" "http://www.w3.org/Graphics/SVG/1.1/DTD/svg11.dtd" >
<svg xmlns="http://www.w3.org/2000/svg">
<metadata></metadata>
<defs>
<font id="adelle_thregular" horiz-adv-x="1167" >
<font-face units-per-em="2048" ascent="1546" descent="-502" />
<missing-glyph horiz-adv-x="483" />
<glyph unicode="&#xfb01;" horiz-adv-x="1298" d="M100 0v76l144 8q8 0 13 0.5t8.5 3t5 3t2.5 5.5t1 6.5v10v12.5v811q0 8 -0.5 11t-4 6t-11.5 3h-156v84h172v193q0 88 19.5 147.5t68 103.5t134.5 64.5t217 20.5q42 0 69.5 -1t62.5 -4t57.5 -9.5t48.5 -17t42 -27.5t30.5 -39.5t22 -54t9.5 -70.5l-105 -15q-4 64 -23 93.5 t-67 42t-149 12.5q-87 0 -147.5 -11t-97.5 -30.5t-57 -54t-27 -73t-7 -96.5v-153q0 -13 2 -17t12 -4h680v-913q0 -26 5 -33t28 -8l153 -14v-72h-477v74l158 12q19 2 26 10t7 31v815q0 14 -15 14h-579v-829q0 -25 5.5 -32.5t27.5 -8.5l172 -14v-72h-480z" />
<glyph unicode="&#xfb02;" horiz-adv-x="1302" d="M100 0v76l144 8q22 0 26 7.5t4 33.5v811q0 8 -0.5 11t-4 6t-11.5 3h-156v84h172v193q0 70 12 121t42 93.5t81.5 68t131.5 39.5t190 14q45 0 72 -0.5t64 -3.5t59.5 -8.5t49 -15.5t42 -25.5t29.5 -36.5t20 -50.5t6 -66.5v-1235q0 -25 5 -31.5t28 -9.5l141 -14v-72h-452v74 l145 12q19 2 26 10t7 31v1204q0 60 -16 89t-70.5 44t-167.5 15q-74 0 -128.5 -6.5t-92.5 -22t-62 -35.5t-37.5 -51.5t-18.5 -66t-5 -83.5v-153q0 -14 2 -17.5t12 -3.5h371v-84h-385v-829q0 -25 5.5 -32.5t27.5 -8.5l254 -14v-72h-562z" />
<glyph unicode="&#xfb03;" horiz-adv-x="1988" d="M100 0v74l142 12q21 1 26.5 9t5.5 32v809q0 8 -0.5 11t-4 6t-11.5 3h-156v84h172v150q0 338 332 338q61 0 105.5 -9t82 -31t57 -64.5t19.5 -104.5l-96 -14q0 80 -41 107.5t-131 27.5q-130 0 -178.5 -66t-48.5 -200v-113q0 -7 0.5 -9.5t1.5 -6t4.5 -4.5t9.5 -1h574v193 q0 88 19 147.5t67.5 103.5t135 64.5t216.5 20.5q42 0 69.5 -1t62.5 -4t57.5 -9.5t48.5 -17t42 -27.5t30.5 -39.5t22 -54t9.5 -70.5l-105 -15q-4 64 -23 93.5t-67 42t-149 12.5q-87 0 -147.5 -11t-97.5 -30.5t-57 -54t-27 -73t-7 -96.5v-153q0 -13 2 -17t12 -4h680v-913 q0 -26 5 -33t28 -8l154 -14v-72h-478v74l158 12q19 2 26 10t7 31v815q0 14 -14 14h-580v-829q0 -25 5.5 -32.5t27.5 -8.5l172 -14v-72h-479v76l143 8q6 0 10.5 0.5t7.5 2t5.5 2t4 3t2 3.5t1 5.5t0.5 6v8.5v10v811q0 11 -3 15.5t-14 4.5h-573v-829q0 -26 5 -33t28 -8l233 -14 v-72h-541z" />
<glyph unicode="&#xfb04;" horiz-adv-x="1992" d="M100 0v74l142 12q21 1 26.5 9t5.5 32v809q0 8 -0.5 11t-4 6t-11.5 3h-156v84h172v150q0 338 332 338q61 0 105.5 -9t82 -31t57 -64.5t19.5 -104.5l-96 -14q0 80 -41 107.5t-131 27.5q-130 0 -178.5 -66t-48.5 -200v-113q0 -7 0.5 -9.5t1.5 -6t4.5 -4.5t9.5 -1h574v193 q0 70 12 121t42 93.5t81.5 68t131 39.5t189.5 14q45 0 72 -0.5t64 -3.5t59.5 -8.5t49 -15.5t42 -25.5t29.5 -36.5t20 -50.5t6 -66.5v-1235q0 -25 5 -31.5t28 -9.5l141 -14v-72h-452v74l145 12q19 2 26 10t7 31v1204q0 60 -16 89t-70.5 44t-167.5 15q-74 0 -128.5 -6.5 t-92.5 -22t-62 -35.5t-37.5 -51.5t-18.5 -66t-5 -83.5v-153q0 -14 2 -17.5t12 -3.5h371v-84h-385v-829q0 -25 5.5 -32.5t27.5 -8.5l254 -14v-72h-561v76l143 8q22 0 26.5 7.5t4.5 33.5v811q0 11 -3 15.5t-14 4.5h-573v-829q0 -26 5 -33t28 -8l233 -14v-72h-541z" />
<glyph horiz-adv-x="2048" />
<glyph horiz-adv-x="2048" />
<glyph unicode="&#xd;" horiz-adv-x="2048" />
<glyph unicode=" "  horiz-adv-x="483" />
<glyph unicode="&#x09;" horiz-adv-x="483" />
<glyph unicode="&#xa0;" horiz-adv-x="483" />
<glyph unicode="!" horiz-adv-x="516" d="M154 82q0 106 106 106q50 0 78.5 -27t28.5 -79q0 -53 -28 -80t-79 -27q-106 0 -106 107zM197 1157v326h120v-326l-18 -788h-82z" />
<glyph unicode="&#x22;" horiz-adv-x="731" d="M143 915v531h121v-531h-121zM471 915v531h121v-531h-121z" />
<glyph unicode="#" horiz-adv-x="1243" d="M76 311l24 82h248l55 357h-258l23 84h248l41 278h104l-43 -278h293l39 278h104l-41 -278h256l-20 -84h-250l-49 -357h252l-21 -82h-245l-48 -311h-100l47 311h-299l-45 -311h-102l45 311h-258zM451 393h297l51 357h-295z" />
<glyph unicode="$" horiz-adv-x="1064" d="M82 76v268h70l38 -172q12 -39 31 -47q33 -13 110 -24.5t158 -12.5v508q-39 11 -58 17t-55 18t-55.5 21.5t-48.5 26t-45.5 33t-36 40.5t-29.5 50t-17 60.5t-7 73.5q0 155 95 237.5t257 96.5v151h89v-143q98 -4 190.5 -27t138.5 -43v-290l-76 6l-34 184q-4 23 -12 32.5 t-29 18.5q-66 24 -178 27v-518q43 -12 72 -21.5t67.5 -25.5t64 -32.5t53 -42.5t43.5 -55.5t26.5 -70.5t10.5 -90q0 -140 -87.5 -224.5t-249.5 -101.5v-168h-89v164q-130 1 -241.5 26t-165.5 50zM236 942q0 -55 19 -97t57.5 -70t78 -45.5t98.5 -35.5v488q-119 -10 -186 -74 t-67 -166zM578 92q122 10 178.5 71t56.5 156q0 57 -15.5 98.5t-47.5 71t-72.5 48t-99.5 34.5v-479z" />
<glyph unicode="%" horiz-adv-x="1738" d="M111 887q0 171 86.5 277t242.5 106q159 0 236.5 -95.5t77.5 -261.5q0 -174 -86.5 -280.5t-243.5 -106.5q-85 0 -148 30t-97.5 82t-51 114t-16.5 135zM215 895q0 -285 215 -285q217 0 217 295q0 281 -211 281q-50 0 -89.5 -18.5t-63.5 -47.5t-40 -68.5t-22 -78t-6 -78.5z M428 -35l772 1307h103l-771 -1307h-104zM987 336q0 171 87 277t243 106q159 0 236 -95.5t77 -261.5q0 -174 -86.5 -280.5t-243.5 -106.5q-85 0 -148 30t-97.5 82t-51 114t-16.5 135zM1092 344q0 -287 215 -287q217 0 217 297q0 281 -211 281q-51 0 -90.5 -18.5t-63.5 -47.5 t-39.5 -68.5t-21.5 -78t-6 -78.5z" />
<glyph unicode="&#x26;" horiz-adv-x="1458" d="M100 391q0 167 104 278.5t296 151.5q-57 62 -96 138.5t-39 146.5q0 32 8 65.5t30 70.5t56 65t91 46.5t130 18.5q122 0 278 -59v-242l-75 6l-25 144q-3 19 -9.5 28t-23.5 15q-65 20 -149 20q-102 0 -155.5 -44t-53.5 -118q0 -84 39 -154.5t166 -219.5l311 -365 q27 74 57 192.5t35 217.5h209v-74l-104 -19q-20 -3 -25 -7.5t-8 -24.5q-27 -195 -98 -344l163 -195q14 -19 25.5 -24.5t38.5 -10.5l108 -22v-72h-194l-191 233q-95 -137 -208.5 -197.5t-262.5 -60.5q-193 0 -310.5 114t-117.5 302zM199 391q0 -61 20 -119t59 -107.5 t105.5 -79.5t151.5 -30q255 0 403 244l-395 453q-152 -22 -248 -112.5t-96 -248.5z" />
<glyph unicode="'" horiz-adv-x="407" d="M143 915v531h121v-531h-121z" />
<glyph unicode="(" horiz-adv-x="536" d="M129 573q0 437 299 897l78 -49q-143 -245 -211 -438.5t-68 -407.5q0 -74 8.5 -146t18 -126t33.5 -123t37.5 -106.5t48.5 -108t49 -96t55 -99.5q10 -19 15 -28l-82 -43q-60 98 -104 183.5t-87.5 197t-66.5 236.5t-23 257z" />
<glyph unicode=")" horiz-adv-x="536" d="M27 1421l77 49q304 -461 304 -901q0 -131 -23.5 -256.5t-67 -236.5t-86.5 -196t-102 -181l-82 41q110 205 142 278q115 260 118 536v17q0 216 -68.5 413t-211.5 437z" />
<glyph unicode="*" horiz-adv-x="954" d="M109 1225l38 102l119 -45l191 -100l-15 -47l39 -31l-114 -182l-84 -101l-82 72l82 96l159 146l-211 45zM426 1393v129h109v-127l-29 -213h-49zM481 1104l39 31l160 -146l82 -96l-82 -72l-84 101zM506 1182l190 100l119 45l39 -102l-123 -45l-211 -45z" />
<glyph unicode="+" d="M203 608v103h319v323h115v-323h319v-103h-319v-327h-115v327h-319z" />
<glyph unicode="," horiz-adv-x="344" d="M84 55l43 125q91 -7 130.5 -28t39.5 -76q0 -40 -25 -88l-122 -226l-62 25l68 219q3 15 -11 21z" />
<glyph unicode="-" horiz-adv-x="636" d="M41 537v104h555v-104h-555z" />
<glyph unicode="." horiz-adv-x="413" d="M117 82q0 52 28 79t78 27q109 0 109 -106q0 -53 -28.5 -80t-80.5 -27q-51 0 -78.5 27t-27.5 80z" />
<glyph unicode="/" horiz-adv-x="686" d="M10 -188l576 1734h90l-574 -1734h-92z" />
<glyph unicode="0" horiz-adv-x="1136" d="M94 573q0 96 13 179t47.5 164.5t88 139t141 93t200.5 35.5q110 0 193 -33t132.5 -86t79.5 -131t40.5 -156t10.5 -174q0 -629 -477 -629q-469 0 -469 598zM197 559q0 -105 18 -189.5t58.5 -156.5t115.5 -112t180 -40q371 0 371 529q0 90 -9.5 161.5t-34 137.5t-64 110.5 t-103.5 70.5t-149 26q-86 0 -152 -26.5t-109.5 -73t-71 -115.5t-39 -147.5t-11.5 -174.5z" />
<glyph unicode="1" horiz-adv-x="698" d="M61 0v74l228 12q21 1 27 9t6 32v874q0 24 -6.5 31t-24.5 12l-207 33l8 76h332v-1026q0 -25 5 -31.5t28 -9.5l186 -14v-72h-582z" />
<glyph unicode="2" horiz-adv-x="919" d="M63 872q0 77 22 135t56 91t85 53t99.5 26.5t108.5 6.5q203 0 302.5 -85.5t99.5 -234.5q0 -55 -18.5 -110t-43.5 -97t-70.5 -94t-79 -83.5t-90.5 -84.5t-85 -80l-232 -221h520q13 0 18 1t9 6t6 16l35 180h78v-297h-803v82l274 266q35 35 92.5 88.5t89.5 84.5t73.5 77 t63 81t37 80.5t15.5 90.5q0 122 -68.5 183t-218.5 61q-75 0 -122 -9t-83.5 -34t-52.5 -72t-16 -121z" />
<glyph unicode="3" horiz-adv-x="956" d="M39 -6l72 69q68 -73 149.5 -108t194.5 -35q60 0 112 14.5t97 46t71.5 89t26.5 135.5q0 147 -86.5 212.5t-251.5 65.5q-52 0 -137 -10v86l131 12q150 14 230.5 91.5t80.5 187.5q0 122 -65.5 185t-206.5 63q-144 0 -211.5 -50.5t-67.5 -189.5l-98 14q0 92 33.5 156.5t92 97 t120.5 45.5t137 13q97 0 170.5 -25.5t117 -70t64.5 -99.5t21 -119q0 -227 -246 -333q276 -56 276 -322q0 -173 -107 -279t-313 -106q-131 0 -238 45.5t-169 118.5z" />
<glyph unicode="4" horiz-adv-x="970" d="M51 180v78l506 897l80 -43l-469 -846h483v482l97 -9v-473h194v-86h-194v-317h-99v317h-598z" />
<glyph unicode="5" horiz-adv-x="1009" d="M55 -6l68 74q142 -148 360 -148q46 0 90 12t86.5 38.5t74.5 64.5t51.5 96t19.5 127q0 74 -18 132t-47 93.5t-69 59t-80 32.5t-83 9q-64 0 -122 -17t-87.5 -34t-79.5 -50l-84 39l39 631h549q17 0 23 4t12 19l28 110l70 6v-225h-592l-31 -479q124 88 287 88q179 0 286 -108 t107 -312q0 -116 -49.5 -211.5t-150.5 -155t-236 -59.5q-130 0 -240.5 44t-181.5 120z" />
<glyph unicode="6" horiz-adv-x="1040" d="M109 649q0 60 5 118.5t20 126t38 126t62 114t89.5 95t123.5 63t161 23.5q42 0 80.5 -6t80.5 -24t72.5 -47t50 -79t19.5 -115l-98 -12q0 110 -55 152.5t-168 42.5q-69 0 -126 -22.5t-95.5 -59.5t-68.5 -87.5t-47.5 -102.5t-28 -110t-13.5 -105t-2 -91q70 63 167.5 108.5 t201.5 45.5q93 0 163.5 -32.5t112 -88.5t62 -124.5t20.5 -147.5q0 -196 -100 -315.5t-301 -119.5q-75 0 -136.5 20t-105 54.5t-76.5 85.5t-53 107.5t-33 126.5t-17.5 136.5t-4.5 143.5zM211 543q1 -36 4 -70.5t12 -85.5t23 -94t39 -88.5t57.5 -77t81.5 -52t109 -20.5 q140 0 218.5 90.5t78.5 255.5q0 312 -265 312q-105 0 -205.5 -52.5t-152.5 -117.5z" />
<glyph unicode="7" horiz-adv-x="983" d="M111 852v301h850v-74q-113 -108 -230 -328.5t-193 -467.5t-75 -420h-105q17 199 66.5 386.5t121 338.5t143 265.5t151.5 213.5h-588q-14 0 -19 -1t-9.5 -6t-6.5 -16l-41 -188z" />
<glyph unicode="8" horiz-adv-x="995" d="M94 299q0 63 21.5 121t64 109.5t86.5 92t107 87.5q-223 122 -223 305q0 100 50 171t131 103.5t183 32.5q174 0 265 -77.5t91 -199.5q0 -51 -19.5 -102.5t-56.5 -100t-72.5 -86t-84.5 -81.5q46 -25 81 -47t72.5 -55t62 -67.5t40.5 -82t16 -100.5q0 -163 -114 -255 t-299 -92q-172 0 -287 86.5t-115 237.5zM195 309q0 -122 85.5 -186t231.5 -64q134 0 215.5 70.5t81.5 185.5q0 46 -11 85.5t-36 71.5t-52.5 57t-72.5 51t-83.5 44t-98.5 44q-131 -93 -195.5 -177.5t-64.5 -181.5zM248 1026q0 -47 17 -87t41.5 -69t69 -59t83 -50t100.5 -48 q94 79 151.5 159t57.5 172q0 47 -14.5 82t-38.5 56t-59.5 34t-72 18t-81.5 5q-111 0 -182.5 -54.5t-71.5 -158.5z" />
<glyph unicode="9" horiz-adv-x="1107" d="M135 745q0 197 106 318t308 121q78 0 140 -20t105 -53.5t75 -85.5t50.5 -107t29.5 -127t14.5 -137t3.5 -146q0 -66 -3 -121.5t-14 -127.5t-30 -129t-53 -115.5t-80.5 -97t-115.5 -63t-155 -24.5q-231 0 -358 119l59 71q121 -104 301 -104q68 0 122.5 22.5t90.5 57.5 t63 86.5t41 101t22 109t10 102.5t1 90q-167 -163 -374 -163q-95 0 -166 34t-112 94t-61 133.5t-20 161.5zM238 758q0 -164 64 -255t198 -91q59 0 117.5 18.5t106 49.5t81.5 59t61 57q-2 40 -3.5 64t-6 70t-11 76t-19 72t-28.5 70.5t-40.5 59.5t-55 49.5t-71.5 30.5t-90 12 q-143 0 -223 -88t-80 -254z" />
<glyph unicode=":" horiz-adv-x="421" d="M117 82q0 52 28 79t78 27q109 0 109 -106q0 -53 -28.5 -80t-80.5 -27q-51 0 -78.5 27t-27.5 80zM117 889q0 52 28 79t78 27q109 0 109 -106q0 -53 -28.5 -80t-80.5 -27q-51 0 -78.5 27t-27.5 80z" />
<glyph unicode=";" horiz-adv-x="358" d="M84 55l43 125q91 -7 130.5 -28t39.5 -76q0 -40 -25 -88l-122 -226l-62 25l68 219q3 15 -11 21zM96 889q0 52 28.5 79t78.5 27q108 0 108 -106q0 -107 -108 -107q-51 0 -79 27t-28 80z" />
<glyph unicode="&#x3c;" d="M190 524v119l738 336l45 -94l-680 -299l690 -281l-35 -90z" />
<glyph unicode="=" d="M211 381v106h750v-106h-750zM211 676v106h750v-106h-750z" />
<glyph unicode="&#x3e;" d="M190 305l691 281l-680 299l45 94l737 -336v-119l-758 -309z" />
<glyph unicode="?" horiz-adv-x="909" d="M76 1202v217q18 8 57.5 20.5t122 28t158.5 15.5q96 0 170 -19.5t131.5 -62t88 -117t30.5 -178.5q0 -398 -449 -463v-276h-94v354q79 7 141 21.5t119 41.5t94.5 66t59.5 98.5t22 136.5q0 60 -9.5 107.5t-25 80t-40.5 56.5t-50.5 37t-61.5 21t-67.5 10t-73.5 2 q-130 0 -200 -25q-21 -7 -26.5 -15t-10.5 -32l-23 -125h-63zM238 82q0 106 106 106q50 0 78.5 -27t28.5 -79q0 -53 -28 -80t-79 -27q-106 0 -106 107z" />
<glyph unicode="@" horiz-adv-x="1679" d="M104 367q0 229 100.5 409t283.5 280.5t417 100.5q198 0 351.5 -74.5t243 -222.5t89.5 -350q0 -146 -29.5 -254t-83.5 -169.5t-121 -90.5t-149 -29q-102 0 -151 47.5t-51 124.5q-49 -43 -74 -64t-68.5 -51.5t-83.5 -43.5t-82 -13q-202 0 -202 273q0 153 51 279.5t151 204 t230 77.5q120 0 252 -66l-62 -395q-22 -145 -22 -186q0 -67 34.5 -90t106.5 -23q30 0 60 8t68.5 36.5t67 74t48.5 129.5t20 194q0 285 -157.5 439.5t-450.5 154.5q-200 0 -357 -89.5t-244 -250.5t-87 -366q0 -170 48 -298t136.5 -205t206 -115t264.5 -38q175 0 354 66 l27 -78q-171 -70 -395 -70q-164 0 -298 45.5t-233.5 134.5t-154 230t-54.5 324zM594 256q0 -45 4 -76t16 -60.5t36 -44t61 -14.5q65 0 151.5 59.5t145.5 129.5l63 422q-68 45 -164 45q-86 0 -158.5 -63t-113.5 -168.5t-41 -229.5z" />
<glyph unicode="A" horiz-adv-x="1396" d="M23 0v74l88 22q39 8 49 39l458 1348h144l469 -1354q6 -17 15 -23.5t30 -11.5l96 -22v-72h-409v72l170 18l-134 408h-618l-135 -408l166 -18v-72h-389zM414 588h551l-275 819z" />
<glyph unicode="B" horiz-adv-x="1370" d="M158 0v68l129 14q21 3 26.5 10t5.5 31v1235q0 24 -5.5 32t-26.5 9l-129 14v70h557q127 0 216 -27.5t137 -79t68.5 -113.5t20.5 -143q0 -134 -72.5 -219.5t-181.5 -126.5q172 -20 263 -120t91 -257q0 -111 -38.5 -189.5t-112.5 -123t-169.5 -64.5t-221.5 -20h-557zM416 86 h297q80 0 140 6.5t119.5 26t97 52.5t60.5 89.5t23 134.5q0 159 -108 240.5t-283 81.5h-346v-631zM416 803h248q56 0 106.5 8t102.5 29.5t89.5 55.5t61 90t23.5 128q0 153 -83 219t-270 66h-278v-596z" />
<glyph unicode="C" horiz-adv-x="1392" d="M123 764q0 160 45.5 294.5t133 235.5t225.5 158t313 57q138 0 253.5 -28.5t188.5 -77.5v-275l-78 5l-35 190q0 1 -1 4q-1 8 -2 12.5t-6.5 10.5t-16.5 10q-142 57 -314 57q-277 0 -439.5 -173.5t-162.5 -483.5q0 -335 156 -513.5t432 -178.5q232 0 344 55q19 10 25 33 l33 180h69v-256q-73 -53 -200 -79t-277 -26q-145 0 -260 38t-194 107t-131.5 168t-76.5 217t-24 259z" />
<glyph unicode="D" horiz-adv-x="1591" d="M158 0v68l129 14q21 3 26.5 10t5.5 31v1235q0 24 -5.5 32t-26.5 9l-129 14v70h575q374 0 554.5 -188t180.5 -531q0 -173 -46.5 -311.5t-139 -240.5t-241 -157t-343.5 -55h-540zM418 86h301q309 0 477 168t168 475q0 153 -29.5 268.5t-82 191.5t-133 123.5t-174.5 67 t-214 19.5h-313v-1313z" />
<glyph unicode="E" horiz-adv-x="1306" d="M158 0v68l129 14q21 3 26.5 10t5.5 31v1235q0 24 -5.5 32t-26.5 9l-129 14v70h985v-281l-80 4l-29 166q-3 15 -10.5 21t-24.5 6h-581v-606h594v-84h-594v-623h626q18 0 24 4t9 19l33 180h78v-289h-1030z" />
<glyph unicode="F" horiz-adv-x="1228" d="M158 0v72l129 14q21 3 26.5 10t5.5 31v1231q0 24 -5.5 32t-26.5 9l-129 14v70h977v-281l-80 4l-29 166q-3 15 -10.5 21t-24.5 6h-573v-600h586v-84h-586v-586q0 -25 5 -31.5t28 -9.5l301 -16v-72h-594z" />
<glyph unicode="G" horiz-adv-x="1544" d="M123 756q0 163 45.5 299.5t133 238t225 158.5t313.5 57q138 0 257.5 -29.5t192.5 -76.5v-277l-78 2l-36 195q0 26 -25 37q-145 57 -322 57q-277 0 -439.5 -173.5t-162.5 -491.5q0 -331 176.5 -507.5t481.5 -176.5q89 0 186.5 12t157.5 31q24 10 24 34v435h-313l18 86h512 v-78l-86 -8q-32 -3 -32 -23v-510q-79 -35 -206.5 -53.5t-256.5 -18.5q-201 0 -351 58t-239.5 164.5t-132.5 245.5t-43 313z" />
<glyph unicode="H" horiz-adv-x="1640" d="M158 0v72l129 14q21 3 26.5 10t5.5 31v1229q0 24 -5.5 32t-26.5 9l-129 14v72h430v-72l-137 -16q-23 -3 -28 -9t-5 -30v-545h805v545q0 24 -6 32t-27 9l-129 14v72h430v-72l-137 -16q-23 -3 -28 -9t-5 -30v-1227q0 -25 5 -31.5t28 -9.5l137 -16v-72h-430v72l129 14 q22 3 27.5 10.5t5.5 30.5v598h-805v-596q0 -25 5 -31.5t28 -9.5l137 -16v-72h-430z" />
<glyph unicode="I" horiz-adv-x="800" d="M168 0v72l149 14q22 5 27.5 11.5t5.5 29.5v1229q0 24 -6 32t-27 9l-149 14v72h473v-72l-158 -16q-23 -3 -27.5 -9t-4.5 -30v-1227q0 -25 4.5 -31.5t27.5 -9.5l158 -16v-72h-473z" />
<glyph unicode="J" horiz-adv-x="1013" d="M133 39v225l80 -4l20 -137q4 -21 25 -29q71 -37 180 -37q119 0 162 56.5t43 185.5v1059q0 22 -6.5 30t-26.5 9l-168 14v72h469v-72l-137 -16q-23 -3 -28 -9t-5 -28v-1079q0 -157 -72.5 -230.5t-230.5 -73.5q-102 0 -186 21.5t-119 42.5z" />
<glyph unicode="K" horiz-adv-x="1480" d="M158 0v72l129 14q21 3 26.5 10t5.5 31v1229q0 24 -5.5 32t-26.5 9l-129 14v72h430v-72l-137 -16q-23 -3 -28 -9t-5 -30v-654l643 691l-127 16v74h395v-72l-117 -22q-26 -4 -35.5 -9.5t-25.5 -21.5l-487 -518l565 -715q14 -19 22 -24t37 -9l121 -20v-72h-463v76l189 16 l-541 678l-176 -186v-455q0 -25 5 -31.5t28 -9.5l137 -16v-72h-430z" />
<glyph unicode="L" horiz-adv-x="1261" d="M158 0v68l129 14q21 3 26.5 10t5.5 31v1231q0 24 -5.5 32t-26.5 9l-129 14v74h463v-74l-170 -16q-22 -1 -27.5 -8.5t-5.5 -30.5v-1268h626q18 0 24 4t9 19l33 174h78v-283h-1030z" />
<glyph unicode="M" horiz-adv-x="1921" d="M158 0v72l129 14q21 3 26.5 10t5.5 31v1227q0 24 -5.5 32t-26.5 9l-129 14v74h288l523 -979l526 979h277v-72l-138 -16q-23 -3 -27.5 -9t-4.5 -30v-1229q0 -21 6 -28.5t26 -10.5l138 -16v-72h-472v72l170 14q22 5 27.5 11.5t5.5 29.5v1178l-499 -914h-74l-514 942v-1204 q0 -25 5 -31.5t28 -9.5l178 -16v-72h-469z" />
<glyph unicode="N" horiz-adv-x="1695" d="M158 0v72l129 14q21 3 26.5 10t5.5 31v1227q0 23 -5 30t-27 11l-129 14v74h319l811 -1356v1229q0 23 -5.5 29.5t-27.5 11.5l-129 14v72h430v-72l-137 -16q-23 -3 -28 -9t-5 -30v-1356h-133l-835 1380v-1251q0 -25 5 -31.5t28 -9.5l137 -16v-72h-430z" />
<glyph unicode="O" horiz-adv-x="1611" d="M127 737q0 170 46 311t133 244t221 160t302 57q132 0 241.5 -36.5t187 -102.5t131 -158t79 -201.5t25.5 -234.5q0 -370 -179 -585.5t-513 -215.5q-169 0 -299 57.5t-211.5 160.5t-122.5 240.5t-41 303.5zM233 737q0 -318 153 -496t421 -178t426 179t158 514 q0 314 -152.5 489.5t-413.5 175.5q-267 0 -429.5 -180.5t-162.5 -503.5z" />
<glyph unicode="P" horiz-adv-x="1357" d="M158 0v72l129 14q21 3 26.5 10t5.5 31v1231q0 24 -5.5 32t-26.5 9l-129 14v70h590q111 0 196.5 -23t141 -62t91 -95.5t50 -119t14.5 -136.5q0 -128 -38.5 -219.5t-113 -146t-175 -79t-234.5 -24.5h-264v-449q0 -26 5.5 -33.5t27.5 -7.5l292 -16v-72h-583zM416 662h268 q84 0 147 8.5t122.5 33.5t97.5 67t61 111.5t23 164.5q0 176 -98.5 264t-317.5 88h-303v-737z" />
<glyph unicode="Q" horiz-adv-x="1601" d="M123 758q0 218 79 385.5t239.5 266.5t383.5 99q132 0 241 -37t185.5 -102.5t129 -157.5t77.5 -201.5t25 -234.5q0 -231 -69.5 -403.5t-209.5 -276t-340 -119.5q-6 -47 -6 -100q0 -70 28.5 -105.5t108.5 -35.5q69 0 129 26l27 -77q-22 -11 -63.5 -22t-81.5 -11 q-136 0 -193 55t-57 182q0 49 4 86q-161 7 -284 67t-199.5 164.5t-115 243t-38.5 308.5zM229 754q0 -330 151 -510.5t423 -180.5q266 0 421.5 179t155.5 514q0 315 -150 490t-411 175q-129 0 -237.5 -45t-186.5 -129t-122 -210.5t-44 -282.5z" />
<glyph unicode="R" horiz-adv-x="1425" d="M158 0v72l129 14q21 3 26.5 10t5.5 31v1231q0 24 -5.5 32t-26.5 9l-129 14v70h575q107 0 188.5 -23t130.5 -59.5t80 -88.5t42.5 -103t11.5 -109q0 -164 -85.5 -269.5t-228.5 -140.5q35 -16 59 -43t37 -52.5t38 -86.5l159 -379q12 -24 39 -29l148 -26v-74h-459v76l180 20 l-182 432q-30 71 -70 100t-102 29h-303v-528q0 -25 5 -31.5t28 -9.5l143 -16v-72h-434zM416 741h252q91 0 163 18t129.5 57t89 108.5t31.5 165.5q0 90 -28.5 152.5t-82 95.5t-118.5 47t-150 14h-286v-658z" />
<glyph unicode="S" horiz-adv-x="1185" d="M129 49v287h70l39 -180q1 -4 2.5 -11.5l2 -10t2.5 -7t4 -6.5t6.5 -5t10.5 -5q131 -45 279 -45q186 0 291.5 78t105.5 235q0 37 -7 70t-18 58.5t-31 49t-38 40t-47.5 33.5t-52 27.5t-59.5 24t-61 21t-64.5 20t-63.5 20.5q-75 24 -129 51t-104 70.5t-75.5 108t-25.5 149.5 q0 100 38 176t106.5 121.5t155.5 67.5t191 22q167 0 353 -61v-313l-76 10l-43 201q-7 28 -23 36q-71 37 -219 37q-185 0 -279 -77.5t-94 -213.5q0 -39 7.5 -72.5t24 -60.5t34 -48t47.5 -40t53.5 -32t63 -27.5t65 -23t70.5 -22.5t70 -22q60 -20 105.5 -40t92 -53t76.5 -73.5 t49 -100t19 -132.5q0 -110 -41 -190.5t-114.5 -126.5t-163.5 -67.5t-199 -21.5q-128 0 -242 24t-164 50z" />
<glyph unicode="T" horiz-adv-x="1290" d="M66 1194v289h1163v-289h-76l-33 182q-3 15 -9 19t-24 4h-393v-1270q0 -23 5.5 -30.5t27.5 -8.5l225 -16v-74h-600v74l211 14q21 1 27 9t6 32v1270h-389q-18 0 -24 -4t-9 -19l-33 -182h-75z" />
<glyph unicode="U" horiz-adv-x="1617" d="M139 1411v72h430v-72l-137 -16q-23 -3 -28 -9t-5 -30v-891q0 -219 104.5 -311.5t303.5 -92.5q203 0 307.5 92t104.5 310v893q0 24 -6 32t-27 9l-129 14v72h430v-72l-137 -16q-23 -3 -28 -9t-5 -30v-887q0 -246 -132 -370t-390 -124q-260 0 -377 125t-117 369v887 q0 24 -6 32t-27 9z" />
<glyph unicode="V" horiz-adv-x="1357" d="M4 1411l21 72h393v-72l-172 -18l444 -1315l414 1315l-166 18l20 72h373v-72l-86 -22q-42 -10 -51 -39l-436 -1350h-142l-471 1354q-5 17 -15.5 23.5t-33.5 11.5z" />
<glyph unicode="W" horiz-adv-x="1961" d="M23 1411l20 72h434v-72l-188 -20l323 -1260l318 1034h119l315 -1059l324 1285l-193 20l21 72h423v-72l-112 -18q-21 -3 -28 -10t-13 -31l-359 -1352h-120l-322 1061l-328 -1061h-104l-358 1352q-5 21 -12.5 28.5t-28.5 10.5z" />
<glyph unicode="X" horiz-adv-x="1325" d="M39 0v68l96 22q32 8 51 39l398 631l-367 594q-10 17 -20 23.5t-29 11.5l-90 22l20 72h365v-72l-150 -18l336 -555l352 555l-143 18l21 72h342v-72l-82 -22q-36 -9 -52 -39l-370 -586l413 -635q16 -27 50 -35l102 -22v-72h-395v72l149 18l-387 598l-377 -598l146 -18v-72 h-379z" />
<glyph unicode="Y" horiz-adv-x="1185" d="M-2 1411l20 72h367v-72l-149 -18l370 -707l359 707l-144 18l21 72h346v-72l-86 -22q-36 -11 -51 -39l-398 -756v-465q0 -25 5 -31.5t28 -9.5l193 -16v-72h-547v72l188 14q21 1 27 9t6 32v461l-414 766q-15 27 -49 35z" />
<glyph unicode="Z" horiz-adv-x="1280" d="M102 0v68l914 1331h-733q-18 0 -24 -4t-9 -19l-39 -194l-78 -6v307h1008v-72l-910 -1325h773q17 0 23 4t9 19l41 221h74v-330h-1049z" />
<glyph unicode="[" horiz-adv-x="468" d="M147 -293v1776h263v-74l-138 -14q-24 -3 -28 -8t-4 -31v-1518q0 -27 4 -32.5t28 -8.5l138 -14v-76h-263z" />
<glyph unicode="\" horiz-adv-x="694" d="M10 1546h90l576 -1734h-92z" />
<glyph unicode="]" horiz-adv-x="468" d="M61 -217l138 14q24 3 28 8t4 29v1518q0 29 -4 34.5t-28 8.5l-138 14v74h261v-1776h-261v76z" />
<glyph unicode="^" horiz-adv-x="1040" d="M61 612l404 748h104l410 -748h-105l-360 654l-352 -654h-101z" />
<glyph unicode="_" horiz-adv-x="1024" d="M0 -293h1024v-78h-1024v78z" />
<glyph unicode="`" horiz-adv-x="1024" d="M315 1450l88 92l320 -321l-51 -52z" />
<glyph unicode="a" horiz-adv-x="1083" d="M113 242q0 149 89.5 219t274.5 86l307 26v123q0 78 -9.5 126t-36.5 85t-77 52.5t-129 15.5q-39 0 -61.5 -0.5t-54.5 -4.5t-50.5 -11t-40 -20t-32.5 -32t-19 -48t-8 -66l-98 14q0 67 25 115.5t60.5 74.5t88.5 41.5t95.5 19t94.5 3.5q204 0 278.5 -75t74.5 -281v-578 q0 -25 5 -31.5t28 -9.5l108 -14v-72h-221l-19 150q-93 -86 -187.5 -130.5t-205.5 -44.5q-73 0 -127 20t-82.5 47.5t-45.5 67t-21 69.5t-4 63zM219 254q0 -99 47.5 -146t143.5 -47q108 0 205.5 56.5t168.5 136.5v235l-297 -26q-153 -13 -210.5 -63t-57.5 -146z" />
<glyph unicode="b" horiz-adv-x="1193" d="M70 1481l16 65h240v-624q102 67 190.5 103t190.5 36q181 0 280.5 -122t99.5 -374q0 -305 -114 -447.5t-320 -142.5q-182 0 -331 129l-15 -104h-102q20 158 20 289v1110q0 35 -26 43zM326 217q63 -69 149.5 -111.5t171.5 -42.5q182 0 260 124t78 362q0 100 -15.5 175.5 t-41.5 122t-64 75t-77.5 39t-88.5 10.5q-173 0 -372 -146v-608z" />
<glyph unicode="c" horiz-adv-x="960" d="M100 510q0 144 38 251.5t108.5 172t163 96t208.5 31.5q34 0 68.5 -3t59.5 -7t52 -10t41.5 -10t33.5 -10t22 -7v-234l-80 6l-24 142q-2 10 -6 15t-17 9q-67 23 -168 23q-85 0 -155 -26.5t-124.5 -80.5t-85 -145t-30.5 -211q0 -222 101.5 -334t283.5 -112q75 0 150.5 21.5 t127.5 55.5l39 -80q-49 -35 -143.5 -61.5t-183.5 -26.5q-124 0 -217.5 40t-150 113t-84.5 168.5t-28 213.5z" />
<glyph unicode="d" horiz-adv-x="1202" d="M106 492q0 288 114 428.5t317 140.5q174 0 327 -125v467q0 32 -26 41l-127 39l16 63h242v-1419q0 -25 4.5 -31.5t27.5 -9.5l109 -14v-72h-225l-13 145q-88 -81 -176.5 -125.5t-203.5 -44.5q-181 0 -283.5 125.5t-102.5 391.5zM209 496q0 -435 291 -435q109 0 195.5 52 t168.5 145v573q-60 60 -151 102t-191 42q-160 0 -236.5 -126t-76.5 -353z" />
<glyph unicode="e" horiz-adv-x="1028" d="M100 524q0 134 34 238t95 168.5t141 97.5t175 33q183 0 290 -115t107 -362q0 -22 -4 -76h-735q2 -99 23.5 -177.5t64.5 -139t115 -93t169 -32.5q95 0 163.5 19t135.5 58l39 -80q-133 -88 -342 -88q-105 0 -186.5 28t-134.5 77t-87 119.5t-48.5 150t-14.5 174.5zM209 590 h627q-3 196 -81.5 289.5t-211.5 93.5q-141 0 -231 -89.5t-103 -293.5z" />
<glyph unicode="f" horiz-adv-x="788" d="M100 0v74l142 12q21 1 26.5 9t5.5 32v809q0 8 -0.5 11t-4 6t-11.5 3h-156v84h172v191q0 338 332 338q61 0 105.5 -9t82 -31t57 -64.5t19.5 -104.5l-96 -14q0 80 -41 107.5t-131 27.5q-130 0 -178.5 -66.5t-48.5 -200.5v-153q0 -7 0.5 -9.5t1.5 -6t4.5 -4.5t9.5 -1h346 v-84h-362v-829q0 -26 5 -33t28 -8l233 -14v-72h-541z" />
<glyph unicode="g" horiz-adv-x="1079" d="M76 -209q0 76 38.5 136.5t118.5 135.5q-100 6 -100 80q0 34 37 99l88 151q-63 41 -101 116.5t-38 170.5q0 176 113.5 278.5t310.5 102.5q95 0 170 -21h350v-86l-197 -14q84 -90 84 -231q0 -184 -116 -285.5t-302 -101.5q-120 0 -200 34l-99 -200l461 -37 q187 -15 267.5 -72t80.5 -186q0 -153 -127 -237.5t-387 -84.5q-244 0 -348 64t-104 188zM184 -188q0 -99 83.5 -142t293.5 -43q102 0 176.5 18.5t116 51.5t61 73.5t19.5 88.5q0 87 -60 122.5t-186 43.5l-352 24q-31 -29 -50 -49t-46.5 -53.5t-41.5 -67.5t-14 -67zM221 686 q0 -127 76.5 -205t241.5 -78q142 0 226.5 80.5t84.5 204.5q0 141 -79 217t-228 76q-148 0 -235 -76t-87 -219z" />
<glyph unicode="h" horiz-adv-x="1296" d="M96 1481l15 65h241v-651q72 56 121 87t120 55t148 24q82 0 140 -18.5t102 -63.5t65 -124.5t21 -197.5v-530q0 -25 5 -31.5t28 -9.5l127 -14v-72h-404v74l113 12q23 4 26 8.5t3 28.5v539q0 168 -59 238.5t-177 70.5q-58 0 -121 -20t-114 -49.5t-88 -57t-58 -49.5v-668 q0 -25 5 -31.5t28 -9.5l129 -14v-72h-406v74l111 12q22 3 27.5 10.5t5.5 30.5v1272q0 35 -27 43z" />
<glyph unicode="i" horiz-adv-x="579" d="M59 0v74l158 12q22 5 27.5 11.5t5.5 29.5v766q0 35 -27 43l-121 39l15 65h233v-913q0 -25 5 -31.5t28 -9.5l154 -14v-72h-478zM178 1407q0 44 24.5 67t69.5 23t71 -23.5t26 -66.5q0 -42 -26 -65t-71 -23t-69.5 23t-24.5 65z" />
<glyph unicode="j" horiz-adv-x="548" d="M-143 -375l55 78q35 -27 85 -48.5t101 -21.5q91 0 119.5 50.5t28.5 169.5v1040q0 23 -4 31t-19 12l-145 39l14 65h254v-1204q0 -153 -58.5 -223t-193.5 -70q-138 0 -237 82zM178 1407q0 44 25 67t71 23q45 0 70 -23t25 -67q0 -42 -25 -65t-70 -23q-46 0 -71 22.5 t-25 65.5z" />
<glyph unicode="k" d="M72 0v74l145 12q22 5 27.5 11.5t5.5 29.5v1272q0 35 -27 43l-127 39l15 65h239v-1077l477 571h189v-67l-125 -29q-32 -10 -51 -31l-213 -249l346 -537q12 -19 21 -23.5t38 -9.5l113 -22v-72h-389v76l127 16l-322 492l-211 -250v-207q0 -25 5 -31.5t28 -9.5l141 -14v-72 h-452z" />
<glyph unicode="l" horiz-adv-x="579" d="M72 0v74l145 12q21 1 27 9t6 32v1272q0 35 -27 43l-127 39l15 65h239v-1419q0 -25 5 -31.5t28 -9.5l141 -14v-72h-452z" />
<glyph unicode="m" horiz-adv-x="1900" d="M102 977l15 63h213l14 -141q201 162 399 162q109 0 163.5 -40t80.5 -108q100 69 188 108.5t193 39.5q89 0 150 -27.5t93.5 -82t46 -122.5t13.5 -163v-539q0 -25 5 -31.5t28 -9.5l127 -14v-72h-404v74l113 12q23 4 26 8.5t3 28.5v530q0 176 -45.5 248t-171.5 72 q-168 0 -342 -137q12 -62 12 -146v-563q0 -25 5 -31.5t28 -9.5l110 -14v-72h-377v74l103 12q23 4 26 8.5t3 28.5v539q0 184 -40.5 247.5t-156.5 63.5q-63 0 -126 -19t-112 -48.5t-80.5 -53.5t-54.5 -47v-678q0 -25 5 -31.5t28 -9.5l133 -14v-72h-410v74l111 12 q22 3 27.5 10.5t5.5 30.5v768q0 35 -27 43z" />
<glyph unicode="n" horiz-adv-x="1296" d="M102 975l15 65h211l18 -141q95 73 193.5 117.5t216.5 44.5q173 0 243 -101t70 -301v-532q0 -25 5 -31.5t28 -9.5l127 -14v-72h-404v74l113 12q23 4 26 8.5t3 28.5v498q0 137 -27.5 215t-76 106.5t-128.5 28.5q-61 0 -126.5 -20.5t-117 -50t-87.5 -56t-54 -45.5v-672 q0 -25 5 -31.5t28 -9.5l129 -14v-72h-406v74l111 12q22 3 27.5 10.5t5.5 30.5v766q0 35 -27 43z" />
<glyph unicode="o" horiz-adv-x="1144" d="M100 522q0 247 124 393t366 146q120 0 209.5 -38.5t142.5 -109.5t79 -164t26 -210q0 -264 -119.5 -414t-358.5 -150q-121 0 -212 40.5t-146.5 114.5t-83 172.5t-27.5 219.5zM203 520q0 -219 95 -340t277 -121q181 0 274 119.5t93 343.5q0 453 -356 453q-185 0 -284 -118 t-99 -337z" />
<glyph unicode="p" horiz-adv-x="1210" d="M94 975l15 65h206l17 -129q1 1 29 19t37.5 24t40.5 23.5t49.5 25.5t51.5 21.5t60 20t61.5 11.5t67.5 5q377 0 377 -520q0 -86 -10.5 -161.5t-40.5 -152t-76.5 -130.5t-124.5 -88t-180 -34q-75 0 -149 26t-112.5 50.5t-68.5 50.5v-411q0 -26 5 -33t28 -8l178 -12v-72h-432 v74l86 12q22 3 27.5 10.5t5.5 30.5v1200q0 35 -27 43zM344 213q62 -64 150 -107t184 -43q173 0 249.5 124.5t76.5 361.5q0 121 -21.5 205.5t-62.5 130.5t-92.5 66t-120.5 20q-93 0 -196.5 -48.5t-166.5 -99.5v-610z" />
<glyph unicode="q" horiz-adv-x="1161" d="M109 489q0 287 111.5 429.5t307.5 142.5q189 0 346 -121l21 100h96q-20 -160 -20 -249v-1098q0 -23 5.5 -30.5t27.5 -10.5l106 -12v-74h-416v72l135 14q23 1 28 7.5t5 33.5v448q-152 -166 -366 -166q-387 0 -387 514zM209 498q0 -126 23 -215t66 -136.5t92.5 -67.5 t113.5 -20q105 0 187.5 48.5t176.5 152.5v580q-55 57 -148.5 97t-193.5 40q-161 0 -239 -126.5t-78 -352.5z" />
<glyph unicode="r" horiz-adv-x="849" d="M102 975l15 65h209l18 -133q85 72 160 113t160 41q54 0 124 -19v-262l-73 6l-29 168q-1 8 -2 10t-6 4.5t-16 2.5q-81 0 -169 -52.5t-143 -111.5v-682q0 -25 5 -30.5t28 -10.5l182 -12v-72h-459v74l111 12q22 3 27.5 10.5t5.5 30.5v766q0 35 -27 43z" />
<glyph unicode="s" horiz-adv-x="903" d="M80 41v233l76 -4l22 -143q4 -19 23 -25q119 -41 239 -41q125 0 195 51t70 156q0 41 -15 73t-35.5 52.5t-58.5 38t-67.5 26.5t-77.5 21q-143 37 -197 63q-123 60 -137 187q-2 19 -2 39q0 63 22 114t59 84t87 55t102.5 31t110.5 9q88 0 166.5 -18t115.5 -35v-242l-76 6 l-24 152q-3 17 -23 26q-78 27 -182 27q-131 0 -194.5 -57.5t-63.5 -143.5q0 -40 15.5 -72t36.5 -51.5t61.5 -37t69.5 -26.5t81 -22q33 -9 53 -14.5t51.5 -15.5t51.5 -19t46.5 -23.5t43 -29.5t34.5 -36t28.5 -44t17 -53t6.5 -64q0 -81 -33 -140t-89.5 -91.5t-120.5 -47 t-138 -14.5q-103 0 -206.5 23.5t-143.5 42.5z" />
<glyph unicode="t" horiz-adv-x="800" d="M70 956v62q56 8 88.5 21t54.5 44.5t33 74.5t22 122h72v-219q0 -6 0.5 -8.5t1.5 -6t4.5 -5t9.5 -1.5h308v-84h-324v-698q0 -102 37.5 -148.5t126.5 -46.5q80 0 198 50l31 -80q-123 -58 -246 -58q-121 0 -185 62t-64 172v727q0 11 -3 15.5t-14 4.5h-151z" />
<glyph unicode="u" horiz-adv-x="1280" d="M96 977l15 63h229v-669q0 -163 45.5 -237.5t169.5 -74.5q188 0 397 209v625q0 27 -5 36t-27 13l-117 35l12 63h238v-911q0 -23 5 -32t19 -11l117 -14v-72h-227l-15 162q-196 -187 -417 -187q-85 0 -143.5 26.5t-91 78.5t-46.5 118.5t-14 157.5v535q0 27 -5.5 37t-27.5 14 z" />
<glyph unicode="v" horiz-adv-x="1122" d="M23 971l18 69h354v-69l-147 -17l327 -860l322 860l-141 17l20 69h322v-69l-64 -13q-17 -4 -24.5 -6.5t-14.5 -9t-12 -18.5l-354 -924h-115l-360 918q-3 12 -9 18.5t-12.5 9t-21.5 6.5z" />
<glyph unicode="w" horiz-adv-x="1667" d="M23 971l18 69h354v-69l-141 -17l276 -858l258 914h132l247 -908l263 852l-144 17l19 69h337v-69l-73 -13q-29 -4 -38 -11.5t-15 -28.5q-85 -292 -149.5 -470t-145.5 -448h-127l-242 907l-262 -907h-125l-311 918q-4 12 -10 18.5t-12 9t-21 6.5z" />
<glyph unicode="x" horiz-adv-x="1136" d="M18 0v72l119 24q24 4 47 33l308 410l-281 374q-21 26 -49 35l-94 23l20 69h356v-69l-145 -17l260 -346l266 346l-143 17l20 69h353v-69l-99 -21q-27 -9 -51 -39l-289 -366l316 -412q15 -19 25 -26.5t28 -10.5l131 -24v-72h-424v72l150 18l-289 381l-281 -381l146 -18v-72 h-400z" />
<glyph unicode="y" horiz-adv-x="1138" d="M23 971l18 69h350v-69l-141 -17l319 -809l328 809l-143 17l18 69h342v-69l-70 -10q-21 -3 -32.5 -10.5t-18.5 -24.5l-532 -1272l188 -16v-72h-467v74l146 14q17 1 24 9.5t17 33.5l141 330l-360 888q-7 18 -15.5 24t-28.5 11z" />
<glyph unicode="z" horiz-adv-x="956" d="M84 0v66l664 886h-500q-19 0 -23 -26l-24 -148l-80 -4v266h764v-67l-666 -885h537q18 0 22 27l25 166l80 6v-287h-799z" />
<glyph unicode="{" horiz-adv-x="536" d="M18 545v92q42 0 73 7.5t60.5 27.5t45.5 62.5t16 105.5q0 58 -13.5 205.5t-13.5 203.5q0 116 64.5 167.5t210.5 72.5l20 -84q-40 -9 -58.5 -13.5t-45.5 -12t-37.5 -14t-25 -17t-19 -23t-8.5 -29t-4 -39.5q0 -53 12 -200.5t12 -222.5q0 -62 -12 -107t-35.5 -71t-45.5 -40 t-54 -26q33 -12 54.5 -25.5t45 -39.5t35.5 -70.5t12 -106.5q0 -76 -12 -219t-12 -195q0 -73 36.5 -96.5t161.5 -50.5l-20 -84q-146 21 -210.5 72.5t-64.5 167.5q0 55 13.5 198t13.5 201q0 63 -16 105.5t-45.5 62.5t-60.5 27.5t-73 7.5z" />
<glyph unicode="|" horiz-adv-x="573" d="M242 -293v1839h90v-1839h-90z" />
<glyph unicode="}" horiz-adv-x="536" d="M18 -213q42 9 59 13t45 12t38 14t25 16.5t19.5 23t8.5 29t4 39.5q0 53 -12 201t-12 223q0 62 12 107t35.5 71t45.5 40t54 26q-33 12 -54.5 25.5t-45 39.5t-35.5 70.5t-12 106.5q0 76 12 219t12 194q0 73 -37 97t-162 51l21 84q146 -21 210 -72.5t64 -167.5 q0 -55 -13 -198t-13 -201q0 -51 11 -88.5t28.5 -59t44 -34.5t52 -17t58.5 -4v-92q-33 0 -58.5 -4t-52 -17t-44 -34.5t-28.5 -59t-11 -88.5q0 -58 13 -205.5t13 -203.5q0 -116 -64 -167.5t-210 -72.5z" />
<glyph unicode="~" horiz-adv-x="925" d="M33 618q26 47 43 72.5t43 52.5t58.5 38.5t74.5 11.5q81 0 240 -47.5t221 -47.5q21 0 36.5 6t25 13.5t19.5 26t15.5 31.5t15.5 42l76 -22q-10 -35 -17 -54.5t-22.5 -48t-32.5 -43t-45.5 -26t-64.5 -11.5q-79 0 -245.5 47.5t-223.5 47.5q-24 0 -42.5 -6.5t-37 -24.5 t-31 -34.5t-35.5 -51.5z" />
<glyph unicode="&#xa1;" horiz-adv-x="516" d="M174 954q0 53 28 80t79 27q106 0 106 -107q0 -106 -106 -106q-50 0 -78.5 27t-28.5 79zM223 -121l19 789h82l20 -789v-325h-121v325z" />
<glyph unicode="&#xa2;" horiz-adv-x="989" d="M131 565q0 234 108.5 358t290.5 146v211h91v-203q45 -1 85.5 -5t72.5 -10.5t52.5 -12t41.5 -12t24 -7.5v-237l-72 6l-22 135q-3 14 -7.5 19.5t-17.5 9.5q-69 21 -157 24v-827q113 0 163 20q13 4 17 10t6 17l24 139l74 6v-237q-132 -49 -284 -49v-203h-91v209 q-191 22 -295 146.5t-104 346.5zM233 578q0 -190 78 -291t219 -121v815q-139 -20 -218 -119.5t-79 -283.5z" />
<glyph unicode="&#xa3;" horiz-adv-x="1116" d="M63 635v86h179v162q0 204 98.5 318t310.5 114q70 0 122 -11.5t98 -40t70 -84.5t24 -139l-97 -12q0 114 -57.5 158.5t-169.5 44.5q-159 0 -230 -83.5t-71 -291.5v-135h426v-86h-426v-88q0 -88 -3 -138t-15.5 -111t-40.5 -110.5t-74 -99.5h616q14 0 19 1t9.5 6t6.5 16 l33 186h78v-297h-867l-22 76q40 35 68.5 69t46.5 73.5t28 69t14 80.5t4.5 83t0.5 98v49v37h-179z" />
<glyph unicode="&#xa4;" d="M16 96l199 199q-74 109 -74 280q0 151 78 263l-196 194l86 80l188 -190q119 106 301 106t297 -98l180 180l76 -76l-184 -188q69 -109 69 -262q0 -165 -86 -287l199 -197l-84 -77l-197 190q-120 -92 -286 -92q-181 0 -295 96l-193 -194zM254 575q0 -159 88.5 -260.5 t249.5 -101.5q153 0 241.5 102.5t88.5 259.5q0 166 -88 261.5t-248 95.5q-153 0 -242.5 -99.5t-89.5 -257.5z" />
<glyph unicode="&#xa5;" horiz-adv-x="1017" d="M-18 1204l20 72h369v-72l-156 -18l309 -477l297 477l-149 18l20 72h344v-72l-86 -22q-32 -8 -51 -39l-276 -436h227v-78h-279v-152h279v-78h-279v-270q0 -24 5.5 -32t27.5 -9l195 -16v-72h-547v72l197 14q14 0 18 9t4 30v274h-281v78h281v152h-281v78h224l-291 444 q-10 16 -18.5 21t-30.5 10z" />
<glyph unicode="&#xa6;" horiz-adv-x="573" d="M242 -293v795h90v-795h-90zM242 844v702h90v-702h-90z" />
<glyph unicode="&#xa7;" horiz-adv-x="1093" d="M170 516q0 156 160 272q-53 38 -80 85.5t-27 119.5q0 75 29 131.5t80 89t113.5 48.5t136.5 16q148 0 288 -53v-242l-82 4l-24 152q-5 19 -21 24q-84 29 -178 29q-64 0 -112 -16t-74.5 -43t-38.5 -57t-12 -64q0 -31 8 -57t19.5 -45t34 -36t40.5 -27t50.5 -22t53 -18 t59 -16.5t58.5 -16.5q60 -18 103.5 -37.5t85 -51.5t63 -80.5t21.5 -112.5q0 -85 -45 -154.5t-113 -118.5q104 -71 104 -205q0 -69 -21.5 -123.5t-55.5 -88t-81.5 -55t-95.5 -30t-100 -8.5q-92 0 -196 24.5t-138 41.5v245l80 -4l25 -151q4 -25 22 -31q115 -37 215 -37 q111 0 174.5 50t63.5 145q0 26 -5 48t-11.5 39.5t-21.5 33.5t-25 26.5t-33 22t-35.5 17.5t-41.5 15t-41.5 12.5t-46 12.5t-44.5 12q-50 13 -85.5 25.5t-76.5 35.5t-66 51t-42 72.5t-17 100.5zM279 526q0 -78 44.5 -124t133.5 -74q24 -8 70.5 -21t85.5 -25t71 -26 q60 38 93.5 98.5t33.5 137.5q0 47 -16 81.5t-48 57.5t-66 37t-85 28q-11 3 -42 10t-47.5 11.5t-42 12t-46.5 15.5q-66 -29 -102.5 -92.5t-36.5 -126.5z" />
<glyph unicode="&#xa8;" horiz-adv-x="1024" d="M217 1343q0 41 25.5 66t66.5 25q43 0 68.5 -25t25.5 -66t-25.5 -65.5t-68.5 -24.5q-41 0 -66.5 24.5t-25.5 65.5zM621 1343q0 41 25.5 66t66.5 25q42 0 68 -25t26 -66t-26 -65.5t-68 -24.5q-41 0 -66.5 24.5t-25.5 65.5z" />
<glyph unicode="&#xa9;" horiz-adv-x="1550" d="M100 625q0 205 91.5 360t244 234t342.5 79q312 0 492 -175t180 -470q0 -302 -187.5 -489t-488.5 -187q-164 0 -294 49.5t-212 137.5t-125 205.5t-43 255.5zM190 627q0 -267 157.5 -421.5t430.5 -154.5q270 0 427 159t157 431q0 186 -75.5 319.5t-206 199t-302.5 65.5 q-169 0 -301.5 -70t-209.5 -207t-77 -321zM414 645q0 179 101 288t290 109q117 0 229 -41v-206l-73 8l-19 106q-3 22 -22 29q-60 25 -136 25q-53 0 -99 -17t-85 -53.5t-61.5 -101t-22.5 -150.5q0 -143 72.5 -230t210.5 -87q62 0 121 22q11 6 18 19l31 127h63v-197 q-82 -49 -233 -49q-102 0 -177.5 29.5t-120 84.5t-66 125.5t-21.5 159.5z" />
<glyph unicode="&#xaa;" horiz-adv-x="747" d="M78 733q0 92 62 147t179 62l191 14v66q0 88 -30 125t-120 37q-32 0 -51.5 -1.5t-41.5 -7.5t-34.5 -17.5t-21.5 -32t-10 -50.5l-88 10q0 170 247 170q138 0 190 -48.5t52 -180.5v-356q0 -15 4 -20.5t19 -6.5l69 -10v-58h-168l-14 84q-103 -100 -242 -100 q-61 0 -102.5 18.5t-59.5 49t-24 55t-6 51.5zM172 745q0 -57 30 -85.5t83 -28.5q64 0 125 31t100 77v144l-174 -13q-92 -7 -128 -37t-36 -88z" />
<glyph unicode="&#xab;" horiz-adv-x="876" d="M145 535l183 301h110l-145 -277q-7 -13 -7.5 -20t5.5 -19l147 -309h-110zM453 535l182 301h110l-145 -277q-7 -13 -7.5 -20t5.5 -19l147 -309h-110z" />
<glyph unicode="&#xac;" d="M207 621v102h758v-301h-103v199h-655z" />
<glyph unicode="&#xad;" horiz-adv-x="636" d="M41 537v104h555v-104h-555z" />
<glyph unicode="&#xae;" horiz-adv-x="913" d="M82 969q0 170 107.5 272t267.5 102q173 0 273.5 -97.5t100.5 -262.5q0 -167 -104 -270t-272 -103q-180 0 -276.5 99.5t-96.5 259.5zM160 971q0 -136 80 -214.5t217 -78.5q138 0 218.5 80.5t80.5 218.5q0 142 -83 220.5t-216 78.5q-129 0 -213 -82t-84 -223zM293 786v35 l33 4q10 3 10 15v280q0 13 -8 17t-35 4v37h176q131 0 131 -111q0 -80 -80 -111q4 -1 7 -3t6.5 -6t5.5 -6.5t6 -9t6 -9.5l49 -82q5 -10 16 -13l37 -6v-35h-153v35l35 2l-60 103q-11 18 -35 18h-41v-106q0 -11 13 -13l32 -4v-35h-151zM399 993h39q46 0 70 16t24 58 q0 63 -77 63h-56v-137z" />
<glyph unicode="&#xaf;" horiz-adv-x="1024" d="M203 1270v96h616v-96h-616z" />
<glyph unicode="&#xb0;" horiz-adv-x="612" d="M109 1354q0 98 55.5 150t144.5 52t142 -50t53 -144t-51.5 -145.5t-143.5 -51.5q-94 0 -147 50t-53 139zM199 1354q0 -111 110 -111q107 0 107 119q0 117 -107 117q-110 0 -110 -125z" />
<glyph unicode="&#xb1;" d="M203 608v103h319v323h115v-323h319v-103h-319v-327h-115v327h-319zM205 0v102h760v-102h-760z" />
<glyph unicode="&#xb2;" horiz-adv-x="681" d="M61 1417q0 53 17 92t42 61t62.5 35t70.5 17t73 4q262 0 262 -211q0 -88 -43 -163.5t-135 -184.5l-226 -272h338q11 0 14.5 2t6.5 12l22 115h68v-207h-570v67l252 310q51 64 71.5 91t49.5 71.5t39 78.5t10 72q0 68 -40 103.5t-134 35.5q-82 0 -120.5 -30.5t-38.5 -110.5z " />
<glyph unicode="&#xb3;" horiz-adv-x="681" d="M31 815l67 64q89 -97 219 -97q85 0 140 48t55 139q0 178 -207 178q-49 0 -90 -8v84l90 8q84 7 136.5 49t52.5 127q0 141 -177 141q-78 0 -117.5 -32.5t-39.5 -112.5l-92 14q0 209 264 209q131 0 195.5 -54.5t64.5 -156.5q0 -159 -156 -215v-6q81 -19 126.5 -76t45.5 -149 q0 -129 -80.5 -199t-214.5 -70q-179 0 -282 115z" />
<glyph unicode="&#xb4;" horiz-adv-x="1024" d="M307 1223l318 321l90 -94l-357 -281z" />
<glyph unicode="&#xb5;" horiz-adv-x="1288" d="M233 -360v1400h101v-688q0 -165 41.5 -223.5t148.5 -58.5q109 0 224 58t196 136v776h100v-911q0 -23 6 -32t21 -11l115 -14v-72h-228l-20 147q-247 -172 -438 -172q-63 0 -103 20t-69 62l4 -417h-99z" />
<glyph unicode="&#xb6;" horiz-adv-x="1097" d="M12 821q0 132 45 231t124 156.5t177 85t215 27.5h474v-72l-138 -16q-23 -3 -27.5 -9t-4.5 -30v-1350q0 -17 5.5 -21t26.5 -7l138 -17v-71h-267v1497h-252v-1497h-262v71l142 17q14 2 18 6.5t4 21.5v512q-188 21 -303 144.5t-115 320.5z" />
<glyph unicode="&#xb7;" horiz-adv-x="333" d="M59 608q0 52 28.5 79.5t78.5 27.5q51 0 78.5 -27.5t27.5 -79.5q0 -106 -106 -106q-51 0 -79 26.5t-28 79.5z" />
<glyph unicode="&#xb8;" horiz-adv-x="1024" d="M295 -444l12 79q30 -6 72 -6q78 0 119 29.5t41 85.5q0 48 -33.5 74.5t-120.5 27.5l31 215l82 -12l-19 -135q160 -33 160 -166q0 -35 -13 -68.5t-41 -64.5t-79 -49.5t-119 -18.5q-39 0 -92 9z" />
<glyph unicode="&#xb9;" horiz-adv-x="485" d="M51 717v61l127 8q13 1 17 6.5t4 20.5v680q0 16 -4 20.5t-15 8.5l-129 22l8 62h242v-793q0 -15 4 -20.5t17 -6.5l124 -8v-61h-395z" />
<glyph unicode="&#xba;" horiz-adv-x="776" d="M70 909q0 159 83 252.5t244 93.5q159 0 234.5 -90t75.5 -245q0 -170 -80.5 -265.5t-241.5 -95.5q-160 0 -237.5 94t-77.5 256zM166 909q0 -133 56.5 -202.5t166.5 -69.5q219 0 219 272q0 135 -52.5 201t-160.5 66q-111 0 -170 -67.5t-59 -199.5z" />
<glyph unicode="&#xbb;" horiz-adv-x="878" d="M131 211l148 287q7 13 7.5 20t-5.5 19l-146 299h111l180 -314l-184 -311h-111zM438 211l148 287q7 13 7.5 20t-5.5 19l-146 299h111l180 -314l-184 -311h-111z" />
<glyph unicode="&#xbc;" horiz-adv-x="1697" d="M162 575v62l127 8q13 1 16.5 6t3.5 21v680q0 11 -2.5 16.5t-5 7t-10.5 4.5l-129 23l8 61h242v-792q0 -16 3.5 -21t16.5 -6l125 -8v-62h-395zM428 -16l725 1499h98l-725 -1499h-98zM946 248v76l361 561h137v-555h119v-84h-121v-246h-92v248h-404zM1047 330h303v465z" />
<glyph unicode="&#xbd;" horiz-adv-x="1697" d="M182 575v62l127 8q13 1 17 6.5t4 20.5v680q0 11 -3 17t-5.5 7t-10.5 4l-129 23l8 61h242v-792q0 -15 4 -20.5t17 -6.5l125 -8v-62h-396zM365 -16l725 1499h98l-725 -1499h-98zM1032 700q0 53 17 92t42 61t62 35t70 17t73 4q263 0 263 -211q0 -88 -43 -163t-136 -185 l-225 -272h338q11 0 14 2t6 12l23 115h68v-207h-570v68l252 309q51 64 71.5 91t49.5 71.5t39 78.5t10 72q0 68 -40 103.5t-134 35.5q-83 0 -121.5 -30.5t-38.5 -110.5z" />
<glyph unicode="&#xbe;" horiz-adv-x="1697" d="M61 674l68 63q88 -96 219 -96q85 0 140 47.5t55 138.5q0 93 -55.5 136t-151.5 43q-44 0 -90 -9v84l90 9q84 7 136 49t52 127q0 141 -176 141q-78 0 -118 -33t-40 -112l-92 14q0 209 264 209q131 0 196 -54.5t65 -156.5q0 -159 -156 -215v-6q81 -19 126.5 -76.5 t45.5 -149.5q0 -129 -80.5 -198.5t-214.5 -69.5q-180 0 -283 115zM481 -16l725 1499h99l-725 -1499h-99zM1008 248v76l360 561h137v-555h119v-84h-121v-246h-92v248h-403zM1108 330h303v465z" />
<glyph unicode="&#xbf;" horiz-adv-x="909" d="M76 -70q0 398 448 463v277h94v-355q-79 -7 -141 -21.5t-119 -41.5t-94.5 -66t-59.5 -98.5t-22 -136.5q0 -83 18.5 -142.5t46 -92t74 -50.5t88 -23t101.5 -5q134 0 201 24q21 7 26.5 15t10.5 32l22 125h64v-217q-18 -8 -57.5 -20.5t-122 -27.5t-158.5 -15q-96 0 -170 19 t-131.5 61.5t-88 117t-30.5 178.5zM459 954q0 53 27.5 80t78.5 27q107 0 107 -107q0 -52 -28 -79t-79 -27q-50 0 -78 27t-28 79z" />
<glyph unicode="&#xc0;" horiz-adv-x="1396" d="M23 0v74l88 22q39 8 49 39l458 1348h144l469 -1354q6 -17 15 -23.5t30 -11.5l96 -22v-72h-409v72l170 18l-134 408h-618l-135 -408l166 -18v-72h-389zM414 588h551l-275 819zM442 1790l76 104l359 -274l-41 -53z" />
<glyph unicode="&#xc1;" horiz-adv-x="1396" d="M23 0v74l88 22q39 8 49 39l458 1348h144l469 -1354q6 -17 15 -23.5t30 -11.5l96 -22v-72h-409v72l170 18l-134 408h-618l-135 -408l166 -18v-72h-389zM414 588h551l-275 819zM502 1624l360 272l76 -102l-393 -225z" />
<glyph unicode="&#xc2;" horiz-adv-x="1396" d="M23 0v74l88 22q39 8 49 39l458 1348h144l469 -1354q6 -17 15 -23.5t30 -11.5l96 -22v-72h-409v72l170 18l-134 408h-618l-135 -408l166 -18v-72h-389zM383 1626l235 197h144l233 -193l-59 -55l-246 168l-250 -170zM414 588h551l-275 819z" />
<glyph unicode="&#xc3;" horiz-adv-x="1396" d="M23 0v74l88 22q39 8 49 39l458 1348h144l469 -1354q6 -17 15 -23.5t30 -11.5l96 -22v-72h-409v72l170 18l-134 408h-618l-135 -408l166 -18v-72h-389zM360 1630l50 70q35 46 71 61t92 2l277 -73q21 -6 33 6l84 84l57 -39l-41 -60q-38 -51 -76.5 -68.5t-95.5 -4.5l-272 71 q-21 6 -33 -6l-88 -86zM414 588h551l-275 819z" />
<glyph unicode="&#xc4;" horiz-adv-x="1396" d="M23 0v74l88 22q39 8 49 39l458 1348h144l469 -1354q6 -17 15 -23.5t30 -11.5l96 -22v-72h-409v72l170 18l-134 408h-618l-135 -408l166 -18v-72h-389zM397 1692q0 41 25.5 65.5t66.5 24.5q43 0 69 -24.5t26 -65.5t-26 -65.5t-69 -24.5q-41 0 -66.5 24.5t-25.5 65.5z M414 588h551l-275 819zM801 1692q0 41 25.5 65.5t66.5 24.5q42 0 68 -24.5t26 -65.5t-26 -65.5t-68 -24.5q-41 0 -66.5 24.5t-25.5 65.5z" />
<glyph unicode="&#xc5;" horiz-adv-x="1396" d="M23 0v74l88 22q39 8 49 39l448 1340q-106 31 -106 161q0 85 51 127.5t135 42.5q85 0 137 -41t52 -127q0 -122 -109 -163l463 -1346q6 -17 15 -23.5t30 -11.5l96 -22v-72h-409v72l170 18l-136 408h-616l-135 -408l166 -18v-72h-389zM416 594h547l-273 817zM592 1634 q0 -82 96 -82q47 0 71.5 23t24.5 63q0 41 -25 63.5t-71 22.5q-43 0 -69.5 -23.5t-26.5 -66.5z" />
<glyph unicode="&#xc6;" horiz-adv-x="2070" d="M23 0v72l106 26q22 4 29 15l729 1284l-156 12v74h1176v-281l-78 4l-29 166q-4 27 -41 27h-575v-627h592v-88h-592v-598h626q18 0 24 4t9 19l33 180h76v-289h-1032v72l116 16q30 4 37.5 12.5t7.5 38.5v545h-487l-338 -594l143 -18v-72h-376zM645 774h436v621h-84z" />
<glyph unicode="&#xc7;" horiz-adv-x="1392" d="M123 764q0 160 45.5 294.5t133 235.5t225.5 158t313 57q138 0 253.5 -28.5t188.5 -77.5v-275l-78 5l-35 190q0 1 -1 4q-1 8 -2 12.5t-6.5 10.5t-16.5 10q-142 57 -314 57q-277 0 -439.5 -173.5t-162.5 -483.5q0 -335 156 -513.5t432 -178.5q232 0 344 55q19 10 25 33 l33 180h69v-256q-137 -98 -446 -105l-9 -61q160 -33 160 -166q0 -35 -13 -68.5t-41 -64.5t-79 -49.5t-119 -18.5q-39 0 -92 9l12 79q30 -6 72 -6q78 0 119 29.5t41 85.5q0 48 -33.5 74.5t-120.5 27.5l19 131q-133 7 -239.5 48.5t-179.5 111t-121.5 166.5t-70.5 211.5 t-22 249.5z" />
<glyph unicode="&#xc8;" horiz-adv-x="1306" d="M158 0v68l129 14q21 3 26.5 10t5.5 31v1235q0 24 -5.5 32t-26.5 9l-129 14v70h985v-281l-80 4l-29 166q-3 15 -10.5 21t-24.5 6h-581v-606h594v-84h-594v-623h626q18 0 24 4t9 19l33 180h78v-289h-1030zM414 1790l75 104l359 -274l-41 -53z" />
<glyph unicode="&#xc9;" horiz-adv-x="1306" d="M158 0v68l129 14q21 3 26.5 10t5.5 31v1235q0 24 -5.5 32t-26.5 9l-129 14v70h985v-281l-80 4l-29 166q-3 15 -10.5 21t-24.5 6h-581v-606h594v-84h-594v-623h626q18 0 24 4t9 19l33 180h78v-289h-1030zM537 1624l360 272l76 -102l-393 -225z" />
<glyph unicode="&#xca;" horiz-adv-x="1306" d="M158 0v68l129 14q21 3 26.5 10t5.5 31v1235q0 24 -5.5 32t-26.5 9l-129 14v70h985v-281l-80 4l-29 166q-3 15 -10.5 21t-24.5 6h-581v-606h594v-84h-594v-623h626q18 0 24 4t9 19l33 180h78v-289h-1030zM395 1626l236 197h143l234 -193l-60 -55l-246 168l-249 -170z" />
<glyph unicode="&#xcb;" horiz-adv-x="1306" d="M158 0v68l129 14q21 3 26.5 10t5.5 31v1235q0 24 -5.5 32t-26.5 9l-129 14v70h985v-281l-80 4l-29 166q-3 15 -10.5 21t-24.5 6h-581v-606h594v-84h-594v-623h626q18 0 24 4t9 19l33 180h78v-289h-1030zM395 1692q0 41 25.5 65.5t66.5 24.5q43 0 69 -24.5t26 -65.5 t-26 -65.5t-69 -24.5q-41 0 -66.5 24.5t-25.5 65.5zM799 1692q0 41 25.5 65.5t66.5 24.5q42 0 68 -24.5t26 -65.5t-26 -65.5t-68 -24.5q-41 0 -66.5 24.5t-25.5 65.5z" />
<glyph unicode="&#xcc;" horiz-adv-x="800" d="M154 1790l75 104l359 -274l-41 -53zM168 0v72l149 14q22 5 27.5 11.5t5.5 29.5v1229q0 24 -6 32t-27 9l-149 14v72h473v-72l-158 -16q-23 -3 -27.5 -9t-4.5 -30v-1227q0 -25 4.5 -31.5t27.5 -9.5l158 -16v-72h-473z" />
<glyph unicode="&#xcd;" horiz-adv-x="800" d="M168 0v72l149 14q22 5 27.5 11.5t5.5 29.5v1229q0 24 -6 32t-27 9l-149 14v72h473v-72l-158 -16q-23 -3 -27.5 -9t-4.5 -30v-1227q0 -25 4.5 -31.5t27.5 -9.5l158 -16v-72h-473zM215 1624l360 272l76 -102l-393 -225z" />
<glyph unicode="&#xce;" horiz-adv-x="800" d="M94 1626l236 197h143l234 -193l-60 -55l-246 168l-249 -170zM168 0v72l149 14q22 5 27.5 11.5t5.5 29.5v1229q0 24 -6 32t-27 9l-149 14v72h473v-72l-158 -16q-23 -3 -27.5 -9t-4.5 -30v-1227q0 -25 4.5 -31.5t27.5 -9.5l158 -16v-72h-473z" />
<glyph unicode="&#xcf;" horiz-adv-x="800" d="M109 1692q0 41 25.5 65.5t66.5 24.5q43 0 68.5 -24.5t25.5 -65.5t-25.5 -65.5t-68.5 -24.5q-41 0 -66.5 24.5t-25.5 65.5zM168 0v72l149 14q22 5 27.5 11.5t5.5 29.5v1229q0 24 -6 32t-27 9l-149 14v72h473v-72l-158 -16q-23 -3 -27.5 -9t-4.5 -30v-1227q0 -25 4.5 -31.5 t27.5 -9.5l158 -16v-72h-473zM512 1692q0 41 25.5 65.5t66.5 24.5q42 0 68 -24.5t26 -65.5t-26 -65.5t-68 -24.5q-41 0 -66.5 24.5t-25.5 65.5z" />
<glyph unicode="&#xd0;" horiz-adv-x="1615" d="M115 721v86h227v547q0 24 -6 32t-27 9l-129 14v74h578q374 0 554.5 -188t180.5 -531q0 -173 -46.5 -311.5t-139 -240.5t-241 -157t-343.5 -55h-543v72l129 14q22 3 27.5 10.5t5.5 30.5v594h-227zM442 86h293q310 0 480.5 168.5t170.5 474.5q0 153 -29 268t-81.5 191 t-132.5 123t-174 66.5t-215 19.5h-312v-590h476v-86h-476v-635z" />
<glyph unicode="&#xd1;" horiz-adv-x="1695" d="M158 0v72l129 14q21 3 26.5 10t5.5 31v1227q0 23 -5 30t-27 11l-129 14v74h319l811 -1356v1229q0 23 -5.5 29.5t-27.5 11.5l-129 14v72h430v-72l-137 -16q-23 -3 -28 -9t-5 -30v-1356h-133l-835 1380v-1251q0 -25 5 -31.5t28 -9.5l137 -16v-72h-430zM549 1630l49 70 q35 46 71 61t93 2l276 -73q21 -6 33 6l84 84l57 -39l-41 -60q-38 -51 -76.5 -68.5t-95.5 -4.5l-272 71q-21 6 -33 -6l-88 -86z" />
<glyph unicode="&#xd2;" horiz-adv-x="1611" d="M127 737q0 170 46 311t133 244t221 160t302 57q132 0 241.5 -36.5t187 -102.5t131 -158t79 -201.5t25.5 -234.5q0 -370 -179 -585.5t-513 -215.5q-169 0 -299 57.5t-211.5 160.5t-122.5 240.5t-41 303.5zM233 737q0 -318 153 -496t421 -178t426 179t158 514 q0 314 -152.5 489.5t-413.5 175.5q-267 0 -429.5 -180.5t-162.5 -503.5zM578 1788l75 104l359 -274l-41 -53z" />
<glyph unicode="&#xd3;" horiz-adv-x="1611" d="M127 737q0 170 46 311t133 244t221 160t302 57q132 0 241.5 -36.5t187 -102.5t131 -158t79 -201.5t25.5 -234.5q0 -370 -179 -585.5t-513 -215.5q-169 0 -299 57.5t-211.5 160.5t-122.5 240.5t-41 303.5zM233 737q0 -318 153 -496t421 -178t426 179t158 514 q0 314 -152.5 489.5t-413.5 175.5q-267 0 -429.5 -180.5t-162.5 -503.5zM639 1622l360 272l76 -102l-393 -225z" />
<glyph unicode="&#xd4;" horiz-adv-x="1611" d="M127 737q0 170 46 311t133 244t221 160t302 57q132 0 241.5 -36.5t187 -102.5t131 -158t79 -201.5t25.5 -234.5q0 -370 -179 -585.5t-513 -215.5q-169 0 -299 57.5t-211.5 160.5t-122.5 240.5t-41 303.5zM233 737q0 -318 153 -496t421 -178t426 179t158 514 q0 314 -152.5 489.5t-413.5 175.5q-267 0 -429.5 -180.5t-162.5 -503.5zM518 1624l236 197h143l233 -193l-59 -55l-246 168l-250 -170z" />
<glyph unicode="&#xd5;" horiz-adv-x="1611" d="M127 737q0 170 46 311t133 244t221 160t302 57q132 0 241.5 -36.5t187 -102.5t131 -158t79 -201.5t25.5 -234.5q0 -370 -179 -585.5t-513 -215.5q-169 0 -299 57.5t-211.5 160.5t-122.5 240.5t-41 303.5zM233 737q0 -318 153 -496t421 -178t426 179t158 514 q0 314 -152.5 489.5t-413.5 175.5q-267 0 -429.5 -180.5t-162.5 -503.5zM496 1628l49 70q35 46 71 61t93 2l276 -73q21 -6 33 6l84 84l57 -39l-41 -60q-38 -51 -76.5 -68.5t-95.5 -4.5l-272 71q-21 6 -33 -6l-88 -86z" />
<glyph unicode="&#xd6;" horiz-adv-x="1611" d="M127 737q0 170 46 311t133 244t221 160t302 57q132 0 241.5 -36.5t187 -102.5t131 -158t79 -201.5t25.5 -234.5q0 -370 -179 -585.5t-513 -215.5q-169 0 -299 57.5t-211.5 160.5t-122.5 240.5t-41 303.5zM233 737q0 -318 153 -496t421 -178t426 179t158 514 q0 314 -152.5 489.5t-413.5 175.5q-267 0 -429.5 -180.5t-162.5 -503.5zM532 1690q0 41 25.5 65.5t67.5 24.5q43 0 68.5 -24.5t25.5 -65.5t-25.5 -66t-68.5 -25q-41 0 -67 25t-26 66zM936 1690q0 41 25.5 65.5t66.5 24.5q42 0 68 -24.5t26 -65.5t-26 -66t-68 -25 q-41 0 -66.5 25t-25.5 66z" />
<glyph unicode="&#xd7;" d="M276 426l232 238l-223 231l73 70l224 -230l223 230l72 -66l-226 -231l238 -242l-76 -72l-235 242l-232 -238z" />
<glyph unicode="&#xd8;" horiz-adv-x="1611" d="M127 758q0 218 79 385.5t239.5 266.5t383.5 99q132 0 224 -32l57 139h109l-72 -174q166 -84 252 -259.5t86 -406.5q0 -244 -75 -422t-230.5 -278.5t-378.5 -100.5q-133 0 -252 37l-72 -172h-110l90 215q-165 89 -247.5 271t-82.5 432zM233 754q0 -218 69.5 -371.5 t195.5 -235.5l516 1244q-82 30 -189 30q-266 0 -429 -177.5t-163 -489.5zM586 100q96 -37 221 -37q267 0 421 178.5t154 514.5q0 218 -71 372t-203 230z" />
<glyph unicode="&#xd9;" horiz-adv-x="1617" d="M139 1411v72h430v-72l-137 -16q-23 -3 -28 -9t-5 -30v-891q0 -219 104.5 -311.5t303.5 -92.5q203 0 307.5 92t104.5 310v893q0 24 -6 32t-27 9l-129 14v72h430v-72l-137 -16q-23 -3 -28 -9t-5 -30v-887q0 -246 -132 -370t-390 -124q-260 0 -377 125t-117 369v887 q0 24 -6 32t-27 9zM567 1790l76 104l358 -274l-40 -53z" />
<glyph unicode="&#xda;" horiz-adv-x="1617" d="M139 1411v72h430v-72l-137 -16q-23 -3 -28 -9t-5 -30v-891q0 -219 104.5 -311.5t303.5 -92.5q203 0 307.5 92t104.5 310v893q0 24 -6 32t-27 9l-129 14v72h430v-72l-137 -16q-23 -3 -28 -9t-5 -30v-887q0 -246 -132 -370t-390 -124q-260 0 -377 125t-117 369v887 q0 24 -6 32t-27 9zM668 1624l360 272l76 -102l-393 -225z" />
<glyph unicode="&#xdb;" horiz-adv-x="1617" d="M139 1411v72h430v-72l-137 -16q-23 -3 -28 -9t-5 -30v-891q0 -219 104.5 -311.5t303.5 -92.5q203 0 307.5 92t104.5 310v893q0 24 -6 32t-27 9l-129 14v72h430v-72l-137 -16q-23 -3 -28 -9t-5 -30v-887q0 -246 -132 -370t-390 -124q-260 0 -377 125t-117 369v887 q0 24 -6 32t-27 9zM528 1626l236 197h143l234 -193l-60 -55l-245 168l-250 -170z" />
<glyph unicode="&#xdc;" horiz-adv-x="1617" d="M139 1411v72h430v-72l-137 -16q-23 -3 -28 -9t-5 -30v-891q0 -219 104.5 -311.5t303.5 -92.5q203 0 307.5 92t104.5 310v893q0 24 -6 32t-27 9l-129 14v72h430v-72l-137 -16q-23 -3 -28 -9t-5 -30v-887q0 -246 -132 -370t-390 -124q-260 0 -377 125t-117 369v887 q0 24 -6 32t-27 9zM522 1692q0 41 25.5 65.5t66.5 24.5q43 0 69 -24.5t26 -65.5t-26 -65.5t-69 -24.5q-41 0 -66.5 24.5t-25.5 65.5zM926 1692q0 41 25.5 65.5t66.5 24.5q42 0 68 -24.5t26 -65.5t-26 -65.5t-68 -24.5q-41 0 -66.5 24.5t-25.5 65.5z" />
<glyph unicode="&#xdd;" horiz-adv-x="1185" d="M-2 1411l20 72h367v-72l-149 -18l370 -707l359 707l-144 18l21 72h346v-72l-86 -22q-36 -11 -51 -39l-398 -756v-465q0 -25 5 -31.5t28 -9.5l193 -16v-72h-547v72l188 14q21 1 27 9t6 32v461l-414 766q-15 27 -49 35zM477 1624l361 272l75 -102l-393 -225z" />
<glyph unicode="&#xde;" horiz-adv-x="1363" d="M158 0v72l129 14q21 3 26.5 10t5.5 31v1227q0 24 -5.5 32t-26.5 9l-129 14v74h452v-72l-161 -16q-24 -3 -28.5 -9t-4.5 -32v-117h332q111 0 196.5 -23.5t141 -63.5t91 -97t50 -120t14.5 -138q0 -126 -38.5 -215.5t-113 -142t-175 -76t-234.5 -23.5h-264v-209q0 -26 5 -33 t28 -8l292 -16v-72h-583zM416 428h268q83 0 144.5 7.5t122.5 30t99 62t61.5 106.5t23.5 159q0 181 -98 268.5t-318 87.5h-303v-721z" />
<glyph unicode="&#xdf;" horiz-adv-x="1327" d="M66 0v74l145 12q21 1 27 9t6 32v1022q0 216 114.5 319t323.5 103q204 0 303.5 -95t99.5 -262q0 -130 -58 -214.5t-171 -137.5q320 -75 320 -434q0 -206 -113 -324t-305 -118q-76 0 -164 20t-145 53l38 82q149 -71 267 -71q147 0 232 88t85 272q0 187 -108 283t-297 96 q-36 0 -111 -6v86l147 14q135 13 209 102t74 207q0 136 -78.5 205.5t-226.5 69.5q-179 0 -257.5 -79.5t-78.5 -270.5v-1137h-278z" />
<glyph unicode="&#xe0;" horiz-adv-x="1083" d="M113 242q0 149 89.5 219t274.5 86l307 26v123q0 78 -9.5 126t-36.5 85t-77 52.5t-129 15.5q-39 0 -61.5 -0.5t-54.5 -4.5t-50.5 -11t-40 -20t-32.5 -32t-19 -48t-8 -66l-98 14q0 67 25 115.5t60.5 74.5t88.5 41.5t95.5 19t94.5 3.5q204 0 278.5 -75t74.5 -281v-578 q0 -25 5 -31.5t28 -9.5l108 -14v-72h-221l-19 150q-93 -86 -187.5 -130.5t-205.5 -44.5q-73 0 -127 20t-82.5 47.5t-45.5 67t-21 69.5t-4 63zM219 254q0 -99 47.5 -146t143.5 -47q108 0 205.5 56.5t168.5 136.5v235l-297 -26q-153 -13 -210.5 -63t-57.5 -146zM317 1450 l89 92l319 -321l-51 -52z" />
<glyph unicode="&#xe1;" horiz-adv-x="1083" d="M113 242q0 149 89.5 219t274.5 86l307 26v123q0 78 -9.5 126t-36.5 85t-77 52.5t-129 15.5q-39 0 -61.5 -0.5t-54.5 -4.5t-50.5 -11t-40 -20t-32.5 -32t-19 -48t-8 -66l-98 14q0 67 25 115.5t60.5 74.5t88.5 41.5t95.5 19t94.5 3.5q204 0 278.5 -75t74.5 -281v-578 q0 -25 5 -31.5t28 -9.5l108 -14v-72h-221l-19 150q-93 -86 -187.5 -130.5t-205.5 -44.5q-73 0 -127 20t-82.5 47.5t-45.5 67t-21 69.5t-4 63zM219 254q0 -99 47.5 -146t143.5 -47q108 0 205.5 56.5t168.5 136.5v235l-297 -26q-153 -13 -210.5 -63t-57.5 -146zM354 1223 l318 321l90 -94l-356 -281z" />
<glyph unicode="&#xe2;" horiz-adv-x="1083" d="M113 242q0 149 89.5 219t274.5 86l307 26v123q0 78 -9.5 126t-36.5 85t-77 52.5t-129 15.5q-39 0 -61.5 -0.5t-54.5 -4.5t-50.5 -11t-40 -20t-32.5 -32t-19 -48t-8 -66l-98 14q0 67 25 115.5t60.5 74.5t88.5 41.5t95.5 19t94.5 3.5q204 0 278.5 -75t74.5 -281v-578 q0 -25 5 -31.5t28 -9.5l108 -14v-72h-221l-19 150q-93 -86 -187.5 -130.5t-205.5 -44.5q-73 0 -127 20t-82.5 47.5t-45.5 67t-21 69.5t-4 63zM219 254q0 -99 47.5 -146t143.5 -47q108 0 205.5 56.5t168.5 136.5v235l-297 -26q-153 -13 -210.5 -63t-57.5 -146zM219 1239 l242 248h143l246 -246l-64 -51l-254 215l-251 -219z" />
<glyph unicode="&#xe3;" horiz-adv-x="1083" d="M113 242q0 149 89.5 219t274.5 86l307 26v123q0 78 -9.5 126t-36.5 85t-77 52.5t-129 15.5q-39 0 -61.5 -0.5t-54.5 -4.5t-50.5 -11t-40 -20t-32.5 -32t-19 -48t-8 -66l-98 14q0 67 25 115.5t60.5 74.5t88.5 41.5t95.5 19t94.5 3.5q204 0 278.5 -75t74.5 -281v-578 q0 -25 5 -31.5t28 -9.5l108 -14v-72h-221l-19 150q-93 -86 -187.5 -130.5t-205.5 -44.5q-73 0 -127 20t-82.5 47.5t-45.5 67t-21 69.5t-4 63zM203 1251l49 70q35 46 71 61t93 2l276 -73q21 -6 33 6l84 84l57 -39l-41 -59q-38 -51 -76.5 -69t-95.5 -5l-272 71q-21 6 -33 -6 l-88 -86zM219 254q0 -99 47.5 -146t143.5 -47q108 0 205.5 56.5t168.5 136.5v235l-297 -26q-153 -13 -210.5 -63t-57.5 -146z" />
<glyph unicode="&#xe4;" horiz-adv-x="1083" d="M113 242q0 149 89.5 219t274.5 86l307 26v123q0 78 -9.5 126t-36.5 85t-77 52.5t-129 15.5q-39 0 -61.5 -0.5t-54.5 -4.5t-50.5 -11t-40 -20t-32.5 -32t-19 -48t-8 -66l-98 14q0 67 25 115.5t60.5 74.5t88.5 41.5t95.5 19t94.5 3.5q204 0 278.5 -75t74.5 -281v-578 q0 -25 5 -31.5t28 -9.5l108 -14v-72h-221l-19 150q-93 -86 -187.5 -130.5t-205.5 -44.5q-73 0 -127 20t-82.5 47.5t-45.5 67t-21 69.5t-4 63zM219 254q0 -99 47.5 -146t143.5 -47q108 0 205.5 56.5t168.5 136.5v235l-297 -26q-153 -13 -210.5 -63t-57.5 -146zM240 1343 q0 41 25.5 66t66.5 25q43 0 68.5 -25t25.5 -66t-25.5 -65.5t-68.5 -24.5q-41 0 -66.5 24.5t-25.5 65.5zM643 1343q0 41 25.5 66t66.5 25q42 0 68 -25t26 -66t-26 -65.5t-68 -24.5q-41 0 -66.5 24.5t-25.5 65.5z" />
<glyph unicode="&#xe5;" horiz-adv-x="1083" d="M113 242q0 149 89.5 219t274.5 86l307 26v123q0 78 -9.5 126t-36.5 85t-77 52.5t-129 15.5q-39 0 -61.5 -0.5t-54.5 -4.5t-50.5 -11t-40 -20t-32.5 -32t-19 -48t-8 -66l-98 14q0 67 25 115.5t60.5 74.5t88.5 41.5t95.5 19t94.5 3.5q204 0 278.5 -75t74.5 -281v-578 q0 -25 5 -31.5t28 -9.5l108 -14v-72h-221l-19 150q-93 -86 -187.5 -130.5t-205.5 -44.5q-73 0 -127 20t-82.5 47.5t-45.5 67t-21 69.5t-4 63zM219 254q0 -99 47.5 -146t143.5 -47q108 0 205.5 56.5t168.5 136.5v235l-297 -26q-153 -13 -210.5 -63t-57.5 -146zM350 1337 q0 83 51.5 127.5t133.5 44.5q87 0 137.5 -40.5t50.5 -127.5q0 -83 -49 -125t-139 -42q-87 0 -136 41t-49 122zM436 1337q0 -90 99 -90q50 0 75 25t25 69t-26 70.5t-74 26.5q-43 0 -71 -28t-28 -73z" />
<glyph unicode="&#xe6;" horiz-adv-x="1710" d="M113 238q0 151 88 219t276 88l305 30v121q0 77 -9.5 125.5t-36.5 84.5t-77 51.5t-129 15.5q-40 0 -61.5 -0.5t-54 -4t-50 -10.5t-39 -19.5t-32.5 -31.5t-19 -48t-8 -66l-98 14q0 67 25 115.5t60.5 74.5t88.5 41.5t95.5 19t94.5 3.5q147 0 224 -40t108 -134 q130 174 367 174q86 0 155.5 -27t124.5 -82.5t85 -151t30 -222.5q0 -16 -4 -70h-737q2 -97 23 -174t63 -138.5t113.5 -94.5t168.5 -33q96 0 156.5 17.5t134.5 59.5l39 -79q-56 -38 -145 -64.5t-189 -26.5q-279 0 -393 193q-124 -103 -234 -148t-241 -45q-68 0 -119.5 19.5 t-79 47.5t-44 66.5t-21 68.5t-4.5 61zM219 248q0 -189 182 -189q111 0 235.5 62t180.5 141q-29 100 -35 225l-295 -30q-156 -17 -212 -63.5t-56 -145.5zM885 600h635q-2 99 -26 171.5t-65 114.5t-91 61.5t-111 19.5q-311 0 -342 -367z" />
<glyph unicode="&#xe7;" horiz-adv-x="960" d="M100 510q0 144 38 251.5t108.5 172t163 96t208.5 31.5q34 0 68.5 -3t59.5 -7t52 -10t41.5 -10t33.5 -10t22 -7v-234l-80 6l-24 142q-2 10 -6 15t-17 9q-67 23 -168 23q-85 0 -155 -26.5t-124.5 -80.5t-85 -145t-30.5 -211q0 -222 101.5 -334t283.5 -112q75 0 150.5 21.5 t127.5 55.5l39 -80q-46 -34 -136.5 -59.5t-178.5 -28.5l-8 -61q76 -15 117.5 -57t41.5 -109q0 -35 -13 -68.5t-40.5 -64.5t-78.5 -49.5t-119 -18.5q-40 0 -93 9l13 79q30 -6 71 -6q78 0 119 29.5t41 85.5q0 48 -33.5 74.5t-120.5 27.5l19 134q-105 11 -184.5 54.5 t-127.5 114.5t-72 161.5t-24 199.5z" />
<glyph unicode="&#xe8;" horiz-adv-x="1028" d="M100 524q0 134 34 238t95 168.5t141 97.5t175 33q183 0 290 -115t107 -362q0 -22 -4 -76h-735q2 -99 23.5 -177.5t64.5 -139t115 -93t169 -32.5q95 0 163.5 19t135.5 58l39 -80q-133 -88 -342 -88q-105 0 -186.5 28t-134.5 77t-87 119.5t-48.5 150t-14.5 174.5zM209 590 h627q-3 196 -81.5 289.5t-211.5 93.5q-141 0 -231 -89.5t-103 -293.5zM324 1450l88 92l319 -321l-51 -52z" />
<glyph unicode="&#xe9;" horiz-adv-x="1028" d="M100 524q0 134 34 238t95 168.5t141 97.5t175 33q183 0 290 -115t107 -362q0 -22 -4 -76h-735q2 -99 23.5 -177.5t64.5 -139t115 -93t169 -32.5q95 0 163.5 19t135.5 58l39 -80q-133 -88 -342 -88q-105 0 -186.5 28t-134.5 77t-87 119.5t-48.5 150t-14.5 174.5zM209 590 h627q-3 196 -81.5 289.5t-211.5 93.5q-141 0 -231 -89.5t-103 -293.5zM360 1223l318 321l90 -94l-356 -281z" />
<glyph unicode="&#xea;" horiz-adv-x="1028" d="M100 524q0 134 34 238t95 168.5t141 97.5t175 33q183 0 290 -115t107 -362q0 -22 -4 -76h-735q2 -99 23.5 -177.5t64.5 -139t115 -93t169 -32.5q95 0 163.5 19t135.5 58l39 -80q-133 -88 -342 -88q-105 0 -186.5 28t-134.5 77t-87 119.5t-48.5 150t-14.5 174.5zM209 590 h627q-3 196 -81.5 289.5t-211.5 93.5q-141 0 -231 -89.5t-103 -293.5zM225 1239l242 248h143l246 -246l-63 -51l-254 215l-252 -219z" />
<glyph unicode="&#xeb;" horiz-adv-x="1028" d="M100 524q0 134 34 238t95 168.5t141 97.5t175 33q183 0 290 -115t107 -362q0 -22 -4 -76h-735q2 -99 23.5 -177.5t64.5 -139t115 -93t169 -32.5q95 0 163.5 19t135.5 58l39 -80q-133 -88 -342 -88q-105 0 -186.5 28t-134.5 77t-87 119.5t-48.5 150t-14.5 174.5zM209 590 h627q-3 196 -81.5 289.5t-211.5 93.5q-141 0 -231 -89.5t-103 -293.5zM246 1343q0 41 25.5 66t66.5 25q43 0 68.5 -25t25.5 -66t-25.5 -65.5t-68.5 -24.5q-41 0 -66.5 24.5t-25.5 65.5zM649 1343q0 41 25.5 66t66.5 25q42 0 68.5 -25t26.5 -66t-26.5 -65.5t-68.5 -24.5 q-41 0 -66.5 24.5t-25.5 65.5z" />
<glyph unicode="&#xec;" horiz-adv-x="579" d="M8 1450l88 92l320 -321l-51 -52zM59 0v74l158 12q22 5 27.5 11.5t5.5 29.5v766q0 35 -27 43l-121 39l15 65h233v-913q0 -25 5 -31.5t28 -9.5l154 -14v-72h-478z" />
<glyph unicode="&#xed;" horiz-adv-x="579" d="M59 0v74l158 12q22 5 27.5 11.5t5.5 29.5v766q0 35 -27 43l-121 39l15 65h233v-913q0 -25 5 -31.5t28 -9.5l154 -14v-72h-478zM102 1223l318 321l90 -94l-356 -281z" />
<glyph unicode="&#xee;" horiz-adv-x="579" d="M-6 1245l196 242h144l196 -242l-61 -49l-207 209l-203 -209zM59 0v74l158 12q22 5 27.5 11.5t5.5 29.5v766q0 35 -27 43l-121 39l15 65h233v-913q0 -25 5 -31.5t28 -9.5l154 -14v-72h-478z" />
<glyph unicode="&#xef;" horiz-adv-x="579" d="M-6 1343q0 41 25.5 66t68.5 25q41 0 66.5 -25t25.5 -66t-25.5 -65.5t-66.5 -24.5q-43 0 -68.5 24.5t-25.5 65.5zM59 0v74l158 12q22 5 27.5 11.5t5.5 29.5v766q0 35 -27 43l-121 39l15 65h233v-913q0 -25 5 -31.5t28 -9.5l154 -14v-72h-478zM319 1343q0 41 26.5 66 t68.5 25q41 0 66.5 -25t25.5 -66t-25.5 -65.5t-66.5 -24.5q-42 0 -68.5 24.5t-26.5 65.5z" />
<glyph unicode="&#xf0;" horiz-adv-x="1132" d="M102 518q0 105 30.5 196t88.5 161t149.5 110.5t204.5 40.5q187 0 334 -115q-59 265 -213 416l-231 -127l-41 72l205 114q-133 88 -324 115q6 15 18.5 40t16.5 34q225 -27 381 -141l207 112l45 -71l-185 -101q126 -135 189 -322t63 -405q0 -78 -7.5 -149.5t-26 -151 t-53.5 -143.5t-85 -116.5t-126.5 -82t-172.5 -29.5q-239 0 -353 141t-114 402zM215 516q0 -72 9.5 -133.5t34 -120.5t63 -100.5t101 -66.5t144.5 -25q85 0 150.5 33t105.5 86.5t65 129.5t34.5 152.5t9.5 165.5q0 71 -6 141q-45 61 -142 106.5t-198 45.5q-183 0 -277 -110.5 t-94 -303.5z" />
<glyph unicode="&#xf1;" horiz-adv-x="1296" d="M102 975l15 65h211l18 -141q95 73 193.5 117.5t216.5 44.5q173 0 243 -101t70 -301v-532q0 -25 5 -31.5t28 -9.5l127 -14v-72h-404v74l113 12q23 4 26 8.5t3 28.5v498q0 137 -27.5 215t-76 106.5t-128.5 28.5q-61 0 -126.5 -20.5t-117 -50t-87.5 -56t-54 -45.5v-672 q0 -25 5 -31.5t28 -9.5l129 -14v-72h-406v74l111 12q22 3 27.5 10.5t5.5 30.5v766q0 35 -27 43zM315 1251l50 70q35 46 71 61t92 2l277 -73q21 -6 33 6l84 84l57 -39l-41 -59q-38 -51 -76.5 -69t-95.5 -5l-272 71q-21 6 -33 -6l-88 -86z" />
<glyph unicode="&#xf2;" horiz-adv-x="1144" d="M100 522q0 247 124 393t366 146q120 0 209.5 -38.5t142.5 -109.5t79 -164t26 -210q0 -264 -119.5 -414t-358.5 -150q-121 0 -212 40.5t-146.5 114.5t-83 172.5t-27.5 219.5zM203 520q0 -219 95 -340t277 -121q181 0 274 119.5t93 343.5q0 453 -356 453q-185 0 -284 -118 t-99 -337zM375 1450l88 92l319 -321l-51 -52z" />
<glyph unicode="&#xf3;" horiz-adv-x="1144" d="M100 522q0 247 124 393t366 146q120 0 209.5 -38.5t142.5 -109.5t79 -164t26 -210q0 -264 -119.5 -414t-358.5 -150q-121 0 -212 40.5t-146.5 114.5t-83 172.5t-27.5 219.5zM203 520q0 -219 95 -340t277 -121q181 0 274 119.5t93 343.5q0 453 -356 453q-185 0 -284 -118 t-99 -337zM412 1223l317 321l90 -94l-356 -281z" />
<glyph unicode="&#xf4;" horiz-adv-x="1144" d="M100 522q0 247 124 393t366 146q120 0 209.5 -38.5t142.5 -109.5t79 -164t26 -210q0 -264 -119.5 -414t-358.5 -150q-121 0 -212 40.5t-146.5 114.5t-83 172.5t-27.5 219.5zM203 520q0 -219 95 -340t277 -121q181 0 274 119.5t93 343.5q0 453 -356 453q-185 0 -284 -118 t-99 -337zM276 1239l242 248h144l245 -246l-63 -51l-254 215l-252 -219z" />
<glyph unicode="&#xf5;" horiz-adv-x="1144" d="M100 522q0 247 124 393t366 146q120 0 209.5 -38.5t142.5 -109.5t79 -164t26 -210q0 -264 -119.5 -414t-358.5 -150q-121 0 -212 40.5t-146.5 114.5t-83 172.5t-27.5 219.5zM203 520q0 -219 95 -340t277 -121q181 0 274 119.5t93 343.5q0 453 -356 453q-185 0 -284 -118 t-99 -337zM260 1251l49 70q35 46 71 61t93 2l277 -73q20 -6 32 6l84 84l58 -39l-41 -59q-38 -51 -76.5 -69t-95.5 -5l-273 71q-20 6 -32 -6l-89 -86z" />
<glyph unicode="&#xf6;" horiz-adv-x="1144" d="M100 522q0 247 124 393t366 146q120 0 209.5 -38.5t142.5 -109.5t79 -164t26 -210q0 -264 -119.5 -414t-358.5 -150q-121 0 -212 40.5t-146.5 114.5t-83 172.5t-27.5 219.5zM203 520q0 -219 95 -340t277 -121q181 0 274 119.5t93 343.5q0 453 -356 453q-185 0 -284 -118 t-99 -337zM291 1343q0 41 25.5 66t66.5 25q43 0 68.5 -25t25.5 -66t-25.5 -65.5t-68.5 -24.5q-41 0 -66.5 24.5t-25.5 65.5zM694 1343q0 41 25.5 66t66.5 25q42 0 68.5 -25t26.5 -66t-26.5 -65.5t-68.5 -24.5q-41 0 -66.5 24.5t-25.5 65.5z" />
<glyph unicode="&#xf7;" d="M197 707h759l7 -105h-760zM459 356q0 111 108 111q111 0 111 -111q0 -106 -111 -106q-108 0 -108 106zM459 969q0 110 108 110q111 0 111 -110q0 -109 -111 -109q-108 0 -108 109z" />
<glyph unicode="&#xf8;" horiz-adv-x="1144" d="M100 522q0 247 124 393t366 146q99 0 170 -25l71 160h107l-88 -199q197 -124 197 -458q0 -264 -119.5 -414t-358.5 -150q-69 0 -163 23l-80 -186h-109l98 223q-215 124 -215 487zM203 520q0 -288 151 -403l365 835q-93 19 -133 19q-186 0 -284.5 -116.5t-98.5 -334.5z M444 76q58 -21 131 -21q181 0 274 121.5t93 345.5q0 279 -135 387z" />
<glyph unicode="&#xf9;" horiz-adv-x="1280" d="M96 977l15 63h229v-669q0 -163 45.5 -237.5t169.5 -74.5q188 0 397 209v625q0 27 -5 36t-27 13l-117 35l12 63h238v-911q0 -23 5 -32t19 -11l117 -14v-72h-227l-15 162q-196 -187 -417 -187q-85 0 -143.5 26.5t-91 78.5t-46.5 118.5t-14 157.5v535q0 27 -5.5 37t-27.5 14 zM406 1450l88 92l319 -321l-51 -52z" />
<glyph unicode="&#xfa;" horiz-adv-x="1290" d="M111 977l14 63h229v-669q0 -163 45.5 -237.5t169.5 -74.5q189 0 398 209v625q0 26 -5.5 35.5t-27.5 13.5l-117 35l12 63h238v-911q0 -23 5.5 -32t19.5 -11l116 -14v-72h-227l-14 162q-196 -187 -418 -187q-85 0 -143.5 26.5t-91 78.5t-46.5 118.5t-14 157.5v535 q0 27 -5.5 37t-27.5 14zM518 1223l318 321l90 -94l-357 -281z" />
<glyph unicode="&#xfb;" horiz-adv-x="1290" d="M111 977l14 63h229v-669q0 -163 45.5 -237.5t169.5 -74.5q189 0 398 209v625q0 26 -5.5 35.5t-27.5 13.5l-117 35l12 63h238v-911q0 -23 5.5 -32t19.5 -11l116 -14v-72h-227l-14 162q-196 -187 -418 -187q-85 0 -143.5 26.5t-91 78.5t-46.5 118.5t-14 157.5v535 q0 27 -5.5 37t-27.5 14zM322 1239l241 248h144l245 -246l-63 -51l-254 215l-252 -219z" />
<glyph unicode="&#xfc;" horiz-adv-x="1290" d="M111 977l14 63h229v-669q0 -163 45.5 -237.5t169.5 -74.5q189 0 398 209v625q0 26 -5.5 35.5t-27.5 13.5l-117 35l12 63h238v-911q0 -23 5.5 -32t19.5 -11l116 -14v-72h-227l-14 162q-196 -187 -418 -187q-85 0 -143.5 26.5t-91 78.5t-46.5 118.5t-14 157.5v535 q0 27 -5.5 37t-27.5 14zM342 1343q0 41 25.5 66t66.5 25q43 0 68.5 -25t25.5 -66t-25.5 -65.5t-68.5 -24.5q-41 0 -66.5 24.5t-25.5 65.5zM745 1343q0 41 26 66t67 25q42 0 68 -25t26 -66t-26 -65.5t-68 -24.5t-67.5 24.5t-25.5 65.5z" />
<glyph unicode="&#xfd;" horiz-adv-x="1138" d="M23 971l18 69h350v-69l-141 -17l319 -809l328 809l-143 17l18 69h342v-69l-70 -10q-21 -3 -32.5 -10.5t-18.5 -24.5l-532 -1272l188 -16v-72h-467v74l146 14q17 1 24 9.5t17 33.5l141 330l-360 888q-7 18 -15.5 24t-28.5 11zM504 1223l317 321l90 -94l-356 -281z" />
<glyph unicode="&#xfe;" horiz-adv-x="1220" d="M104 1479l15 65h235v-624q2 1 25 16t31.5 20.5t33 20t40 21.5t41.5 19t48.5 18t50 13t56.5 10t59 3q377 0 377 -520q0 -86 -10.5 -161.5t-40.5 -152t-76.5 -130.5t-124.5 -88t-180 -34q-75 0 -149 26t-112.5 50.5t-68.5 50.5v-411q0 -26 5 -33t28 -8l178 -12v-72h-432v74 l86 12q22 3 27.5 10.5t5.5 30.5v1704q0 35 -27 43zM354 213q62 -64 150 -107t184 -43q173 0 249.5 124.5t76.5 361.5q0 121 -21.5 205.5t-62.5 130.5t-92.5 66t-120.5 20q-93 0 -196.5 -48.5t-166.5 -99.5v-610z" />
<glyph unicode="&#xff;" horiz-adv-x="1138" d="M23 971l18 69h350v-69l-141 -17l319 -809l328 809l-143 17l18 69h342v-69l-70 -10q-21 -3 -32.5 -10.5t-18.5 -24.5l-532 -1272l188 -16v-72h-467v74l146 14q17 1 24 9.5t17 33.5l141 330l-360 888q-7 18 -15.5 24t-28.5 11zM272 1343q0 41 26 66t67 25q43 0 68.5 -25 t25.5 -66t-25.5 -65.5t-68.5 -24.5q-42 0 -67.5 24.5t-25.5 65.5zM676 1343q0 41 25.5 66t66.5 25q42 0 68 -25t26 -66t-26 -65.5t-68 -24.5q-41 0 -66.5 24.5t-25.5 65.5z" />
<glyph unicode="&#x152;" horiz-adv-x="2031" d="M127 758q0 751 614 751q105 0 201 -26h926v-281l-80 4l-29 162q-3 15 -10.5 21t-24.5 6h-614q198 -170 205 -600h444v-86h-446q-16 -445 -223 -621h679q18 0 24 4t9 19l33 178h78v-289h-1004q-89 -25 -196 -25q-136 0 -239 38.5t-168.5 105t-106 167.5t-56.5 214.5 t-16 257.5zM229 754q0 -348 116 -521.5t374 -173.5q259 0 377 172t118 525q0 669 -479 669q-246 0 -376 -173t-130 -498z" />
<glyph unicode="&#x153;" horiz-adv-x="1867" d="M100 522q0 247 124 393t366 146q314 0 407 -268q50 134 150 201t237 67q183 0 290.5 -115t107.5 -362q0 -22 -4 -76h-736q2 -99 23.5 -177.5t65 -139t115.5 -93t169 -32.5q95 0 163.5 19t135.5 58l39 -80q-133 -88 -342 -88q-332 0 -420 277q-100 -277 -422 -277 q-121 0 -212 40.5t-146.5 114.5t-83 172.5t-27.5 219.5zM203 520q0 -219 95 -340t277 -121q181 0 274 119.5t93 343.5q0 453 -356 453q-185 0 -284 -118t-99 -337zM1049 590h626q-3 196 -81.5 289.5t-211.5 93.5q-141 0 -230.5 -89.5t-102.5 -293.5z" />
<glyph unicode="&#x178;" horiz-adv-x="1185" d="M-2 1411l20 72h367v-72l-149 -18l370 -707l359 707l-144 18l21 72h346v-72l-86 -22q-36 -11 -51 -39l-398 -756v-465q0 -25 5 -31.5t28 -9.5l193 -16v-72h-547v72l188 14q21 1 27 9t6 32v461l-414 766q-15 27 -49 35zM311 1692q0 41 25.5 65.5t66.5 24.5q43 0 69 -24.5 t26 -65.5t-26 -65.5t-69 -24.5q-41 0 -66.5 24.5t-25.5 65.5zM715 1692q0 41 25.5 65.5t66.5 24.5q42 0 68 -24.5t26 -65.5t-26 -65.5t-68 -24.5q-41 0 -66.5 24.5t-25.5 65.5z" />
<glyph unicode="&#x2c6;" horiz-adv-x="1024" d="M199 1239l241 248h144l245 -246l-63 -51l-254 215l-252 -219z" />
<glyph unicode="&#x2dc;" horiz-adv-x="1024" d="M180 1251l49 70q35 46 71 61t93 2l277 -73q20 -6 32 6l84 84l58 -39l-41 -59q-38 -51 -76.5 -69t-95.5 -5l-273 71q-20 6 -32 -6l-88 -86z" />
<glyph unicode="&#x2000;" horiz-adv-x="948" />
<glyph unicode="&#x2001;" horiz-adv-x="1896" />
<glyph unicode="&#x2002;" horiz-adv-x="948" />
<glyph unicode="&#x2003;" horiz-adv-x="1896" />
<glyph unicode="&#x2004;" horiz-adv-x="632" />
<glyph unicode="&#x2005;" horiz-adv-x="474" />
<glyph unicode="&#x2006;" horiz-adv-x="316" />
<glyph unicode="&#x2007;" horiz-adv-x="316" />
<glyph unicode="&#x2008;" horiz-adv-x="237" />
<glyph unicode="&#x2009;" horiz-adv-x="379" />
<glyph unicode="&#x200a;" horiz-adv-x="105" />
<glyph unicode="&#x2010;" horiz-adv-x="636" d="M41 537v104h555v-104h-555z" />
<glyph unicode="&#x2011;" horiz-adv-x="636" d="M41 537v104h555v-104h-555z" />
<glyph unicode="&#x2012;" horiz-adv-x="636" d="M41 537v104h555v-104h-555z" />
<glyph unicode="&#x2013;" horiz-adv-x="1024" d="M0 537v84h1022v-84h-1022z" />
<glyph unicode="&#x2014;" horiz-adv-x="2048" d="M0 537v84h2046v-84h-2046z" />
<glyph unicode="&#x2018;" horiz-adv-x="358" d="M104 1257q0 24 23 72l113 207l61 -25l-61 -192q-3 -11 10 -16l55 -27l-41 -121q-85 7 -122.5 26.5t-37.5 75.5z" />
<glyph unicode="&#x2019;" horiz-adv-x="360" d="M84 1417l41 119q84 -5 122 -24.5t38 -75.5q0 -10 -3 -20.5t-5.5 -16.5t-9.5 -19t-9 -18l-108 -207l-62 27l62 192q0 12 -13 17z" />
<glyph unicode="&#x201a;" horiz-adv-x="319" d="M72 35l39 115q83 -5 120 -25t37 -76q0 -26 -24 -76l-111 -204l-61 26l63 189q7 18 -8 24z" />
<glyph unicode="&#x201c;" horiz-adv-x="641" d="M104 1257q0 24 23 72l113 207l61 -25l-61 -192q-3 -11 10 -16l55 -27l-41 -121q-85 7 -122.5 26.5t-37.5 75.5zM391 1257q0 24 23 72l112 207l62 -25l-62 -192q-3 -11 11 -16l55 -27l-41 -121q-85 7 -122.5 26.5t-37.5 75.5z" />
<glyph unicode="&#x201d;" horiz-adv-x="641" d="M84 1417l41 119q84 -5 122 -24.5t38 -75.5q0 -10 -3 -20.5t-5.5 -16.5t-9.5 -19t-9 -18l-108 -207l-62 27l62 192q0 12 -13 17zM371 1417l41 119q84 -5 121.5 -24.5t37.5 -75.5q0 -8 -1.5 -15.5t-4.5 -15.5t-5.5 -13.5t-7.5 -15.5l-7 -14l-109 -207l-61 27l61 192 q0 12 -12 17z" />
<glyph unicode="&#x201e;" horiz-adv-x="600" d="M72 35l39 115q83 -5 120 -25t37 -76q0 -26 -24 -76l-111 -204l-61 26l63 189q7 18 -8 24zM358 35l39 115q83 -5 120.5 -25t37.5 -76q0 -24 -25 -76l-110 -204l-62 26l64 189q7 18 -8 24z" />
<glyph unicode="&#x2022;" horiz-adv-x="739" d="M109 573q0 126 67.5 191t192.5 65q126 0 193 -65t67 -191t-67 -191t-193 -65q-125 0 -192.5 65t-67.5 191z" />
<glyph unicode="&#x2026;" d="M117 82q0 52 28 79t78 27q109 0 109 -106q0 -53 -28.5 -80t-80.5 -27q-51 0 -78.5 27t-27.5 80zM496 82q0 52 28 79t78 27q109 0 109 -106q0 -53 -28.5 -80t-80.5 -27q-51 0 -78.5 27t-27.5 80zM870 82q0 52 28.5 79t78.5 27q108 0 108 -106q0 -107 -108 -107 q-51 0 -79 27t-28 80z" />
<glyph unicode="&#x202f;" horiz-adv-x="379" />
<glyph unicode="&#x2039;" horiz-adv-x="569" d="M145 535l183 301h110l-145 -277q-7 -13 -7.5 -20t5.5 -19l147 -309h-110z" />
<glyph unicode="&#x203a;" horiz-adv-x="571" d="M131 211l148 287q7 13 7.5 20t-5.5 19l-146 299h111l180 -314l-184 -311h-111z" />
<glyph unicode="&#x205f;" horiz-adv-x="474" />
<glyph unicode="&#x20ac;" horiz-adv-x="1048" d="M23 467l16 86h127q-7 71 0 180h-103l17 84h96q37 248 179 373t350 125q20 0 40.5 -1t37.5 -2.5t35.5 -5t32 -5.5t30.5 -6.5t26.5 -7t24.5 -7t20.5 -6.5t19 -6.5t15.5 -5.5v-258l-72 8l-28 159q-4 26 -27 35q-55 25 -174 25q-167 0 -274.5 -106t-137.5 -308h484l-15 -84 h-477q-6 -93 0 -180h451l-17 -86h-424q32 -198 135 -303t267 -105q109 0 178 25q28 11 31 39l24 151l70 9v-254q-150 -54 -297 -54q-216 0 -344.5 125t-163.5 367h-153z" />
<glyph unicode="&#x2122;" horiz-adv-x="1675" d="M35 1284v199h651v-199h-61l-19 119h-198v-619l141 -10v-61h-369v61l131 10v619h-192l-23 -119h-61zM758 713v59l90 10v625l-90 10v66h188l252 -500l258 500h176v-66l-88 -10v-625l92 -10v-59h-290v59l104 10v521l-219 -424h-74l-217 426v-523l113 -10v-59h-295z" />
<glyph unicode="&#xe000;" horiz-adv-x="1044" d="M0 0v1044h1044v-1044h-1044z" />
</font>
</defs>
</svg>
